<svg width="818" height="900" viewBox="0 0 818 900" fill="none" xmlns="http://www.w3.org/2000/svg">
<g style="mix-blend-mode:hard-light">
<mask id="mask0_253_518" style="mask-type:alpha" maskUnits="userSpaceOnUse" x="-9" y="0" width="827" height="900">
<path d="M-9 0H818V900H-9V0Z" fill="#2C27E3"/>
</mask>
<g mask="url(#mask0_253_518)">
<path d="M-297.197 -971.108C29.204 -954.543 307.871 -708.729 354.243 -372.841C355.592 -363.069 356.741 -353.333 357.625 -343.626C366.51 -251.441 356.811 -161.317 331.565 -77.1996C323.133 -56.6683 315.675 -35.6885 309.254 -14.2694C281.322 78.6926 272.441 178.989 286.576 281.372C300.711 383.754 336.505 477.93 388.691 559.697C400.503 578.278 413.131 596.158 426.574 613.337C473.917 687.387 507.743 771.554 524.192 862.865C525.971 872.446 527.502 882.127 528.843 891.835C575.197 1227.6 373.901 1541.26 64.5645 1647.83C278.003 1503.24 403.1 1245.67 365.528 973.526C348.271 848.534 298.812 736.038 226.717 643.087C226.001 642.146 225.285 641.206 224.506 640.274C158.04 554.601 110.757 452.216 90.3461 338.804C88.5675 329.223 87.0356 319.542 85.6953 309.834C84.355 300.126 83.1975 290.327 82.3131 280.619C71.2915 165.881 88.9796 54.3763 129.698 -46.4489C130.131 -47.552 130.565 -48.6553 131.063 -49.7675C175.223 -159.154 192.321 -281.058 175.065 -406.05C137.484 -678.261 -52.6548 -891.334 -297.197 -971.108Z" fill="url(#paint0_linear_253_518)"/>
<path d="M-295.828 -719.827C-81.4169 -708.966 101.629 -547.466 132.084 -326.869C132.967 -320.474 133.699 -314.058 134.323 -307.678C140.169 -247.107 133.808 -187.941 117.206 -132.667C111.672 -119.205 106.747 -105.418 102.532 -91.3205C84.163 -30.2522 78.3669 35.6097 87.6544 102.881C96.9418 170.153 120.468 231.973 154.737 285.703C162.48 297.904 170.779 309.667 179.626 320.943C210.727 369.576 232.94 424.856 243.735 484.83C244.913 491.132 245.89 497.463 246.773 503.857C277.221 724.404 145.017 930.418 -58.1795 1000.42C82.0132 905.442 164.215 736.272 139.53 557.468C128.192 475.342 95.7138 401.492 48.366 340.422C47.8727 339.825 47.423 339.169 46.9297 338.572C3.27604 282.318 -27.7806 215.044 -41.1965 140.553C-42.3746 134.251 -43.3512 127.921 -44.234 121.526C-45.1169 115.131 -45.8488 108.715 -46.4729 102.335C-53.6948 26.9677 -42.0907 -46.2862 -15.3435 -112.492C-15.031 -113.203 -14.7759 -113.958 -14.4634 -114.67C14.5319 -186.532 25.7584 -266.611 14.4271 -348.687C-10.2583 -527.491 -135.137 -667.439 -295.778 -719.834L-295.828 -719.827Z" fill="url(#paint1_linear_253_518)"/>
<path d="M-137.276 -1147.36C237.328 -1128.38 557.132 -846.221 610.342 -460.809C611.884 -449.637 613.163 -438.427 614.253 -427.28C624.468 -321.454 613.354 -218.084 584.349 -121.513C574.679 -97.9929 566.074 -73.9054 558.711 -49.2757C526.618 57.4185 516.491 172.488 532.718 290.02C548.944 407.553 590.047 515.559 649.92 609.432C663.448 630.75 677.946 651.302 693.403 671.002C747.741 755.97 786.55 852.552 805.411 957.335C807.47 968.345 809.176 979.405 810.718 990.577C863.916 1375.9 632.937 1735.83 277.927 1858.13C522.862 1692.2 666.479 1396.64 623.351 1084.24C603.541 940.758 546.798 811.732 464.076 705.035C463.214 703.991 462.428 702.846 461.566 701.802C385.298 603.52 331.038 485.983 307.598 355.837C305.54 344.827 303.834 333.767 302.291 322.594C300.749 311.422 299.47 300.212 298.38 289.065C285.762 157.389 306.036 29.4049 352.767 -86.2646C353.313 -87.5078 353.759 -88.8264 354.304 -90.0696C404.963 -215.622 424.577 -355.532 404.78 -498.929C361.651 -811.322 143.473 -1055.83 -137.188 -1147.37L-137.276 -1147.36Z" fill="url(#paint2_linear_253_518)"/>
<path d="M-365.617 -516.045C-188.121 -507.05 -36.5343 -373.342 -11.3135 -190.661C-10.5767 -185.323 -9.95444 -180.072 -9.4763 -174.75C-4.65882 -124.608 -9.90809 -75.6104 -23.6614 -29.8253C-28.229 -18.6558 -32.3016 -7.24819 -35.7785 4.38321C-50.9779 54.9416 -55.8218 109.478 -48.1332 165.168C-40.4447 220.859 -21.0021 272.064 7.42275 316.558C13.8525 326.687 20.737 336.391 28.0332 345.73C53.7677 385.984 72.1574 431.794 81.1181 481.453C82.0929 486.654 82.9236 491.927 83.6535 497.214C108.86 679.794 -0.609966 850.406 -168.86 908.381C-52.7999 829.755 15.2456 689.691 -5.19237 541.653C-14.5772 473.676 -86.6166 378.396 -125.84 327.831C-126.218 327.32 -126.597 326.809 -127.026 326.305C-163.184 279.721 -188.896 224.011 -199.978 162.332C-200.953 157.131 -201.784 151.858 -202.513 146.571C-203.243 141.284 -203.873 135.983 -204.351 130.66C-210.347 68.2621 -200.751 7.61257 -178.594 -47.2149C-178.368 -47.8115 -178.142 -48.4081 -177.866 -49.0118C-153.839 -108.518 -144.562 -174.821 -153.946 -242.798C-174.384 -390.836 -232.656 -472.622 -365.617 -516.045Z" fill="url(#paint3_linear_253_518)"/>
</g>
</g>
<defs>
<linearGradient id="paint0_linear_253_518" x1="248.456" y1="921.064" x2="95.6105" y2="-160.152" gradientUnits="userSpaceOnUse">
<stop stop-color="#00FFFB" stop-opacity="0"/>
<stop offset="0.5" stop-color="#00A1DC"/>
</linearGradient>
<linearGradient id="paint1_linear_253_518" x1="62.5917" y1="523.046" x2="-37.8047" y2="-187.151" gradientUnits="userSpaceOnUse">
<stop stop-color="#00FFFB" stop-opacity="0"/>
<stop offset="0.5" stop-color="#00A1DC"/>
</linearGradient>
<linearGradient id="paint2_linear_253_518" x1="760" y1="1037.36" x2="313.484" y2="-215.826" gradientUnits="userSpaceOnUse">
<stop stop-color="#00FFFB" stop-opacity="0"/>
<stop offset="0.927828" stop-color="#00A1DC"/>
</linearGradient>
<linearGradient id="paint3_linear_253_518" x1="-68.8443" y1="513.099" x2="-151.976" y2="-74.9693" gradientUnits="userSpaceOnUse">
<stop stop-color="#00FFFB" stop-opacity="0"/>
<stop offset="0.5" stop-color="#00A1DC"/>
</linearGradient>
</defs>
</svg>
