<svg preserveAspectRatio="none" width="100%" height="100%" overflow="visible" style="display: block;" viewBox="0 0 827 900" fill="none" xmlns="http://www.w3.org/2000/svg">
<g id="supergraphics" style="mix-blend-mode:hard-light">
<mask id="mask0_0_101" style="mask-type:alpha" maskUnits="userSpaceOnUse" x="0" y="0" width="827" height="900">
<path id="Rectangle 184" d="M0 0H827V900H0V0Z" fill="var(--fill-0, #2C27E3)"/>
</mask>
<g mask="url(#mask0_0_101)">
<path id="Vector" d="M-288.197 -971.108C38.204 -954.543 316.871 -708.729 363.243 -372.841C364.592 -363.069 365.741 -353.333 366.625 -343.626C375.51 -251.441 365.811 -161.317 340.565 -77.1997C332.133 -56.6683 324.675 -35.6885 318.254 -14.2694C290.322 78.6925 281.441 178.989 295.576 281.372C309.711 383.754 345.505 477.93 397.691 559.697C409.503 578.278 422.131 596.158 435.574 613.337C482.917 687.388 516.743 771.554 533.192 862.865C534.971 872.446 536.502 882.127 537.843 891.835C584.197 1227.6 382.901 1541.26 73.5645 1647.83C287.003 1503.24 412.1 1245.67 374.528 973.526C357.271 848.534 307.812 736.039 235.717 643.087C235.001 642.146 234.285 641.205 233.506 640.274C167.04 554.601 119.757 452.216 99.3461 338.804C97.5675 329.223 96.0356 319.542 94.6953 309.834C93.355 300.126 92.1975 290.327 91.3131 280.619C80.2915 165.881 97.9796 54.3763 138.698 -46.4489C139.131 -47.552 139.565 -48.6553 140.063 -49.7675C184.223 -159.154 201.321 -281.058 184.065 -406.05C146.484 -678.261 -43.6548 -891.334 -288.197 -971.108Z" fill="url(#paint0_linear_0_101)"/>
<path id="Vector_2" d="M-286.828 -719.827C-72.4169 -708.966 110.629 -547.466 141.084 -326.869C141.967 -320.474 142.699 -314.058 143.323 -307.678C149.169 -247.107 142.808 -187.941 126.206 -132.667C120.672 -119.205 115.747 -105.418 111.532 -91.3205C93.163 -30.2522 87.3669 35.6097 96.6544 102.881C105.942 170.153 129.468 231.973 163.737 285.702C171.48 297.904 179.779 309.667 188.626 320.943C219.727 369.576 241.94 424.856 252.735 484.831C253.913 491.132 254.89 497.463 255.773 503.857C286.221 724.404 154.017 930.418 -49.1794 1000.42C91.0132 905.442 173.215 736.272 148.53 557.468C137.192 475.342 104.714 401.492 57.366 340.422C56.8727 339.825 56.423 339.169 55.9297 338.572C12.276 282.318 -18.7806 215.044 -32.1966 140.553C-33.3746 134.251 -34.3512 127.921 -35.234 121.526C-36.1169 115.131 -36.8488 108.715 -37.4729 102.335C-44.6948 26.9678 -33.0907 -46.2862 -6.3435 -112.492C-6.031 -113.203 -5.77591 -113.958 -5.46342 -114.67C23.5319 -186.532 34.7584 -266.611 23.4271 -348.687C-1.25833 -527.491 -126.137 -667.439 -286.778 -719.834L-286.828 -719.827Z" fill="url(#paint1_linear_0_101)"/>
<path id="Vector_3" d="M-128.276 -1147.36C246.328 -1128.38 566.132 -846.221 619.342 -460.809C620.884 -449.637 622.163 -438.427 623.253 -427.28C633.468 -321.454 622.354 -218.085 593.349 -121.513C583.679 -97.9929 575.074 -73.9053 567.711 -49.2758C535.618 57.4184 525.491 172.488 541.718 290.02C557.944 407.553 599.047 515.559 658.92 609.432C672.448 630.75 686.946 651.302 702.403 671.002C756.741 755.97 795.55 852.552 814.411 957.335C816.47 968.345 818.176 979.405 819.718 990.577C872.916 1375.9 641.937 1735.83 286.927 1858.13C531.862 1692.2 675.479 1396.64 632.351 1084.24C612.541 940.758 555.798 811.732 473.076 705.035C472.214 703.991 471.428 702.846 470.566 701.802C394.298 603.52 340.038 485.983 316.598 355.837C314.54 344.827 312.834 333.767 311.291 322.594C309.749 311.422 308.47 300.212 307.38 289.065C294.762 157.389 315.036 29.405 361.767 -86.2647C362.313 -87.5078 362.759 -88.8264 363.305 -90.0696C413.963 -215.622 433.577 -355.532 413.78 -498.929C370.651 -811.322 152.473 -1055.83 -128.188 -1147.37L-128.276 -1147.36Z" fill="url(#paint2_linear_0_101)"/>
<path id="Vector_4" d="M-356.617 -516.045C-179.121 -507.05 -27.5343 -373.342 -2.31355 -190.661C-1.57667 -185.323 -0.954437 -180.072 -0.476301 -174.75C4.34118 -124.608 -0.908092 -75.6104 -14.6614 -29.8253C-19.229 -18.6558 -23.3016 -7.24818 -26.7785 4.38322C-41.9779 54.9416 -46.8218 109.478 -39.1332 165.168C-31.4447 220.859 -12.0021 272.064 16.4227 316.558C22.8525 326.687 29.737 336.391 37.0332 345.73C62.7677 385.984 81.1574 431.794 90.1181 481.453C91.0929 486.654 91.9236 491.927 92.6535 497.214C117.86 679.794 8.39004 850.406 -159.86 908.381C-43.7999 829.755 24.2456 689.691 3.80763 541.653C-5.57715 473.676 -77.6166 378.396 -116.84 327.831C-117.218 327.32 -117.597 326.809 -118.026 326.305C-154.184 279.721 -179.896 224.011 -190.978 162.332C-191.953 157.131 -192.784 151.858 -193.513 146.571C-194.243 141.284 -194.873 135.983 -195.351 130.66C-201.347 68.2621 -191.751 7.61257 -169.594 -47.2149C-169.368 -47.8115 -169.142 -48.4081 -168.866 -49.0118C-144.839 -108.518 -135.562 -174.821 -144.946 -242.798C-165.384 -390.836 -223.656 -472.622 -356.617 -516.045Z" fill="url(#paint3_linear_0_101)"/>
</g>
</g>
<defs>
<linearGradient id="paint0_linear_0_101" x1="257.456" y1="921.064" x2="104.611" y2="-160.152" gradientUnits="userSpaceOnUse">
<stop stop-color="#00FFFB" stop-opacity="0"/>
<stop offset="0.5" stop-color="#00A1DC"/>
</linearGradient>
<linearGradient id="paint1_linear_0_101" x1="71.5917" y1="523.046" x2="-28.8047" y2="-187.151" gradientUnits="userSpaceOnUse">
<stop stop-color="#00FFFB" stop-opacity="0"/>
<stop offset="0.5" stop-color="#00A1DC"/>
</linearGradient>
<linearGradient id="paint2_linear_0_101" x1="769" y1="1037.36" x2="322.484" y2="-215.826" gradientUnits="userSpaceOnUse">
<stop stop-color="#00FFFB" stop-opacity="0"/>
<stop offset="0.927828" stop-color="#00A1DC"/>
</linearGradient>
<linearGradient id="paint3_linear_0_101" x1="-59.8443" y1="513.099" x2="-142.976" y2="-74.9693" gradientUnits="userSpaceOnUse">
<stop stop-color="#00FFFB" stop-opacity="0"/>
<stop offset="0.5" stop-color="#00A1DC"/>
</linearGradient>
</defs>
</svg>
