<svg preserveAspectRatio="none" width="100%" height="100%" overflow="visible" style="display: block;" viewBox="0 0 745 900" fill="none" xmlns="http://www.w3.org/2000/svg">
<g id="supergraphics" style="mix-blend-mode:hard-light">
<mask id="mask0_0_86" style="mask-type:alpha" maskUnits="userSpaceOnUse" x="0" y="0" width="745" height="900">
<path id="Rectangle 184" d="M0 0H745V900H0V0Z" fill="url(#paint0_linear_0_86)"/>
</mask>
<g mask="url(#mask0_0_86)">
<g id="Vector">
<path d="M-106.249 -713.996C135.353 -651.226 305.896 -424.343 288.787 -165.936C288.289 -158.418 287.647 -150.959 286.812 -143.561C279.242 -73.2341 258.089 -7.31733 226.233 51.7067C216.759 65.763 207.945 80.305 199.84 95.3358C164.61 160.561 142.501 234.214 137.286 312.979C132.071 391.744 144.323 467.714 170.75 536.931C176.721 552.653 183.409 567.976 190.816 582.901C214.81 645.599 227.134 713.778 225.357 784.619C225.21 792.06 224.863 799.538 224.369 807.007C207.266 1065.31 8.32281 1268.87 -239.502 1300.84C-57.5495 1225.63 75.7456 1052.27 89.6078 842.905C95.9744 746.746 76.3251 654.964 36.7308 574.307C36.3403 573.493 35.9497 572.679 35.5101 571.862C-0.996343 497.518 -20.5762 413.635 -18.3555 325.652C-18.2085 318.21 -17.8614 310.732 -17.3669 303.264C-16.8725 295.795 -16.2272 288.286 -15.3918 280.889C-5.94261 193.361 24.4833 112.685 70.4893 43.551C70.9839 42.7928 71.4785 42.0345 72.0223 41.2794C121.923 -33.7269 153.512 -122.274 159.879 -218.433C173.744 -427.851 64.3732 -616.58 -106.249 -713.996Z" fill="url(#paint1_linear_0_86)"/>
<path d="M-143.973 -525.822C14.7368 -484.604 126.755 -335.548 115.518 -165.837C115.192 -160.918 114.75 -156.005 114.233 -151.137C109.266 -104.926 95.3842 -61.6515 74.4419 -22.8682C68.2259 -13.6524 62.4158 -4.09983 57.0892 5.79449C33.9316 48.6391 19.4396 97.01 16.013 148.764C12.5864 200.517 20.6516 250.39 38.0002 295.87C41.9104 306.192 46.3038 316.272 51.1829 326.072C66.9478 367.251 75.0388 412.029 73.8658 458.557C73.7752 463.453 73.5296 468.339 73.2038 473.258C61.97 642.93 -68.6908 776.625 -231.481 797.622C-111.968 748.219 -24.3914 634.365 -15.2837 496.807C-11.1005 433.626 -24.0064 373.372 -50.0062 320.383C-50.283 319.86 -50.5184 319.301 -50.7952 318.777C-74.7745 269.961 -87.6313 214.846 -86.1797 157.054C-86.0891 152.159 -85.8434 147.273 -85.5177 142.353C-85.1919 137.434 -84.75 132.521 -84.233 127.653C-78.013 70.1625 -58.0365 17.1586 -27.8196 -28.2356C-27.4761 -28.7196 -27.1689 -29.2448 -26.8255 -29.7288C5.94544 -79.0074 26.692 -137.175 30.8726 -200.318C39.9802 -337.876 -31.8506 -461.833 -143.934 -525.82L-143.973 -525.822Z" fill="url(#paint2_linear_0_86)"/>
<path d="M40.557 -821.149C317.843 -749.136 513.553 -488.715 493.921 -192.209C493.352 -183.613 492.58 -175.031 491.677 -166.525C482.999 -85.789 458.745 -10.1825 422.156 57.577C411.296 73.6782 401.145 90.3678 391.839 107.654C351.379 182.51 326.06 267.02 320.073 357.44C314.086 447.861 328.177 534.995 358.488 614.454C365.319 632.488 372.995 650.1 381.519 667.221C409.063 739.165 423.199 817.4 421.149 898.69C420.991 907.243 420.562 915.779 419.993 924.375C400.366 1220.81 172.084 1454.4 -112.331 1491.08C96.474 1404.77 249.481 1205.85 265.394 965.518C272.702 855.132 250.154 749.861 204.729 657.282C204.245 656.368 203.834 655.39 203.35 654.476C161.455 569.188 138.993 472.894 141.529 371.925C141.687 363.372 142.117 354.836 142.686 346.24C143.255 337.645 144.027 329.062 144.93 320.556C155.797 220.114 190.699 127.509 243.492 48.1995C244.092 47.3539 244.629 46.4363 245.229 45.5907C302.484 -40.5053 338.731 -142.132 346.035 -252.45C361.947 -492.782 236.449 -709.351 40.6248 -821.145L40.557 -821.149Z" fill="url(#paint3_linear_0_86)"/>
<path d="M-227.601 -384.162C-96.2166 -350.037 -3.44471 -226.625 -12.7498 -86.0842C-13.0217 -81.978 -13.366 -77.9542 -13.8292 -73.899C-17.9578 -35.6489 -29.4402 0.191827 -46.7884 32.3168C-51.9274 39.9668 -56.733 47.8713 -61.1275 56.0351C-80.2934 91.5074 -92.3267 131.553 -95.1633 174.397C-98 217.241 -91.3528 258.545 -76.9517 296.214C-73.7039 304.783 -70.0507 313.104 -66.033 321.216C-52.9905 355.299 -46.2989 392.404 -47.2538 430.932C-47.3267 434.973 -47.5184 439.045 -47.7877 443.113C-57.0877 583.576 -165.284 694.299 -300.079 711.696C-201.138 670.796 -128.64 576.53 -121.099 462.64C-117.637 410.344 -128.307 360.424 -149.849 316.546C-150.054 316.106 -150.258 315.665 -150.501 315.221C-170.365 274.795 -181.007 229.155 -179.786 181.308C-179.713 177.267 -179.521 173.195 -179.251 169.127C-178.982 165.06 -178.635 160.997 -178.172 156.942C-173.035 109.342 -156.504 65.4563 -131.476 27.8646C-131.215 27.4531 -130.954 27.0417 -130.654 26.6327C-103.505 -14.1705 -86.341 -62.3338 -82.8785 -114.63C-75.3379 -228.519 -134.838 -331.159 -227.601 -384.162Z" fill="url(#paint4_linear_0_86)"/>
</g>
</g>
</g>
<defs>
<linearGradient id="paint0_linear_0_86" x1="549.473" y1="450" x2="241.766" y2="450" gradientUnits="userSpaceOnUse">
<stop stop-color="#00FFFB" stop-opacity="0"/>
<stop offset="0.5" stop-color="#00A1DC"/>
</linearGradient>
<linearGradient id="paint1_linear_0_86" x1="-243.14" y1="19.9203" x2="235.706" y2="564.985" gradientUnits="userSpaceOnUse">
<stop stop-color="#00FFFB" stop-opacity="0"/>
<stop offset="0.5" stop-color="#00A1DC"/>
</linearGradient>
<linearGradient id="paint2_linear_0_86" x1="-243.14" y1="19.9203" x2="235.706" y2="564.985" gradientUnits="userSpaceOnUse">
<stop stop-color="#00FFFB" stop-opacity="0"/>
<stop offset="0.5" stop-color="#00A1DC"/>
</linearGradient>
<linearGradient id="paint3_linear_0_86" x1="-243.14" y1="19.9203" x2="235.706" y2="564.985" gradientUnits="userSpaceOnUse">
<stop stop-color="#00FFFB" stop-opacity="0"/>
<stop offset="0.5" stop-color="#00A1DC"/>
</linearGradient>
<linearGradient id="paint4_linear_0_86" x1="-243.14" y1="19.9203" x2="235.706" y2="564.985" gradientUnits="userSpaceOnUse">
<stop stop-color="#00FFFB" stop-opacity="0"/>
<stop offset="0.5" stop-color="#00A1DC"/>
</linearGradient>
</defs>
</svg>
