<svg preserveAspectRatio="none" width="100%" height="100%" overflow="visible" style="display: block;" viewBox="0 0 1712 1701.38" fill="none" xmlns="http://www.w3.org/2000/svg">
<g id="Union">
<path d="M943.895 174.442C1148.34 -30.6665 1464.85 -54.9077 1695.93 101.757C1488.13 30.2958 1248.85 77.7273 1083.13 243.987C1007.05 320.311 955.958 412.238 929.748 509.559C929.515 510.542 929.188 511.525 928.955 512.509C904.843 602.195 859.488 687.333 792.935 759.912C787.287 766.046 781.5 772.133 775.572 778.08C769.645 784.027 763.672 789.833 757.511 795.452C742.237 809.568 726.397 822.732 710.071 834.945C743.263 814.285 774.622 789.51 803.4 760.638C857.717 706.144 897.424 642.568 922.521 574.805C928.312 559.198 933.291 543.388 937.489 527.407C960.215 466.104 994.873 408.205 1041.5 357.416C1046.38 352.045 1051.43 346.775 1056.61 341.574C1234.81 162.796 1510.63 141.722 1712 278.271C1530.92 215.993 1322.38 257.318 1177.97 402.203C1111.65 468.731 1067.14 548.832 1044.32 633.632C1044.12 634.516 1043.88 635.366 1043.64 636.216C1033.63 673.432 1019.43 709.743 1001.04 744.4C1001.24 744.199 1001.44 743.999 1001.65 743.798C1037.34 707.992 1063.43 666.26 1079.91 621.736C1083.72 611.47 1086.98 601.069 1089.73 590.588C1104.66 550.299 1127.41 512.291 1158.05 478.924C1161.28 475.413 1164.6 471.929 1167.99 468.525C1285.01 351.128 1466.17 337.253 1598.43 426.922C1479.49 386.02 1342.54 413.169 1247.68 508.331C1207.66 548.48 1179.72 596.173 1163.82 646.873C1169.98 638.436 1176.66 630.265 1183.87 622.404C1186.55 619.456 1189.27 616.615 1192.1 613.774C1289.02 516.542 1439.06 505.083 1548.55 579.345C1450.08 545.512 1336.65 567.973 1258.11 646.767C1222.05 682.947 1197.82 726.504 1185.41 772.637C1185.31 773.119 1185.17 773.576 1185.04 774.031C1173.61 816.546 1152.11 856.886 1120.57 891.271C1117.9 894.22 1115.14 897.087 1112.34 899.901C1109.53 902.715 1106.67 905.476 1103.76 908.129C1069.51 939.807 1029.25 961.376 986.875 972.838C986.394 972.945 985.94 973.079 985.485 973.213C939.502 985.666 896.086 1009.97 860.022 1046.15C781.484 1124.94 759.096 1238.68 792.792 1337.46C718.824 1227.55 730.299 1077.08 827.164 979.897C829.969 977.084 832.828 974.323 835.739 971.67C863.335 946.183 894.808 927.212 928.152 914.836C936.676 912.56 945.119 909.881 953.481 906.747C990.326 893.058 1024.85 871.353 1054.39 841.712C1072.65 823.395 1087.86 803.191 1100.04 781.731C1094.25 789.225 1088.09 796.532 1081.58 803.629C1078.35 807.14 1075.04 810.625 1071.65 814.028C1068.25 817.432 1064.84 820.755 1061.31 823.971C1019.93 862.214 971.303 888.259 920.136 902.104C919.575 902.238 919.013 902.426 918.452 902.56C862.929 917.61 810.511 946.924 766.94 990.636C672.079 1085.8 645.048 1223.19 685.751 1342.5C618.402 1242.44 609.692 1114.55 659.613 1007.36C581.449 1031.46 507.875 1074.47 446.059 1136.49C301.676 1281.34 260.484 1490.49 322.459 1672.12C186.454 1470.06 207.528 1193.41 385.659 1014.7C390.81 1009.53 396.062 1004.47 401.416 999.575C424.765 977.998 449.624 958.972 475.637 942.499C390.652 970.805 310.831 1018.79 243.209 1086.64C77.4745 1252.91 30.2483 1492.94 101.361 1701.38C-54.726 1469.49 -30.5375 1152.04 173.889 946.948C179.816 941.002 185.79 935.196 191.951 929.577C250.153 875.777 316.529 835.796 386.924 809.681C404.943 804.908 422.775 799.2 440.374 792.601C518.051 763.677 590.915 717.937 653.27 655.38C715.624 592.823 761.216 519.91 789.999 442.121C796.67 424.184 802.361 406.013 807.164 387.701C833.242 317.312 873 250.908 926.532 192.61C932.179 186.476 937.967 180.389 943.895 174.442ZM1598.46 426.932L1598.49 426.959C1598.47 426.947 1598.45 426.934 1598.43 426.922C1598.44 426.925 1598.45 426.928 1598.46 426.932ZM1695.98 101.773L1696.03 101.82C1695.99 101.799 1695.96 101.778 1695.93 101.757C1695.95 101.762 1695.96 101.768 1695.98 101.773Z" fill="url(#paint0_linear_0_298)"/>
<path d="M943.895 174.442C1148.34 -30.6665 1464.85 -54.9077 1695.93 101.757C1488.13 30.2958 1248.85 77.7273 1083.13 243.987C1007.05 320.311 955.958 412.238 929.748 509.559C929.515 510.542 929.188 511.525 928.955 512.509C904.843 602.195 859.488 687.333 792.935 759.912C787.287 766.046 781.5 772.133 775.572 778.08C769.645 784.027 763.672 789.833 757.511 795.452C742.237 809.568 726.397 822.732 710.071 834.945C743.263 814.285 774.622 789.51 803.4 760.638C857.717 706.144 897.424 642.568 922.521 574.805C928.312 559.198 933.291 543.388 937.489 527.407C960.215 466.104 994.873 408.205 1041.5 357.416C1046.38 352.045 1051.43 346.775 1056.61 341.574C1234.81 162.796 1510.63 141.722 1712 278.271C1530.92 215.993 1322.38 257.318 1177.97 402.203C1111.65 468.731 1067.14 548.832 1044.32 633.632C1044.12 634.516 1043.88 635.366 1043.64 636.216C1033.63 673.432 1019.43 709.743 1001.04 744.4C1001.24 744.199 1001.44 743.999 1001.65 743.798C1037.34 707.992 1063.43 666.26 1079.91 621.736C1083.72 611.47 1086.98 601.069 1089.73 590.588C1104.66 550.299 1127.41 512.291 1158.05 478.924C1161.28 475.413 1164.6 471.929 1167.99 468.525C1285.01 351.128 1466.17 337.253 1598.43 426.922C1479.49 386.02 1342.54 413.169 1247.68 508.331C1207.66 548.48 1179.72 596.173 1163.82 646.873C1169.98 638.436 1176.66 630.265 1183.87 622.404C1186.55 619.456 1189.27 616.615 1192.1 613.774C1289.02 516.542 1439.06 505.083 1548.55 579.345C1450.08 545.512 1336.65 567.973 1258.11 646.767C1222.05 682.947 1197.82 726.504 1185.41 772.637C1185.31 773.119 1185.17 773.576 1185.04 774.031C1173.61 816.546 1152.11 856.886 1120.57 891.271C1117.9 894.22 1115.14 897.087 1112.34 899.901C1109.53 902.715 1106.67 905.476 1103.76 908.129C1069.51 939.807 1029.25 961.376 986.875 972.838C986.394 972.945 985.94 973.079 985.485 973.213C939.502 985.666 896.086 1009.97 860.022 1046.15C781.484 1124.94 759.096 1238.68 792.792 1337.46C718.824 1227.55 730.299 1077.08 827.164 979.897C829.969 977.084 832.828 974.323 835.739 971.67C863.335 946.183 894.808 927.212 928.152 914.836C936.676 912.56 945.119 909.881 953.481 906.747C990.326 893.058 1024.85 871.353 1054.39 841.712C1072.65 823.395 1087.86 803.191 1100.04 781.731C1094.25 789.225 1088.09 796.532 1081.58 803.629C1078.35 807.14 1075.04 810.625 1071.65 814.028C1068.25 817.432 1064.84 820.755 1061.31 823.971C1019.93 862.214 971.303 888.259 920.136 902.104C919.575 902.238 919.013 902.426 918.452 902.56C862.929 917.61 810.511 946.924 766.94 990.636C672.079 1085.8 645.048 1223.19 685.751 1342.5C618.402 1242.44 609.692 1114.55 659.613 1007.36C581.449 1031.46 507.875 1074.47 446.059 1136.49C301.676 1281.34 260.484 1490.49 322.459 1672.12C186.454 1470.06 207.528 1193.41 385.659 1014.7C390.81 1009.53 396.062 1004.47 401.416 999.575C424.765 977.998 449.624 958.972 475.637 942.499C390.652 970.805 310.831 1018.79 243.209 1086.64C77.4745 1252.91 30.2483 1492.94 101.361 1701.38C-54.726 1469.49 -30.5375 1152.04 173.889 946.948C179.816 941.002 185.79 935.196 191.951 929.577C250.153 875.777 316.529 835.796 386.924 809.681C404.943 804.908 422.775 799.2 440.374 792.601C518.051 763.677 590.915 717.937 653.27 655.38C715.624 592.823 761.216 519.91 789.999 442.121C796.67 424.184 802.361 406.013 807.164 387.701C833.242 317.312 873 250.908 926.532 192.61C932.179 186.476 937.967 180.389 943.895 174.442ZM1598.46 426.932L1598.49 426.959C1598.47 426.947 1598.45 426.934 1598.43 426.922C1598.44 426.925 1598.45 426.928 1598.46 426.932ZM1695.98 101.773L1696.03 101.82C1695.99 101.799 1695.96 101.778 1695.93 101.757C1695.95 101.762 1695.96 101.768 1695.98 101.773Z" fill="url(#paint1_linear_0_298)"/>
</g>
<defs>
<linearGradient id="paint0_linear_0_298" x1="884.396" y1="609.054" x2="1167.81" y2="873.06" gradientUnits="userSpaceOnUse">
<stop stop-color="#2721C3"/>
<stop offset="1" stop-color="#13105D" stop-opacity="0"/>
</linearGradient>
<linearGradient id="paint1_linear_0_298" x1="1262.68" y1="850.692" x2="529.295" y2="818.335" gradientUnits="userSpaceOnUse">
<stop stop-color="#00FFFB" stop-opacity="0"/>
<stop offset="0.884657" stop-color="#00A1DC"/>
</linearGradient>
</defs>
</svg>
