<svg preserveAspectRatio="none" width="100%" height="100%" overflow="visible" style="display: block;" viewBox="0 0 48 48" fill="none" xmlns="http://www.w3.org/2000/svg">
<g id="grate-droplet (1) 1" clip-path="url(#clip0_0_106)">
<path id="Vector" d="M41 0H7C3.14 0 0 3.14 0 7V48H26.836C26.69 47.864 26.536 47.742 26.394 47.6C24.788 45.994 23.606 44.08 22.872 42H20V27H25.838C26.022 26.794 26.198 26.584 26.394 26.386L34 18.948V6H41C41.55 6 42 6.45 42 7V20.904L47.55 26.332C47.708 26.49 47.848 26.662 48 26.826V7C48 3.14 44.86 0 41 0ZM7 6H14V21H6V7C6 6.45 6.45 6 7 6ZM14 42H6V27H14V42ZM28 21H20V6H28V21ZM37 21.61L29.222 29.216C27.144 31.294 26 34.056 26 36.994C26 39.932 27.144 42.696 29.222 44.774C31.3 46.852 34.062 47.996 37 47.996C39.938 47.996 42.702 46.852 44.778 44.774C46.856 42.696 48 39.934 48 36.994C48 34.054 46.856 31.294 44.754 29.194L37 21.61ZM40.536 40.53C38.656 42.418 35.36 42.422 33.468 40.53C32.522 39.584 32.004 38.328 32.004 36.992C32.004 35.656 32.524 34.402 33.446 33.48L37.004 30L40.54 33.458C41.486 34.404 42.004 35.66 42.004 36.994C42.004 38.328 41.484 39.586 40.54 40.532L40.536 40.53Z" fill="var(--fill-0, #00A1DC)"/>
</g>
<defs>
<clipPath id="clip0_0_106">
<rect width="48" height="48" fill="white"/>
</clipPath>
</defs>
</svg>
