<svg preserveAspectRatio="none" width="100%" height="100%" overflow="visible" style="display: block;" viewBox="0 0 48 48" fill="none" xmlns="http://www.w3.org/2000/svg">
<g id="people-group 1" clip-path="url(#clip0_0_87)">
<path id="Vector" d="M18 10C18 6.686 20.686 4 24 4C27.314 4 30 6.686 30 10C30 13.314 27.314 16 24 16C20.686 16 18 13.314 18 10ZM38 12C41.314 12 44 9.314 44 6C44 2.686 41.314 0 38 0C34.686 0 32 2.686 32 6C32 9.314 34.686 12 38 12ZM10 12C13.314 12 16 9.314 16 6C16 2.686 13.314 0 10 0C6.686 0 4 2.686 4 6C4 9.314 6.686 12 10 12ZM34 25V40H31V48H25V40H23V48H17V40H14V25C14 21.14 17.14 18 21 18H27C30.86 18 34 21.14 34 25ZM20 34H28V25C28 24.448 27.552 24 27 24H21C20.448 24 20 24.448 20 25V34ZM41 14H33.156C32.938 14.496 32.674 14.966 32.382 15.416C34.264 16.476 35.798 18.074 36.786 20H41C41.552 20 42 20.448 42 21V30H38V44H44V36H48V21C48 17.14 44.86 14 41 14ZM14.844 14H7C3.14 14 0 17.14 0 21V36H4V44H10V30H6V21C6 20.448 6.448 20 7 20H11.214C12.202 18.074 13.736 16.478 15.618 15.416C15.326 14.966 15.062 14.496 14.844 14Z" fill="var(--fill-0, #09BDF2)"/>
</g>
<defs>
<clipPath id="clip0_0_87">
<rect width="48" height="48" fill="white"/>
</clipPath>
</defs>
</svg>
