<svg preserveAspectRatio="none" width="100%" height="100%" overflow="visible" style="display: block;" viewBox="0 0 48 48" fill="none" xmlns="http://www.w3.org/2000/svg">
<g id="earth-asia (1) 1" clip-path="url(#clip0_0_85)">
<path id="Vector" d="M24 0C10.766 0 0 10.766 0 24C0 37.234 10.766 48 24 48C37.234 48 48 37.234 48 24C48 10.766 37.234 0 24 0ZM18.376 36H15.624C14.728 36 14 35.272 14 34.376V33.918C14 32.914 14.902 32.15 15.892 32.316L18.644 32.774C19.428 32.904 20.002 33.582 20.002 34.376C20.002 35.272 19.274 36 18.378 36H18.376ZM27.216 28.906L25.27 30.852C24.636 31.486 23.608 31.486 22.974 30.852C22.412 30.29 22.34 29.406 22.8 28.76L24.422 26.49C25.006 25.674 26.182 25.576 26.892 26.286L27.216 26.61C27.85 27.244 27.85 28.272 27.216 28.906ZM27.132 10.218L24.928 10.768C24.35 10.912 23.886 11.342 23.696 11.908L23.288 13.134C23.106 13.676 23.204 14.274 23.548 14.732L24.948 16.598C25.572 17.43 25.572 18.572 24.948 19.404L23.702 21.066C23.26 21.654 22.568 22.002 21.832 22.002H20.474C19.702 22.002 19.116 22.694 19.242 23.456L19.808 26.85C19.922 27.536 19.576 28.216 18.954 28.526L17.144 29.43C16.476 29.764 15.666 29.586 15.2 29.002L12.828 26.036C12.366 25.46 11.532 25.354 10.94 25.796L8.63 27.528C8.22 27.836 7.722 28.002 7.21 28.002H4.402C4.138 26.71 3.998 25.372 3.998 24.002C4 12.972 12.972 4 24 4C26.248 4 28.402 4.39 30.42 5.076C29.602 6.766 28.84 8.312 28.398 9.202C28.146 9.712 27.684 10.08 27.132 10.218ZM29.77 17.738C28.844 17.352 28.486 16.226 29.018 15.376L30.5 13.012C30.922 12.34 31.768 12.07 32.5 12.376C33.328 12.722 33.72 13.672 33.374 14.5L32.316 17.04C31.97 17.868 31.02 18.26 30.192 17.914L29.768 17.738H29.77ZM37.432 38.776L33.39 38.198C32.52 38.074 31.766 37.53 31.374 36.744L30.6 35.196C30.224 34.442 30.224 33.554 30.6 32.8L31.416 31.17C31.786 30.43 32.476 29.904 33.286 29.742L36.496 29.1C36.826 29.034 37.128 28.872 37.364 28.636L39.062 26.938C39.614 26.386 40.47 26.282 41.138 26.682L43.564 28.138C42.682 32.316 40.48 36.002 37.432 38.776Z" fill="var(--fill-0, #1952D2)"/>
</g>
<defs>
<clipPath id="clip0_0_85">
<rect width="48" height="48" fill="white"/>
</clipPath>
</defs>
</svg>
