<svg width="1440" height="431" viewBox="0 0 1440 431" fill="none" xmlns="http://www.w3.org/2000/svg">
<mask id="path-1-inside-1_313_852" fill="white">
<path fill-rule="evenodd" clip-rule="evenodd" d="M9.94102 484.187C-227.501 247.513 -255.564 -118.892 -74.2016 -386.401C-156.929 -145.837 -102.02 131.156 90.4488 323.002C178.804 411.071 285.223 470.221 397.884 500.563C399.023 500.833 400.161 501.211 401.299 501.481C505.124 529.393 603.683 581.898 687.703 658.943C694.804 665.48 701.85 672.18 708.734 679.041C715.618 685.903 722.34 692.819 728.844 699.951C745.19 717.638 760.433 735.979 774.575 754.885C750.655 716.455 721.971 680.147 688.543 646.827C625.459 583.948 551.861 537.983 473.416 508.93C455.349 502.225 437.046 496.462 418.547 491.602C347.58 465.293 280.554 425.173 221.758 371.199C215.54 365.551 209.441 359.706 203.42 353.704C-3.54019 147.415 -27.936 -171.889 130.137 -405C58.0423 -195.376 105.882 46.0356 273.606 213.217C350.621 289.982 443.348 341.513 541.515 367.932C542.539 368.167 543.523 368.442 544.507 368.716C587.587 380.304 629.62 396.74 669.739 418.026C669.509 417.795 669.28 417.562 669.049 417.332C627.6 376.016 579.288 345.807 527.746 326.736C515.861 322.315 503.821 318.545 491.687 315.363C445.048 298.084 401.049 271.74 362.422 236.27C358.357 232.528 354.324 228.693 350.383 224.766C214.48 89.3024 198.418 -120.414 302.222 -273.527C254.873 -135.836 286.301 22.7042 396.463 132.51C442.94 178.837 498.151 211.181 556.841 229.596C547.075 222.465 537.617 214.725 528.518 206.377C525.105 203.285 521.817 200.13 518.528 196.852C405.968 84.6562 392.702 -89.0314 478.671 -215.79C439.505 -101.789 465.507 29.5166 556.721 120.436C598.606 162.184 649.028 190.228 702.433 204.597C702.992 204.72 703.519 204.875 704.047 205.03C753.263 218.255 799.963 243.144 839.769 279.665C843.182 282.758 846.502 285.943 849.759 289.19C853.017 292.437 856.212 295.747 859.284 299.117C895.955 338.764 920.924 385.374 934.193 434.431C934.317 434.987 934.472 435.514 934.628 436.039C949.044 489.272 977.177 539.531 1019.06 581.279C1110.28 672.199 1241.95 698.115 1356.29 659.108C1229.05 744.736 1054.86 731.451 942.366 619.318C939.108 616.07 935.913 612.762 932.841 609.391C903.337 577.445 881.374 541.011 867.047 502.41C864.412 492.543 861.311 482.769 857.683 473.088C841.837 430.435 816.71 390.476 782.396 356.273C761.193 335.138 737.807 317.526 712.966 303.424C721.64 310.137 730.098 317.258 738.312 324.79C742.376 328.532 746.41 332.367 750.35 336.294C754.29 340.222 758.137 344.181 761.86 348.263C806.132 396.167 836.282 452.457 852.31 511.691C852.465 512.34 852.681 512.989 852.837 513.639C870.26 577.914 904.194 638.597 954.796 689.035C1064.97 798.85 1224.01 830.141 1362.12 783.023C1246.29 860.989 1098.24 871.071 974.16 813.279C1002.05 903.766 1051.85 988.938 1123.64 1060.5C1291.33 1227.64 1533.44 1275.33 1743.71 1203.58C1509.8 1361.03 1189.54 1336.63 982.657 1130.42C976.675 1124.46 970.812 1118.38 965.145 1112.18C940.166 1085.15 918.141 1056.37 899.071 1026.26C931.838 1124.64 987.393 1217.04 1065.93 1295.33C1258.41 1487.19 1536.28 1541.86 1777.58 1459.53C1509.14 1640.22 1141.64 1612.22 904.221 1375.57C897.337 1368.71 890.616 1361.79 884.112 1354.66C821.832 1287.29 775.548 1210.45 745.316 1128.96C739.791 1108.1 733.182 1087.45 725.543 1067.08C692.059 977.158 639.109 892.808 566.691 820.624C494.273 748.44 409.867 695.662 319.816 662.341C299.052 654.618 278.016 648.031 256.817 642.47C175.332 612.281 98.4604 566.256 30.9733 504.285C23.8722 497.748 16.8251 491.048 9.94102 484.187ZM302.234 -273.56L302.265 -273.591C302.251 -273.569 302.237 -273.548 302.222 -273.527C302.226 -273.538 302.23 -273.549 302.234 -273.56ZM-74.183 -386.454L-74.1293 -386.508C-74.1534 -386.472 -74.1775 -386.437 -74.2016 -386.401C-74.1956 -386.419 -74.1891 -386.436 -74.183 -386.454Z"/>
</mask>
<path d="M9.94102 484.187L9.23507 484.895V484.895L9.94102 484.187ZM90.4488 323.002L89.7429 323.71V323.71L90.4488 323.002ZM397.884 500.563L397.624 501.528L397.639 501.532L397.654 501.536L397.884 500.563ZM401.299 501.481L401.559 500.515L401.545 500.511L401.53 500.508L401.299 501.481ZM687.703 658.943L688.38 658.207L688.379 658.206L687.703 658.943ZM708.734 679.041L709.44 678.333V678.333L708.734 679.041ZM728.844 699.951L728.105 700.625L728.11 700.63L728.844 699.951ZM774.575 754.885L773.774 755.484L775.424 754.357L774.575 754.885ZM688.543 646.827L689.249 646.119V646.119L688.543 646.827ZM473.416 508.93L473.068 509.867L473.068 509.868L473.416 508.93ZM418.547 491.602L418.199 492.539L418.245 492.556L418.292 492.569L418.547 491.602ZM221.758 371.199L222.435 370.463L222.431 370.459L221.758 371.199ZM203.42 353.704L202.714 354.413V354.413L203.42 353.704ZM130.137 -405L131.083 -404.675L129.31 -405.561L130.137 -405ZM273.606 213.217L272.9 213.925V213.925L273.606 213.217ZM541.515 367.932L541.255 368.897L541.273 368.902L541.291 368.906L541.515 367.932ZM544.507 368.716L544.239 369.679L544.248 369.682L544.507 368.716ZM669.739 418.026L669.27 418.909L670.447 417.319L669.739 418.026ZM669.049 417.332L669.755 416.624V416.624L669.049 417.332ZM527.746 326.736L527.397 327.673L527.399 327.673L527.746 326.736ZM491.687 315.363L491.34 316.3L491.386 316.317L491.433 316.33L491.687 315.363ZM362.422 236.27L361.744 237.005L361.745 237.006L362.422 236.27ZM350.383 224.766L349.677 225.474V225.474L350.383 224.766ZM396.463 132.51L395.758 133.218V133.218L396.463 132.51ZM556.841 229.596L556.542 230.55L557.431 228.788L556.841 229.596ZM528.518 206.377L529.194 205.64L529.19 205.636L528.518 206.377ZM518.528 196.852L517.822 197.56V197.56L518.528 196.852ZM478.671 -215.79L479.616 -215.465L477.843 -216.351L478.671 -215.79ZM556.721 120.436L556.015 121.144V121.144L556.721 120.436ZM702.433 204.597L702.173 205.562L702.195 205.568L702.217 205.573L702.433 204.597ZM704.047 205.03L703.765 205.989L703.776 205.992L703.787 205.995L704.047 205.03ZM839.769 279.665L839.093 280.402L839.098 280.406L839.769 279.665ZM849.759 289.19L850.465 288.481V288.481L849.759 289.19ZM859.284 299.117L858.545 299.791L858.55 299.796L859.284 299.117ZM934.193 434.431L935.169 434.213L935.164 434.191L935.158 434.17L934.193 434.431ZM934.628 436.039L935.593 435.778L935.59 435.767L935.587 435.756L934.628 436.039ZM1019.06 581.279L1018.36 581.988V581.988L1019.06 581.279ZM1356.29 659.108L1356.84 659.937L1355.96 658.161L1356.29 659.108ZM942.366 619.318L941.66 620.026V620.026L942.366 619.318ZM932.841 609.391L933.581 608.717L933.576 608.712L932.841 609.391ZM867.047 502.41L866.081 502.668L866.094 502.714L866.11 502.758L867.047 502.41ZM857.683 473.088L856.746 473.436L856.747 473.439L857.683 473.088ZM782.396 356.273L783.102 355.564V355.564L782.396 356.273ZM712.966 303.424L713.46 302.554L712.354 304.215L712.966 303.424ZM738.312 324.79L738.989 324.055L738.988 324.053L738.312 324.79ZM750.35 336.294L751.056 335.586V335.586L750.35 336.294ZM761.86 348.263L761.121 348.937L761.126 348.942L761.86 348.263ZM852.31 511.691L853.283 511.458L853.279 511.444L853.275 511.429L852.31 511.691ZM852.837 513.639L851.864 513.871L851.867 513.886L851.871 513.9L852.837 513.639ZM954.796 689.035L954.091 689.744V689.744L954.796 689.035ZM1362.12 783.023L1362.68 783.852L1361.8 782.076L1362.12 783.023ZM974.16 813.279L974.582 812.373L972.541 811.422L973.204 813.574L974.16 813.279ZM1123.64 1060.5L1122.93 1061.21V1061.21L1123.64 1060.5ZM1743.71 1203.58L1744.27 1204.41L1743.38 1202.64L1743.71 1203.58ZM982.657 1130.42L981.951 1131.13V1131.13L982.657 1130.42ZM965.145 1112.18L965.883 1111.5L965.88 1111.5L965.145 1112.18ZM899.071 1026.26L899.916 1025.72L898.122 1026.57L899.071 1026.26ZM1065.93 1295.33L1065.22 1296.03V1296.03L1065.93 1295.33ZM1777.58 1459.53L1778.14 1460.36L1777.26 1458.59L1777.58 1459.53ZM904.221 1375.57L903.515 1376.28V1376.28L904.221 1375.57ZM884.112 1354.66L884.851 1353.99L884.846 1353.98L884.112 1354.66ZM745.316 1128.96L744.349 1129.21L744.362 1129.26L744.379 1129.3L745.316 1128.96ZM725.543 1067.08L724.605 1067.43L724.606 1067.43L725.543 1067.08ZM566.691 820.624L567.397 819.916V819.916L566.691 820.624ZM319.816 662.341L319.467 663.278L319.469 663.279L319.816 662.341ZM256.817 642.47L256.47 643.408L256.516 643.425L256.563 643.437L256.817 642.47ZM30.9733 504.285L30.2959 505.021L30.2969 505.022L30.9733 504.285ZM302.234 -273.56L301.538 -274.279L301.366 -274.112L301.288 -273.886L302.234 -273.56ZM302.265 -273.591L303.093 -273.029L301.569 -274.309L302.265 -273.591ZM-74.183 -386.454L-74.8901 -387.161L-75.0535 -386.998L-75.1287 -386.779L-74.183 -386.454ZM-74.1293 -386.508L-73.3017 -385.946L-74.8364 -387.215L-74.1293 -386.508ZM9.94102 484.187L10.647 483.479C-226.449 247.15 -254.471 -118.721 -73.3739 -385.84L-74.2016 -386.401L-75.0293 -386.962C-256.656 -119.063 -228.553 247.876 9.23507 484.895L9.94102 484.187ZM-74.2016 -386.401L-75.1472 -386.726C-157.994 -145.813 -103.007 131.584 89.7429 323.71L90.4488 323.002L91.1548 322.294C-101.033 130.728 -155.863 -145.86 -73.2559 -386.076L-74.2016 -386.401ZM90.4488 323.002L89.7429 323.71C178.225 411.906 284.799 471.142 397.624 501.528L397.884 500.563L398.144 499.597C285.646 469.299 179.382 410.236 91.1548 322.294L90.4488 323.002ZM397.884 500.563L397.654 501.536C398.198 501.665 398.745 501.82 399.318 501.983C399.883 502.144 400.474 502.313 401.069 502.454L401.299 501.481L401.53 500.508C400.986 500.379 400.439 500.223 399.866 500.06C399.3 499.899 398.71 499.731 398.115 499.59L397.884 500.563ZM401.299 501.481L401.04 502.446C504.713 530.318 603.128 582.746 687.027 659.68L687.703 658.943L688.379 658.206C604.237 581.049 505.534 528.468 401.559 500.515L401.299 501.481ZM687.703 658.943L687.025 659.678C694.118 666.208 701.155 672.899 708.028 679.749L708.734 679.041L709.44 678.333C702.545 671.46 695.489 664.751 688.38 658.207L687.703 658.943ZM708.734 679.041L708.028 679.749C714.905 686.604 721.615 693.508 728.105 700.625L728.844 699.951L729.583 699.277C723.065 692.13 716.331 685.202 709.44 678.333L708.734 679.041ZM728.844 699.951L728.11 700.63C744.432 718.291 759.653 736.606 773.774 755.484L774.575 754.885L775.376 754.286C761.213 735.353 745.948 716.985 729.579 699.273L728.844 699.951ZM774.575 754.885L775.424 754.357C751.464 715.862 722.732 679.494 689.249 646.119L688.543 646.827L687.837 647.536C721.21 680.801 749.847 717.048 773.726 755.413L774.575 754.885ZM688.543 646.827L689.249 646.119C626.061 583.136 552.34 537.094 473.763 507.992L473.416 508.93L473.068 509.868C551.381 538.872 624.857 584.76 687.837 647.536L688.543 646.827ZM473.416 508.93L473.764 507.992C455.666 501.276 437.332 495.503 418.801 490.635L418.547 491.602L418.292 492.569C436.761 497.421 455.033 503.175 473.068 509.867L473.416 508.93ZM418.547 491.602L418.894 490.664C348.046 464.4 281.132 424.347 222.435 370.463L221.758 371.199L221.082 371.936C279.975 425.999 347.114 466.187 418.199 492.539L418.547 491.602ZM221.758 371.199L222.431 370.459C216.226 364.823 210.137 358.988 204.125 352.996L203.42 353.704L202.714 354.413C208.744 360.423 214.855 366.279 221.086 371.94L221.758 371.199ZM203.42 353.704L204.125 352.996C-2.48772 147.052 -26.8439 -171.717 130.965 -404.439L130.137 -405L129.31 -405.561C-29.0281 -172.06 -4.59264 147.777 202.714 354.413L203.42 353.704ZM130.137 -405L129.192 -405.325C56.9767 -195.353 104.895 46.4639 272.9 213.925L273.606 213.217L274.312 212.509C106.869 45.6074 59.1078 -195.4 131.083 -404.675L130.137 -405ZM273.606 213.217L272.9 213.925C350.042 290.817 442.925 342.435 541.255 368.897L541.515 367.932L541.775 366.966C443.772 340.592 351.199 289.147 274.312 212.509L273.606 213.217ZM541.515 367.932L541.291 368.906C542.289 369.136 543.251 369.404 544.239 369.679L544.507 368.716L544.776 367.753C543.795 367.479 542.789 367.198 541.739 366.957L541.515 367.932ZM544.507 368.716L544.248 369.682C587.256 381.25 629.219 397.659 669.27 418.909L669.739 418.026L670.208 417.142C630.022 395.821 587.918 379.357 544.767 367.75L544.507 368.716ZM669.739 418.026L670.447 417.319C670.229 417.102 669.982 416.85 669.755 416.624L669.049 417.332L668.343 418.04C668.578 418.274 668.788 418.488 669.031 418.732L669.739 418.026ZM669.049 417.332L669.755 416.624C628.202 375.205 579.767 344.918 528.093 325.798L527.746 326.736L527.399 327.673C578.808 346.696 626.997 376.828 668.343 418.04L669.049 417.332ZM527.746 326.736L528.094 325.798C516.177 321.366 504.105 317.586 491.941 314.395L491.687 315.363L491.433 316.33C503.536 319.505 515.545 323.265 527.397 327.673L527.746 326.736ZM491.687 315.363L492.034 314.425C445.514 297.19 401.628 270.913 363.098 235.533L362.422 236.27L361.745 237.006C400.47 272.566 444.582 298.977 491.34 316.3L491.687 315.363ZM362.422 236.27L363.099 235.534C359.042 231.8 355.018 227.974 351.089 224.058L350.383 224.766L349.677 225.474C353.629 229.412 357.672 233.256 361.744 237.005L362.422 236.27ZM350.383 224.766L351.089 224.058C215.533 88.9393 199.511 -120.243 303.05 -272.966L302.222 -273.527L301.395 -274.088C197.326 -120.585 213.428 89.6653 349.677 225.474L350.383 224.766ZM302.222 -273.527L301.277 -273.852C253.808 -135.813 285.314 23.1324 395.758 133.218L396.463 132.51L397.169 131.802C287.288 22.276 255.939 -135.86 303.168 -273.202L302.222 -273.527ZM396.463 132.51L395.758 133.218C442.351 179.661 497.702 212.088 556.542 230.55L556.841 229.596L557.141 228.642C498.599 210.274 443.53 178.012 397.169 131.802L396.463 132.51ZM556.841 229.596L557.431 228.788C547.695 221.679 538.266 213.963 529.194 205.64L528.518 206.377L527.842 207.114C536.969 215.487 546.456 223.25 556.252 230.404L556.841 229.596ZM528.518 206.377L529.19 205.636C525.791 202.556 522.514 199.413 519.234 196.144L518.528 196.852L517.822 197.56C521.12 200.847 524.42 204.013 527.847 207.118L528.518 206.377ZM518.528 196.852L519.234 196.144C407.021 84.2933 393.795 -88.8601 479.498 -215.229L478.671 -215.79L477.843 -216.351C391.61 -89.2027 404.916 85.019 517.822 197.56L518.528 196.852ZM478.671 -215.79L477.725 -216.115C438.44 -101.766 464.52 29.9446 556.015 121.144L556.721 120.436L557.427 119.728C466.494 29.0884 440.571 -101.812 479.616 -215.465L478.671 -215.79ZM556.721 120.436L556.015 121.144C598.027 163.019 648.604 191.149 702.173 205.562L702.433 204.597L702.693 203.631C649.451 189.306 599.184 161.349 557.427 119.728L556.721 120.436ZM702.433 204.597L702.217 205.573C702.738 205.688 703.233 205.833 703.765 205.989L704.047 205.03L704.328 204.07C703.805 203.917 703.246 203.752 702.649 203.62L702.433 204.597ZM704.047 205.03L703.787 205.995C752.852 219.181 799.408 243.992 839.093 280.402L839.769 279.665L840.445 278.928C800.517 242.295 753.673 217.33 704.306 204.064L704.047 205.03ZM839.769 279.665L839.098 280.406C842.497 283.486 845.805 286.66 849.053 289.898L849.759 289.19L850.465 288.481C847.199 285.225 843.867 282.029 840.441 278.924L839.769 279.665ZM849.759 289.19L849.053 289.898C852.302 293.136 855.486 296.434 858.545 299.791L859.284 299.117L860.023 298.444C856.939 295.059 853.732 291.737 850.465 288.481L849.759 289.19ZM859.284 299.117L858.55 299.796C895.108 339.321 920 385.787 933.228 434.692L934.193 434.431L935.158 434.17C921.848 384.961 896.802 338.207 860.018 298.438L859.284 299.117ZM934.193 434.431L933.217 434.648C933.349 435.243 933.515 435.802 933.668 436.322L934.628 436.039L935.587 435.756C935.43 435.225 935.284 434.732 935.169 434.213L934.193 434.431ZM934.628 436.039L933.662 436.301C948.123 489.698 976.344 540.112 1018.36 581.988L1019.06 581.279L1019.77 580.571C978.01 538.95 949.964 488.846 935.593 435.778L934.628 436.039ZM1019.06 581.279L1018.36 581.988C1109.85 673.187 1241.92 699.18 1356.61 660.054L1356.29 659.108L1355.96 658.161C1241.97 697.051 1110.7 671.211 1019.77 580.571L1019.06 581.279ZM1356.29 659.108L1355.73 658.278C1228.88 743.645 1055.22 730.399 943.072 618.609L942.366 619.318L941.66 620.026C1054.5 732.504 1229.22 745.827 1356.84 659.937L1356.29 659.108ZM942.366 619.318L943.072 618.609C939.823 615.371 936.639 612.074 933.581 608.717L932.841 609.391L932.102 610.064C935.187 613.449 938.394 616.77 941.66 620.026L942.366 619.318ZM932.841 609.391L933.576 608.712C904.161 576.863 882.267 540.543 867.985 502.062L867.047 502.41L866.11 502.758C880.482 541.48 902.513 578.026 932.107 610.069L932.841 609.391ZM867.047 502.41L868.014 502.152C865.37 492.255 862.26 482.45 858.62 472.737L857.683 473.088L856.747 473.439C860.363 483.088 863.454 492.831 866.081 502.668L867.047 502.41ZM857.683 473.088L858.621 472.74C842.725 429.954 817.52 389.871 783.102 355.564L782.396 356.273L781.69 356.981C815.9 391.08 840.949 430.916 856.746 473.436L857.683 473.088ZM782.396 356.273L783.102 355.564C761.835 334.366 738.378 316.699 713.46 302.554L712.966 303.424L712.473 304.294C737.237 318.352 760.551 335.91 781.69 356.981L782.396 356.273ZM712.966 303.424L712.354 304.215C721.006 310.91 729.443 318.014 737.636 325.527L738.312 324.79L738.988 324.053C730.753 316.502 722.274 309.363 713.578 302.633L712.966 303.424ZM738.312 324.79L737.635 325.526C741.691 329.26 745.715 333.086 749.644 337.002L750.35 336.294L751.056 335.586C747.105 331.647 743.062 327.803 738.989 324.055L738.312 324.79ZM750.35 336.294L749.644 337.002C753.577 340.923 757.412 344.87 761.121 348.937L761.86 348.263L762.599 347.589C758.862 343.492 755.004 339.52 751.056 335.586L750.35 336.294ZM761.86 348.263L761.126 348.942C805.285 396.724 835.358 452.87 851.345 511.952L852.31 511.691L853.275 511.429C837.206 452.045 806.979 395.61 762.594 347.584L761.86 348.263ZM852.31 511.691L851.337 511.923C851.421 512.273 851.52 512.619 851.612 512.94C851.706 513.268 851.792 513.571 851.864 513.871L852.837 513.639L853.809 513.407C853.726 513.057 853.627 512.711 853.535 512.39C853.441 512.061 853.354 511.758 853.283 511.458L852.31 511.691ZM852.837 513.639L851.871 513.9C869.339 578.34 903.361 639.178 954.091 689.744L954.796 689.035L955.503 688.327C905.028 638.016 871.18 577.488 853.802 513.377L852.837 513.639ZM954.796 689.035L954.091 689.744C1064.54 799.838 1223.99 831.206 1362.45 783.969L1362.12 783.023L1361.8 782.076C1224.03 829.077 1065.39 797.862 955.503 688.327L954.796 689.035ZM1362.12 783.023L1361.56 782.193C1246.03 859.961 1098.35 870.019 974.582 812.373L974.16 813.279L973.738 814.186C1098.13 872.123 1246.56 862.017 1362.68 783.852L1362.12 783.023ZM974.16 813.279L973.204 813.574C1001.14 904.213 1051.02 989.528 1122.93 1061.21L1123.64 1060.5L1124.35 1059.79C1052.67 988.348 1002.96 903.319 975.115 812.985L974.16 813.279ZM1123.64 1060.5L1122.93 1061.21C1290.9 1228.63 1533.42 1276.39 1744.03 1204.53L1743.71 1203.58L1743.38 1202.64C1533.46 1274.26 1291.75 1226.65 1124.35 1059.79L1123.64 1060.5ZM1743.71 1203.58L1743.15 1202.75C1509.63 1359.94 1189.9 1335.58 983.363 1129.71L982.657 1130.42L981.951 1131.13C1189.18 1337.68 1509.97 1362.12 1744.27 1204.41L1743.71 1203.58ZM982.657 1130.42L983.363 1129.71C977.39 1123.76 971.538 1117.69 965.883 1111.5L965.145 1112.18L964.407 1112.85C970.086 1119.06 975.96 1125.16 981.951 1131.13L982.657 1130.42ZM965.145 1112.18L965.88 1111.5C940.941 1084.51 918.953 1055.78 899.916 1025.72L899.071 1026.26L898.226 1026.79C917.328 1056.96 939.39 1085.78 964.411 1112.86L965.145 1112.18ZM899.071 1026.26L898.122 1026.57C930.938 1125.1 986.574 1217.64 1065.22 1296.03L1065.93 1295.33L1066.64 1294.62C988.212 1216.45 932.739 1124.18 900.02 1025.94L899.071 1026.26ZM1065.93 1295.33L1065.22 1296.03C1257.99 1488.17 1536.25 1542.92 1777.9 1460.48L1777.58 1459.53L1777.26 1458.59C1536.3 1540.79 1258.84 1486.2 1066.64 1294.62L1065.93 1295.33ZM1777.58 1459.53L1777.02 1458.7C1508.97 1639.13 1142 1611.17 904.927 1374.86L904.221 1375.57L903.515 1376.28C1141.28 1613.28 1509.31 1641.32 1778.14 1460.36L1777.58 1459.53ZM904.221 1375.57L904.927 1374.86C898.051 1368.01 891.341 1361.11 884.851 1353.99L884.112 1354.66L883.373 1355.34C889.891 1362.48 896.624 1369.41 903.515 1376.28L904.221 1375.57ZM884.112 1354.66L884.846 1353.98C822.656 1286.7 776.441 1209.98 746.254 1128.61L745.316 1128.96L744.379 1129.3C774.655 1210.91 821.007 1287.87 883.378 1355.34L884.112 1354.66ZM745.316 1128.96L746.283 1128.7C740.749 1107.81 734.13 1087.13 726.479 1066.73L725.543 1067.08L724.606 1067.43C732.234 1087.77 738.833 1108.38 744.349 1129.21L745.316 1128.96ZM725.543 1067.08L726.48 1066.73C692.947 976.677 639.92 892.204 567.397 819.916L566.691 820.624L565.985 821.332C638.299 893.413 691.171 977.639 724.605 1067.43L725.543 1067.08ZM566.691 820.624L567.397 819.916C494.875 747.629 410.346 694.773 320.163 661.403L319.816 662.341L319.469 663.279C409.387 696.551 493.67 749.252 565.985 821.332L566.691 820.624ZM319.816 662.341L320.165 661.404C299.368 653.669 278.3 647.071 257.071 641.503L256.817 642.47L256.563 643.437C277.731 648.99 298.736 655.568 319.467 663.278L319.816 662.341ZM256.817 642.47L257.164 641.532C175.798 611.388 99.0391 565.43 31.6496 503.549L30.9733 504.285L30.2969 505.022C97.8818 567.082 174.866 613.175 256.47 643.408L256.817 642.47ZM30.9733 504.285L31.6506 503.55C24.5574 497.019 17.52 490.329 10.647 483.479L9.94102 484.187L9.23507 484.895C16.1302 491.768 23.1871 498.476 30.2959 505.021L30.9733 504.285ZM302.234 -273.56L302.93 -272.842L302.961 -272.872L302.265 -273.591L301.569 -274.309L301.538 -274.279L302.234 -273.56ZM302.265 -273.591L301.438 -274.152C301.428 -274.138 301.402 -274.1 301.395 -274.088L302.222 -273.527L303.05 -272.966C303.071 -272.997 303.074 -273.001 303.093 -273.029L302.265 -273.591ZM302.222 -273.527L303.168 -273.202C303.167 -273.201 303.167 -273.201 303.17 -273.207C303.171 -273.212 303.175 -273.223 303.18 -273.235L302.234 -273.56L301.288 -273.886C301.289 -273.887 301.289 -273.887 301.286 -273.88C301.285 -273.876 301.281 -273.865 301.277 -273.852L302.222 -273.527ZM-74.183 -386.454L-73.4759 -385.747L-73.4222 -385.801L-74.1293 -386.508L-74.8364 -387.215L-74.8901 -387.161L-74.183 -386.454ZM-74.1293 -386.508L-74.9569 -387.069C-74.9778 -387.038 -75.0072 -386.995 -75.0293 -386.962L-74.2016 -386.401L-73.3739 -385.84C-73.3478 -385.878 -73.329 -385.906 -73.3017 -385.946L-74.1293 -386.508ZM-74.2016 -386.401L-73.2559 -386.076C-73.2549 -386.079 -73.2536 -386.083 -73.2502 -386.092C-73.2473 -386.1 -73.2424 -386.114 -73.2374 -386.129L-74.183 -386.454L-75.1287 -386.779C-75.1297 -386.776 -75.131 -386.772 -75.1345 -386.763C-75.1373 -386.755 -75.1422 -386.741 -75.1472 -386.726L-74.2016 -386.401Z" fill="#00A1DC" mask="url(#path-1-inside-1_313_852)"/>
</svg>
