<svg preserveAspectRatio="none" width="100%" height="100%" overflow="visible" style="display: block;" viewBox="0 0 1981.87 1969.58" fill="none" xmlns="http://www.w3.org/2000/svg">
<g id="Union">
<mask id="path-1-inside-1_0_87" fill="white">
<path d="M1092.69 201.941C1329.36 -35.5001 1695.76 -63.5634 1963.27 117.797C1722.71 35.071 1445.71 89.9805 1253.87 282.449C1165.8 370.804 1106.65 477.222 1076.31 589.884C1076.04 591.022 1075.66 592.161 1075.39 593.3C1047.48 697.124 994.974 795.682 917.93 879.702C911.392 886.803 904.692 893.85 897.83 900.734C890.968 907.618 884.053 914.339 876.921 920.844C859.238 937.186 840.901 952.426 822 966.565C860.425 942.647 896.729 913.967 930.045 880.543C992.924 817.459 1038.89 743.861 1067.94 665.416C1074.65 647.35 1080.41 629.046 1085.27 610.547C1111.58 539.58 1151.7 472.553 1205.67 413.758C1211.32 407.54 1217.17 401.44 1223.17 395.419C1429.46 188.459 1748.76 164.063 1981.87 322.137C1772.25 250.042 1530.84 297.881 1363.66 465.605C1286.89 542.62 1235.36 635.348 1208.94 733.515C1208.7 734.539 1208.43 735.523 1208.16 736.507C1196.57 779.586 1180.13 821.62 1158.85 861.739C1159.08 861.509 1159.31 861.281 1159.54 861.05C1200.86 819.6 1231.06 771.288 1250.14 719.746C1254.56 707.861 1258.33 695.821 1261.51 683.687C1278.79 637.048 1305.13 593.049 1340.6 554.422C1344.34 550.357 1348.18 546.324 1352.11 542.384C1487.57 406.48 1697.29 390.418 1850.4 494.222C1712.71 446.873 1554.17 478.301 1444.36 588.464C1398.03 634.941 1365.69 690.152 1347.28 748.844C1354.41 739.077 1362.15 729.618 1370.49 720.518C1373.59 717.105 1376.74 713.816 1380.02 710.527C1492.22 597.967 1665.9 584.702 1792.66 670.671C1678.66 631.505 1547.36 657.506 1456.44 748.721C1414.69 790.605 1386.64 841.027 1372.28 894.432C1372.15 894.991 1372 895.519 1371.84 896.047C1358.62 945.263 1333.73 991.962 1297.21 1031.77C1294.11 1035.18 1290.93 1038.5 1287.68 1041.76C1284.43 1045.02 1281.13 1048.21 1277.75 1051.28C1238.11 1087.95 1191.5 1112.92 1142.44 1126.19C1141.88 1126.32 1141.36 1126.47 1140.83 1126.63C1087.6 1141.04 1037.34 1169.18 995.593 1211.06C904.673 1302.28 878.757 1433.95 917.764 1548.29C832.136 1421.05 845.42 1246.86 957.554 1134.37C960.801 1131.11 964.11 1127.91 967.481 1124.84C999.427 1095.34 1035.86 1073.37 1074.46 1059.05C1084.33 1056.41 1094.1 1053.31 1103.78 1049.68C1146.44 1033.84 1186.4 1008.71 1220.6 974.396C1241.74 953.192 1259.35 929.805 1273.45 904.963C1266.74 913.637 1259.61 922.097 1252.08 930.312C1248.34 934.377 1244.5 938.409 1240.58 942.349C1236.65 946.29 1232.69 950.137 1228.61 953.86C1180.71 998.132 1124.41 1028.28 1065.18 1044.31C1064.53 1044.46 1063.88 1044.68 1063.23 1044.84C998.957 1062.26 938.275 1096.19 887.837 1146.8C778.022 1256.97 746.73 1416.01 793.849 1554.12C715.883 1438.29 705.801 1290.24 763.592 1166.16C673.105 1194.05 587.933 1243.85 516.372 1315.64C349.23 1483.32 301.546 1725.44 373.29 1935.71C215.846 1701.8 240.241 1381.54 446.452 1174.66C452.414 1168.68 458.494 1162.81 464.692 1157.14C491.723 1132.16 520.502 1110.14 550.616 1091.07C452.234 1123.84 359.829 1179.39 281.547 1257.93C89.6867 1450.41 35.0166 1728.28 117.34 1969.58C-63.3527 1701.14 -35.3514 1333.64 201.3 1096.22C208.161 1089.34 215.078 1082.62 222.21 1076.11C289.587 1013.83 366.425 967.549 447.917 937.316C468.777 931.792 489.42 925.182 509.793 917.543C599.714 884.06 684.063 831.109 756.247 758.691C828.431 686.273 881.21 601.866 914.531 511.815C922.254 491.051 928.841 470.016 934.402 448.817C964.591 367.332 1010.62 290.461 1072.59 222.973C1079.12 215.872 1085.82 208.825 1092.69 201.941ZM1850.43 494.233L1850.46 494.264C1850.44 494.25 1850.42 494.237 1850.4 494.222C1850.41 494.226 1850.42 494.23 1850.43 494.233ZM1963.33 117.816L1963.38 117.871C1963.34 117.846 1963.31 117.821 1963.27 117.797C1963.29 117.803 1963.31 117.81 1963.33 117.816Z"/>
</mask>
<path d="M1092.69 201.941L1091.98 201.235V201.235L1092.69 201.941ZM1253.87 282.449L1253.16 281.743V281.743L1253.87 282.449ZM1076.31 589.884L1075.34 589.624L1075.34 589.638L1075.34 589.653L1076.31 589.884ZM1075.39 593.3L1076.36 593.559L1076.36 593.545L1076.36 593.53L1075.39 593.3ZM917.93 879.702L918.665 880.379L918.667 880.378L917.93 879.702ZM897.83 900.734L898.538 901.44V901.44L897.83 900.734ZM876.921 920.844L876.247 920.105L876.242 920.109L876.921 920.844ZM822 966.565L821.401 965.765L822.528 967.414L822 966.565ZM930.045 880.543L930.753 881.249V881.249L930.045 880.543ZM1067.94 665.416L1067 665.068L1067 665.069L1067.94 665.416ZM1085.27 610.547L1084.33 610.199L1084.32 610.245L1084.3 610.293L1085.27 610.547ZM1205.67 413.758L1206.41 414.434L1206.41 414.43L1205.67 413.758ZM1223.17 395.419L1222.46 394.713V394.713L1223.17 395.419ZM1981.87 322.137L1981.55 323.082L1982.43 321.309L1981.87 322.137ZM1363.66 465.605L1362.95 464.899V464.899L1363.66 465.605ZM1208.94 733.515L1207.97 733.256L1207.97 733.273L1207.96 733.291L1208.94 733.515ZM1208.16 736.507L1207.19 736.238L1207.19 736.247L1208.16 736.507ZM1158.85 861.739L1157.96 861.27L1159.55 862.447L1158.85 861.739ZM1159.54 861.05L1160.25 861.756V861.756L1159.54 861.05ZM1250.14 719.746L1249.2 719.397L1249.2 719.399L1250.14 719.746ZM1261.51 683.687L1260.57 683.34L1260.55 683.386L1260.54 683.434L1261.51 683.687ZM1340.6 554.422L1339.87 553.744L1339.86 553.745L1340.6 554.422ZM1352.11 542.384L1351.4 541.678V541.678L1352.11 542.384ZM1444.36 588.464L1443.65 587.758V587.758L1444.36 588.464ZM1347.28 748.844L1346.32 748.544L1348.08 749.433L1347.28 748.844ZM1370.49 720.518L1371.23 721.194L1371.24 721.19L1370.49 720.518ZM1380.02 710.527L1379.31 709.821V709.821L1380.02 710.527ZM1792.66 670.671L1792.34 671.616L1793.22 669.843L1792.66 670.671ZM1456.44 748.721L1455.73 748.015V748.015L1456.44 748.721ZM1372.28 894.432L1371.31 894.173L1371.3 894.194L1371.3 894.216L1372.28 894.432ZM1371.84 896.047L1370.88 895.766L1370.88 895.776L1370.88 895.787L1371.84 896.047ZM1297.21 1031.77L1296.47 1031.09L1296.47 1031.1L1297.21 1031.77ZM1287.68 1041.76L1288.39 1042.46V1042.46L1287.68 1041.76ZM1277.75 1051.28L1277.08 1050.54L1277.08 1050.55L1277.75 1051.28ZM1142.44 1126.19L1142.66 1127.17L1142.68 1127.16L1142.7 1127.16L1142.44 1126.19ZM1140.83 1126.63L1141.09 1127.59L1141.1 1127.59L1141.12 1127.59L1140.83 1126.63ZM995.593 1211.06L994.884 1210.36V1210.36L995.593 1211.06ZM917.764 1548.29L916.935 1548.84L918.711 1547.96L917.764 1548.29ZM957.554 1134.37L956.845 1133.66V1133.66L957.554 1134.37ZM967.481 1124.84L968.155 1125.58L968.16 1125.58L967.481 1124.84ZM1074.46 1059.05L1074.2 1058.08L1074.16 1058.09L1074.11 1058.11L1074.46 1059.05ZM1103.78 1049.68L1103.44 1048.75L1103.43 1048.75L1103.78 1049.68ZM1220.6 974.396L1221.31 975.102V975.102L1220.6 974.396ZM1273.45 904.963L1274.32 905.456L1272.66 904.351L1273.45 904.963ZM1252.08 930.312L1252.82 930.99L1252.82 930.988L1252.08 930.312ZM1240.58 942.349L1241.29 943.055V943.055L1240.58 942.349ZM1228.61 953.86L1227.94 953.121L1227.93 953.126L1228.61 953.86ZM1065.18 1044.31L1065.41 1045.28L1065.43 1045.28L1065.44 1045.27L1065.18 1044.31ZM1063.23 1044.84L1063 1043.86L1062.99 1043.87L1062.97 1043.87L1063.23 1044.84ZM887.837 1146.8L887.128 1146.09L887.837 1146.8ZM793.849 1554.12L793.02 1554.68L794.796 1553.8L793.849 1554.12ZM763.592 1166.16L764.498 1166.58L765.449 1164.54L763.297 1165.21L763.592 1166.16ZM516.372 1315.64L515.664 1314.93V1314.93L516.372 1315.64ZM373.29 1935.71L372.46 1936.27L374.236 1935.38L373.29 1935.71ZM446.452 1174.66L445.744 1173.95V1173.95L446.452 1174.66ZM464.692 1157.14L465.367 1157.88L465.371 1157.88L464.692 1157.14ZM550.616 1091.07L551.151 1091.91L550.3 1090.12L550.616 1091.07ZM281.547 1257.93L280.838 1257.22V1257.22L281.547 1257.93ZM117.34 1969.58L116.51 1970.14L118.286 1969.26L117.34 1969.58ZM201.3 1096.22L200.591 1095.52V1095.52L201.3 1096.22ZM222.21 1076.11L222.884 1076.85L222.889 1076.85L222.21 1076.11ZM447.917 937.316L447.661 936.35L447.614 936.362L447.569 936.379L447.917 937.316ZM509.793 917.543L509.444 916.606L509.442 916.606L509.793 917.543ZM756.247 758.691L756.955 759.397V759.397L756.247 758.691ZM914.531 511.815L913.594 511.467L913.593 511.468L914.531 511.815ZM934.402 448.817L933.464 448.47L933.447 448.516L933.435 448.563L934.402 448.817ZM1072.59 222.973L1071.85 222.296L1071.85 222.297L1072.59 222.973ZM1850.43 494.233L1851.14 493.526L1850.98 493.363L1850.76 493.288L1850.43 494.233ZM1850.46 494.264L1849.9 495.092L1851.17 493.557L1850.46 494.264ZM1963.33 117.816L1964.04 117.116L1963.87 116.947L1963.65 116.871L1963.33 117.816ZM1963.38 117.871L1962.82 118.699L1964.09 117.17L1963.38 117.871ZM1092.69 201.941L1093.39 202.647C1329.72 -34.4478 1695.59 -62.4712 1962.71 118.624L1963.27 117.797L1963.83 116.969C1695.93 -64.6555 1329 -36.5525 1091.98 201.235L1092.69 201.941ZM1963.27 117.797L1963.6 116.851C1722.68 34.0055 1445.29 88.9936 1253.16 281.743L1253.87 282.449L1254.58 283.155C1446.14 90.9674 1722.73 36.1366 1962.95 118.742L1963.27 117.797ZM1253.87 282.449L1253.16 281.743C1164.97 370.225 1105.73 476.799 1075.34 589.624L1076.31 589.884L1077.27 590.144C1107.57 477.645 1166.64 371.382 1254.58 283.155L1253.87 282.449ZM1076.31 589.884L1075.34 589.653C1075.21 590.197 1075.05 590.745 1074.89 591.318C1074.73 591.884 1074.56 592.474 1074.42 593.069L1075.39 593.3L1076.36 593.53C1076.49 592.986 1076.65 592.438 1076.81 591.865C1076.97 591.3 1077.14 590.709 1077.28 590.114L1076.31 589.884ZM1075.39 593.3L1074.42 593.04C1046.55 696.713 994.126 795.127 917.192 879.026L917.93 879.702L918.667 880.378C995.823 796.236 1048.4 697.534 1076.36 593.559L1075.39 593.3ZM917.93 879.702L917.194 879.025C910.664 886.118 903.972 893.155 897.122 900.028L897.83 900.734L898.538 901.44C905.411 894.545 912.121 887.488 918.665 880.379L917.93 879.702ZM897.83 900.734L897.122 900.028C890.267 906.905 883.363 913.614 876.247 920.105L876.921 920.844L877.595 921.582C884.742 915.064 891.669 908.331 898.538 901.44L897.83 900.734ZM876.921 920.844L876.242 920.109C858.585 936.428 840.274 951.646 821.401 965.765L822 966.565L822.599 967.366C841.527 953.206 859.891 937.944 877.599 921.578L876.921 920.844ZM822 966.565L822.528 967.414C861.018 943.456 897.382 914.728 930.753 881.249L930.045 880.543L929.337 879.837C896.075 913.206 859.832 941.839 821.471 965.716L822 966.565ZM930.045 880.543L930.753 881.249C993.736 818.062 1039.78 744.34 1068.88 665.763L1067.94 665.416L1067 665.069C1038 743.382 992.112 816.857 929.337 879.837L930.045 880.543ZM1067.94 665.416L1068.88 665.764C1075.6 647.666 1081.37 629.332 1086.24 610.801L1085.27 610.547L1084.3 610.293C1079.45 628.761 1073.7 647.033 1067 665.068L1067.94 665.416ZM1085.27 610.547L1086.21 610.894C1112.47 540.046 1152.53 473.132 1206.41 414.434L1205.67 413.758L1204.94 413.081C1150.87 471.974 1110.69 539.114 1084.33 610.199L1085.27 610.547ZM1205.67 413.758L1206.41 414.43C1212.05 408.225 1217.88 402.137 1223.88 396.125L1223.17 395.419L1222.46 394.713C1216.45 400.743 1210.59 406.854 1204.93 413.085L1205.67 413.758ZM1223.17 395.419L1223.88 396.125C1429.82 189.512 1748.59 165.156 1981.31 322.964L1981.87 322.137L1982.43 321.309C1748.93 162.971 1429.09 187.407 1222.46 394.713L1223.17 395.419ZM1981.87 322.137L1982.2 321.191C1772.22 248.976 1530.41 296.894 1362.95 464.899L1363.66 465.605L1364.36 466.311C1531.26 298.868 1772.27 251.107 1981.55 323.082L1981.87 322.137ZM1363.66 465.605L1362.95 464.899C1286.05 542.041 1234.44 634.925 1207.97 733.256L1208.94 733.515L1209.9 733.775C1236.28 635.771 1287.72 543.199 1364.36 466.311L1363.66 465.605ZM1208.94 733.515L1207.96 733.291C1207.74 734.289 1207.47 735.251 1207.19 736.238L1208.16 736.507L1209.12 736.775C1209.39 735.795 1209.67 734.789 1209.91 733.739L1208.94 733.515ZM1208.16 736.507L1207.19 736.247C1195.62 779.255 1179.21 821.219 1157.96 861.27L1158.85 861.739L1159.73 862.208C1181.05 822.022 1197.51 779.917 1209.12 736.766L1208.16 736.507ZM1158.85 861.739L1159.55 862.447C1159.77 862.23 1160.02 861.983 1160.25 861.756L1159.54 861.05L1158.83 860.344C1158.6 860.578 1158.38 860.788 1158.14 861.031L1158.85 861.739ZM1159.54 861.05L1160.25 861.756C1201.67 820.202 1231.95 771.767 1251.07 720.093L1250.14 719.746L1249.2 719.399C1230.18 770.809 1200.04 818.997 1158.83 860.344L1159.54 861.05ZM1250.14 719.746L1251.07 720.094C1255.51 708.177 1259.29 696.105 1262.48 683.941L1261.51 683.687L1260.54 683.434C1257.37 695.537 1253.61 707.545 1249.2 719.397L1250.14 719.746ZM1261.51 683.687L1262.45 684.035C1279.68 637.514 1305.96 593.628 1341.34 555.098L1340.6 554.422L1339.86 553.745C1304.31 592.47 1277.89 636.582 1260.57 683.34L1261.51 683.687ZM1340.6 554.422L1341.34 555.099C1345.07 551.042 1348.9 547.019 1352.81 543.09L1352.11 542.384L1351.4 541.678C1347.46 545.629 1343.61 549.672 1339.87 553.744L1340.6 554.422ZM1352.11 542.384L1352.81 543.09C1487.93 407.532 1697.12 391.51 1849.84 495.05L1850.4 494.222L1850.96 493.395C1697.46 389.326 1487.21 405.427 1351.4 541.678L1352.11 542.384ZM1850.4 494.222L1850.73 493.277C1712.69 445.807 1553.74 477.314 1443.65 587.758L1444.36 588.464L1445.07 589.17C1554.6 479.288 1712.73 447.939 1850.08 495.168L1850.4 494.222ZM1444.36 588.464L1443.65 587.758C1397.21 634.352 1364.78 689.704 1346.32 748.544L1347.28 748.844L1348.23 749.143C1366.6 690.601 1398.86 635.53 1445.07 589.17L1444.36 588.464ZM1347.28 748.844L1348.08 749.433C1355.19 739.697 1362.91 730.266 1371.23 721.194L1370.49 720.518L1369.76 719.842C1361.38 728.969 1353.62 738.457 1346.47 748.254L1347.28 748.844ZM1370.49 720.518L1371.24 721.19C1374.32 717.791 1377.46 714.513 1380.73 711.233L1380.02 710.527L1379.31 709.821C1376.02 713.119 1372.86 716.42 1369.75 719.847L1370.49 720.518ZM1380.02 710.527L1380.73 711.233C1492.58 599.02 1665.73 585.795 1792.1 671.498L1792.66 670.671L1793.22 669.843C1666.07 583.61 1491.85 596.915 1379.31 709.821L1380.02 710.527ZM1792.66 670.671L1792.99 669.725C1678.64 630.44 1546.93 656.519 1455.73 748.015L1456.44 748.721L1457.14 749.426C1547.78 658.493 1678.68 632.571 1792.34 671.616L1792.66 670.671ZM1456.44 748.721L1455.73 748.015C1413.85 790.026 1385.72 840.604 1371.31 894.173L1372.28 894.432L1373.24 894.692C1387.57 841.451 1415.52 791.183 1457.14 749.426L1456.44 748.721ZM1372.28 894.432L1371.3 894.216C1371.18 894.737 1371.04 895.234 1370.88 895.766L1371.84 896.047L1372.8 896.328C1372.96 895.804 1373.12 895.245 1373.25 894.648L1372.28 894.432ZM1371.84 896.047L1370.88 895.787C1357.69 944.852 1332.88 991.407 1296.47 1031.09L1297.21 1031.77L1297.94 1032.44C1334.58 992.517 1359.54 945.674 1372.81 896.306L1371.84 896.047ZM1297.21 1031.77L1296.47 1031.1C1293.39 1034.5 1290.21 1037.8 1286.97 1041.05L1287.68 1041.76L1288.39 1042.46C1291.65 1039.2 1294.84 1035.87 1297.95 1032.44L1297.21 1031.77ZM1287.68 1041.76L1286.97 1041.05C1283.73 1044.3 1280.44 1047.49 1277.08 1050.54L1277.75 1051.28L1278.43 1052.02C1281.81 1048.94 1285.13 1045.73 1288.39 1042.46L1287.68 1041.76ZM1277.75 1051.28L1277.08 1050.55C1237.55 1087.11 1191.09 1112 1142.18 1125.23L1142.44 1126.19L1142.7 1127.16C1191.91 1113.85 1238.67 1088.8 1278.43 1052.02L1277.75 1051.28ZM1142.44 1126.19L1142.22 1125.22C1141.63 1125.35 1141.07 1125.51 1140.55 1125.67L1140.83 1126.63L1141.12 1127.59C1141.65 1127.43 1142.14 1127.28 1142.66 1127.17L1142.44 1126.19ZM1140.83 1126.63L1140.57 1125.66C1087.17 1140.12 1036.76 1168.34 994.884 1210.36L995.593 1211.06L996.301 1211.77C1037.92 1170.01 1088.03 1141.96 1141.09 1127.59L1140.83 1126.63ZM995.593 1211.06L994.884 1210.36C903.686 1301.85 877.692 1433.92 916.818 1548.61L917.764 1548.29L918.711 1547.96C879.821 1433.97 905.661 1302.7 996.301 1211.77L995.593 1211.06ZM917.764 1548.29L918.594 1547.73C833.227 1420.88 846.472 1247.22 958.262 1135.07L957.554 1134.37L956.845 1133.66C844.367 1246.5 831.045 1421.22 916.935 1548.84L917.764 1548.29ZM957.554 1134.37L958.262 1135.07C961.5 1131.82 964.798 1128.64 968.155 1125.58L967.481 1124.84L966.808 1124.1C963.423 1127.19 960.101 1130.39 956.845 1133.66L957.554 1134.37ZM967.481 1124.84L968.16 1125.58C1000.01 1096.16 1036.33 1074.27 1074.81 1059.99L1074.46 1059.05L1074.11 1058.11C1035.39 1072.48 998.846 1094.51 966.803 1124.11L967.481 1124.84ZM1074.46 1059.05L1074.72 1060.01C1084.62 1057.37 1094.42 1054.26 1104.13 1050.62L1103.78 1049.68L1103.43 1048.75C1093.78 1052.36 1084.04 1055.45 1074.2 1058.08L1074.46 1059.05ZM1103.78 1049.68L1104.13 1050.62C1146.92 1034.72 1187 1009.52 1221.31 975.102L1220.6 974.396L1219.89 973.69C1185.79 1007.9 1145.96 1032.95 1103.44 1048.75L1103.78 1049.68ZM1220.6 974.396L1221.31 975.102C1242.51 953.834 1260.17 930.375 1274.32 905.456L1273.45 904.963L1272.58 904.469C1258.52 929.235 1240.96 952.55 1219.89 973.69L1220.6 974.396ZM1273.45 904.963L1272.66 904.351C1265.96 913.003 1258.86 921.442 1251.34 929.636L1252.08 930.312L1252.82 930.988C1260.37 922.752 1267.51 914.271 1274.24 905.575L1273.45 904.963ZM1252.08 930.312L1251.35 929.635C1247.61 933.691 1243.79 937.714 1239.87 941.643L1240.58 942.349L1241.29 943.055C1245.22 939.104 1249.07 935.062 1252.82 930.99L1252.08 930.312ZM1240.58 942.349L1239.87 941.643C1235.95 945.577 1232 949.412 1227.94 953.121L1228.61 953.86L1229.28 954.599C1233.38 950.862 1237.35 947.003 1241.29 943.055L1240.58 942.349ZM1228.61 953.86L1227.93 953.126C1180.15 997.285 1124 1027.36 1064.92 1043.34L1065.18 1044.31L1065.44 1045.27C1124.83 1029.21 1181.26 998.979 1229.29 954.595L1228.61 953.86ZM1065.18 1044.31L1064.95 1043.34C1064.6 1043.42 1064.25 1043.52 1063.93 1043.61C1063.6 1043.71 1063.3 1043.79 1063 1043.86L1063.23 1044.84L1063.46 1045.81C1063.81 1045.73 1064.16 1045.63 1064.48 1045.53C1064.81 1045.44 1065.11 1045.35 1065.41 1045.28L1065.18 1044.31ZM1063.23 1044.84L1062.97 1043.87C998.531 1061.34 937.694 1095.36 887.128 1146.09L887.837 1146.8L888.545 1147.5C938.856 1097.03 999.383 1063.18 1063.49 1045.8L1063.23 1044.84ZM887.837 1146.8L887.128 1146.09C777.034 1256.54 745.666 1415.99 792.903 1554.45L793.849 1554.12L794.796 1553.8C747.795 1416.03 779.01 1257.39 888.545 1147.5L887.837 1146.8ZM793.849 1554.12L794.679 1553.56C716.911 1438.03 706.853 1290.35 764.498 1166.58L763.592 1166.16L762.685 1165.74C704.748 1290.14 714.855 1438.56 793.02 1554.68L793.849 1554.12ZM763.592 1166.16L763.297 1165.21C672.658 1193.14 587.343 1243.02 515.664 1314.93L516.372 1315.64L517.08 1316.35C588.523 1244.67 673.552 1194.96 763.886 1167.12L763.592 1166.16ZM516.372 1315.64L515.664 1314.93C348.242 1482.9 300.481 1725.42 372.343 1936.03L373.29 1935.71L374.236 1935.38C302.61 1725.46 350.217 1483.75 517.08 1316.35L516.372 1315.64ZM373.29 1935.71L374.119 1935.15C216.937 1701.63 241.293 1381.9 447.16 1175.36L446.452 1174.66L445.744 1173.95C239.189 1381.18 214.755 1701.97 372.46 1936.27L373.29 1935.71ZM446.452 1174.66L447.16 1175.36C453.113 1169.39 459.182 1163.54 465.367 1157.88L464.692 1157.14L464.017 1156.41C457.807 1162.09 451.715 1167.96 445.744 1173.95L446.452 1174.66ZM464.692 1157.14L465.371 1157.88C492.357 1132.94 521.087 1110.95 551.151 1091.91L550.616 1091.07L550.081 1090.23C519.916 1109.33 491.089 1131.39 464.014 1156.41L464.692 1157.14ZM550.616 1091.07L550.3 1090.12C451.773 1122.94 359.233 1178.57 280.838 1257.22L281.547 1257.93L282.255 1258.64C360.424 1180.21 452.694 1124.74 550.932 1092.02L550.616 1091.07ZM281.547 1257.93L280.838 1257.22C88.6989 1449.99 33.9522 1728.25 116.393 1969.9L117.34 1969.58L118.286 1969.26C36.0809 1728.3 90.6745 1450.84 282.255 1258.64L281.547 1257.93ZM117.34 1969.58L118.169 1969.02C-62.2619 1700.97 -34.299 1334 202.008 1096.93L201.3 1096.22L200.591 1095.52C-36.4038 1333.28 -64.4436 1701.31 116.51 1970.14L117.34 1969.58ZM201.3 1096.22L202.008 1096.93C208.862 1090.05 215.767 1083.34 222.884 1076.85L222.21 1076.11L221.536 1075.37C214.389 1081.89 207.46 1088.62 200.591 1095.52L201.3 1096.22ZM222.21 1076.11L222.889 1076.85C290.168 1014.66 366.894 968.441 448.265 938.254L447.917 937.316L447.569 936.379C365.957 966.656 289.005 1013.01 221.531 1075.38L222.21 1076.11ZM447.917 937.316L448.173 938.283C469.066 932.749 489.741 926.13 510.144 918.479L509.793 917.543L509.442 916.606C489.099 924.234 468.488 930.834 447.661 936.35L447.917 937.316ZM509.793 917.543L510.142 918.48C600.195 884.948 684.667 831.92 756.955 759.397L756.247 758.691L755.539 757.985C683.459 830.299 599.233 883.172 509.444 916.606L509.793 917.543ZM756.247 758.691L756.955 759.397C829.242 686.875 882.099 602.346 915.469 512.162L914.531 511.815L913.593 511.468C880.321 601.387 827.619 685.67 755.539 757.985L756.247 758.691ZM914.531 511.815L915.468 512.164C923.203 491.367 929.801 470.3 935.369 449.071L934.402 448.817L933.435 448.563C927.882 469.731 921.304 490.735 913.594 511.467L914.531 511.815ZM934.402 448.817L935.34 449.165C965.484 367.799 1011.44 291.039 1073.32 223.65L1072.59 222.973L1071.85 222.297C1009.79 289.882 963.697 366.866 933.464 448.47L934.402 448.817ZM1072.59 222.973L1073.32 223.651C1079.85 216.558 1086.54 209.52 1093.39 202.647L1092.69 201.941L1091.98 201.235C1085.1 208.13 1078.4 215.187 1071.85 222.296L1072.59 222.973ZM1850.43 494.233L1849.72 494.94L1849.76 494.972L1850.46 494.264L1851.17 493.557L1851.14 493.526L1850.43 494.233ZM1850.46 494.264L1851.02 493.437C1851.01 493.428 1851 493.419 1850.99 493.412C1850.98 493.405 1850.97 493.4 1850.96 493.395L1850.4 494.222L1849.84 495.05C1849.85 495.059 1849.87 495.068 1849.88 495.075C1849.89 495.082 1849.89 495.087 1849.9 495.092L1850.46 494.264ZM1850.4 494.222L1850.08 495.168C1850.09 495.172 1850.1 495.175 1850.11 495.179L1850.43 494.233L1850.76 493.288C1850.75 493.284 1850.73 493.28 1850.73 493.277L1850.4 494.222ZM1963.33 117.816L1962.61 118.517L1962.67 118.572L1963.38 117.871L1964.09 117.17L1964.04 117.116L1963.33 117.816ZM1963.38 117.871L1963.94 117.043C1963.91 117.02 1963.87 116.993 1963.83 116.969L1963.27 117.797L1962.71 118.624C1962.75 118.65 1962.78 118.673 1962.82 118.699L1963.38 117.871ZM1963.27 117.797L1962.95 118.742C1962.95 118.744 1962.95 118.745 1962.96 118.749C1962.97 118.752 1962.99 118.757 1963 118.762L1963.33 117.816L1963.65 116.871C1963.65 116.869 1963.64 116.867 1963.63 116.864C1963.62 116.861 1963.61 116.856 1963.6 116.851L1963.27 117.797Z" fill="var(--stroke-0, #00A1DC)" mask="url(#path-1-inside-1_0_87)"/>
</g>
</svg>
