<svg width="32" height="32" viewBox="0 0 32 32" fill="none" xmlns="http://www.w3.org/2000/svg">
<mask id="mask0_510_2180" style="mask-type:luminance" maskUnits="userSpaceOnUse" x="0" y="0" width="32" height="32">
<path d="M15.9911 32C24.8228 32 31.9822 24.8366 31.9822 16C31.9822 7.16344 24.8228 0 15.9911 0C7.15947 0 0 7.16344 0 16C0 24.8366 7.15947 32 15.9911 32Z" fill="white"/>
</mask>
<g mask="url(#mask0_510_2180)">
<path d="M35.9025 23.1773C31.9687 25.8362 26.5804 25.4259 23.0992 21.9447C22.9979 21.8434 22.8993 21.7408 22.804 21.6362C21.8932 20.6472 21.2161 19.5198 20.7721 18.3261C20.6901 18.0149 20.5929 17.7071 20.4797 17.4032C19.9895 16.0837 19.2138 14.8457 18.1527 13.7846C17.0916 12.7235 15.8509 11.9465 14.5288 11.4562C14.2289 11.3444 13.9257 11.2478 13.6191 11.1665C12.4208 10.7232 11.2907 10.0448 10.2997 9.13197C10.1951 9.03666 10.0925 8.93803 9.99193 8.83741C6.51206 5.35754 6.10038 -0.0294665 8.75729 -3.96394C7.54659 -0.427148 8.35128 3.64541 11.1718 6.46598C12.4673 7.76142 14.027 8.63103 15.6783 9.07685C15.6948 9.08148 15.7114 9.08611 15.7286 9.09008C17.2507 9.50084 18.6966 10.2725 19.9272 11.4064C20.0318 11.5017 20.1344 11.6003 20.235 11.7009C20.3356 11.8016 20.4349 11.9048 20.5302 12.0094C21.6635 13.2407 22.4351 14.6852 22.8459 16.2074C22.8505 16.2239 22.8551 16.2405 22.8591 16.2577C23.3049 17.9089 24.1745 19.4687 25.47 20.7641C28.2912 23.5853 32.3651 24.39 35.9025 23.1773Z" fill="#0083D5"/>
<path d="M36.5817 17.9708C33.3041 20.1866 28.8143 19.8442 25.9143 16.9442C25.8302 16.8601 25.7482 16.7741 25.6681 16.6873C24.9088 15.8632 24.3449 14.9244 23.9751 13.9294C23.907 13.6705 23.8263 13.4136 23.7316 13.16C23.3234 12.0603 22.6768 11.0296 21.7924 10.1452C20.9081 9.26084 19.8746 8.61422 18.773 8.20533C18.5234 8.11204 18.2705 8.03133 18.0149 7.96386C17.0165 7.59467 16.0751 7.02947 15.2496 6.2689C15.1623 6.18947 15.0775 6.10739 14.9935 6.02332C12.0941 3.12398 11.751 -1.36386 13.9648 -4.64204C12.9562 -1.69527 13.626 1.69798 15.9766 4.04857C17.0562 5.12821 18.3552 5.85222 19.731 6.22396C19.7449 6.22727 19.7588 6.2319 19.7727 6.2352C21.0406 6.57718 22.2455 7.22043 23.2709 8.16501C23.3582 8.24445 23.443 8.32653 23.527 8.4106C23.6111 8.49466 23.6932 8.58072 23.7733 8.66743C24.7172 9.69348 25.3605 10.8971 25.7024 12.165C25.7057 12.1789 25.7104 12.1928 25.7137 12.2067C26.0854 13.5825 26.8101 14.882 27.8891 15.961C30.2396 18.3116 33.6336 18.9821 36.581 17.9715L36.5817 17.9708Z" fill="#0083D5"/>
<path d="M37.7163 12.9469C35.003 14.7811 31.2852 14.4981 28.8837 12.0966C28.8135 12.0264 28.746 11.9562 28.6798 11.8834C28.0516 11.2009 27.5843 10.4237 27.278 9.59943C27.2211 9.38491 27.1543 9.17239 27.0762 8.96318C26.7381 8.05284 26.2034 7.19883 25.4713 6.46671C24.7391 5.7346 23.8838 5.19851 22.9708 4.86041C22.7636 4.783 22.5544 4.71684 22.3432 4.66062C21.5169 4.35494 20.7371 3.88637 20.0532 3.25687C19.9811 3.19134 19.9103 3.12316 19.8408 3.05365C17.4412 0.654086 17.1575 -3.06173 18.9904 -5.77632C18.1554 -3.33679 18.7102 -0.527513 20.6563 1.41862C21.5499 2.31225 22.6257 2.91251 23.7652 3.22008C23.7764 3.22339 23.7877 3.2267 23.7996 3.22935C24.8497 3.51245 25.8474 4.04519 26.696 4.82759C26.7681 4.89313 26.839 4.96131 26.9085 5.03081C26.978 5.10031 27.0462 5.17114 27.1124 5.24396C27.8941 6.09326 28.4268 7.08962 28.7099 8.13969C28.7133 8.15094 28.7166 8.1622 28.7192 8.17412C29.0268 9.31356 29.627 10.3894 30.5207 11.283C32.4668 13.2291 35.2774 13.7839 37.7176 12.9483L37.7163 12.9469Z" fill="#0083D5"/>
<path d="M-3.92304 8.71653C0.0107732 6.05763 5.3991 6.46798 8.8803 9.94918C8.98158 10.0505 9.08021 10.1531 9.17552 10.2576C10.0863 11.2466 10.7634 12.374 11.2074 13.5678C11.2894 13.8789 11.3866 14.1868 11.4998 14.4907C11.99 15.8102 12.7657 17.0482 13.8268 18.1093C14.8879 19.1704 16.1285 19.9474 17.4507 20.4376C17.7506 20.5495 18.0538 20.646 18.3604 20.7274C19.5587 21.1707 20.6888 21.8491 21.6798 22.7619C21.7844 22.8572 21.887 22.9558 21.9876 23.0564C25.4674 26.5363 25.8791 31.9233 23.2222 35.8578C24.4329 32.321 23.6282 28.2484 20.8077 25.4279C19.5122 24.1324 17.9525 23.2628 16.3012 22.817C16.2847 22.8124 16.2681 22.8077 16.2509 22.8038C14.7288 22.393 13.2829 21.6214 12.0523 20.4875C11.9477 20.3922 11.8451 20.2935 11.7445 20.1929C11.6439 20.0923 11.5446 19.989 11.4493 19.8844C10.316 18.6532 9.54439 17.2086 9.13363 15.6865C9.129 15.6699 9.12437 15.6534 9.1204 15.6362C8.67458 13.9849 7.80497 12.4252 6.50953 11.1298C3.6883 8.30853 -0.385584 7.50384 -3.92304 8.71653Z" fill="#0083D5"/>
<path d="M-4.60209 13.9231C-1.32457 11.7074 3.16526 12.0498 6.06526 14.9498C6.14933 15.0339 6.23141 15.1199 6.31151 15.2066C7.07075 16.0308 7.63462 16.9695 8.00448 17.9646C8.07261 18.2235 8.15332 18.4804 8.24793 18.7339C8.65616 19.8336 9.30278 20.8644 10.1871 21.7488C11.0715 22.6331 12.1049 23.2797 13.2066 23.6886C13.4562 23.7819 13.7091 23.8626 13.9647 23.9301C14.9631 24.2993 15.9045 24.8645 16.7299 25.6251C16.8173 25.7045 16.902 25.7866 16.9861 25.8706C19.8855 28.77 20.2285 33.2578 18.0148 36.536C19.0233 33.5892 18.3535 30.196 16.003 27.8454C14.9233 26.7657 13.6244 26.0417 12.2486 25.67C12.2347 25.6667 12.2208 25.6621 12.2069 25.6588C10.939 25.3168 9.7341 24.6735 8.70871 23.7289C8.62133 23.6495 8.5366 23.5674 8.45254 23.4834C8.36847 23.3993 8.28639 23.3132 8.20629 23.2265C7.26238 22.2005 6.61912 20.9969 6.27715 19.729C6.27384 19.7151 6.26921 19.7012 6.2659 19.6873C5.89416 18.3115 5.16949 17.0119 4.09051 15.9329C1.73993 13.5824 -1.65398 12.9119 -4.60142 13.9225L-4.60209 13.9231Z" fill="#0083D5"/>
<path d="M-5.73283 18.9463C-3.01955 17.1121 0.698248 17.3952 3.0998 19.7967C3.16997 19.8669 3.23749 19.9371 3.30368 20.0099C3.93186 20.6924 4.39911 21.4696 4.70545 22.2938C4.76233 22.5084 4.82915 22.7209 4.90722 22.9301C5.24532 23.8404 5.78008 24.6944 6.5122 25.4266C7.24432 26.1587 8.09965 26.6948 9.01263 27.0329C9.21986 27.1103 9.42908 27.1764 9.64028 27.2326C10.4665 27.5383 11.2464 28.0069 11.9302 28.6364C12.0024 28.7019 12.0732 28.7701 12.1427 28.8396C14.5429 31.2398 14.8273 34.9563 12.9944 37.6709C13.8294 35.2314 13.2746 32.4221 11.3285 30.476C10.4349 29.5823 9.35905 28.9821 8.2196 28.6745C8.20835 28.6712 8.19709 28.6679 8.18518 28.6652C7.13511 28.3821 6.13742 27.8494 5.28878 27.067C5.21663 27.0015 5.1458 26.9333 5.0763 26.8638C5.00679 26.7943 4.93861 26.7235 4.87242 26.6506C4.09067 25.8013 3.55793 24.805 3.27483 23.7549C3.27152 23.7436 3.26822 23.7324 3.26557 23.7205C2.95799 22.581 2.35774 21.5052 1.46411 20.6116C-0.482027 18.6655 -3.29263 18.1107 -5.73283 18.9463Z" fill="#0083D5"/>
</g>
</svg>
