<svg width="1440" height="653" viewBox="0 0 1440 653" fill="none" xmlns="http://www.w3.org/2000/svg">
<path fill-rule="evenodd" clip-rule="evenodd" d="M9.94121 484.187C-227.5 247.514 -255.563 -118.889 -74.2034 -386.398C-156.929 -145.834 -102.02 131.158 90.449 323.003C178.804 411.072 285.222 470.222 397.884 500.564C399.022 500.833 400.161 501.212 401.3 501.482C505.124 529.394 603.682 581.898 687.702 658.943C694.803 665.48 701.85 672.18 708.734 679.042C715.618 685.904 722.339 692.819 728.844 699.951C745.183 717.631 760.422 735.966 774.559 754.864C750.642 716.442 721.963 680.141 688.541 646.827C625.457 583.948 551.859 537.983 473.414 508.93C455.347 502.225 437.045 496.462 418.545 491.602C347.578 465.293 280.552 425.173 221.757 371.199C215.539 365.551 209.439 359.706 203.418 353.704C-3.54195 147.414 -27.9379 -171.889 130.136 -405C58.0404 -195.376 105.88 46.0355 273.604 213.217C350.619 289.982 443.347 341.514 541.514 367.933C542.538 368.168 543.522 368.443 544.506 368.717C587.585 380.305 629.619 396.74 669.737 418.025C669.507 417.795 669.279 417.562 669.048 417.332C627.598 376.016 579.286 345.808 527.744 326.736C515.859 322.316 503.819 318.545 491.685 315.362C445.046 298.083 401.047 271.741 362.42 236.271C358.355 232.529 354.323 228.694 350.383 224.767C214.479 89.3028 198.417 -120.415 302.221 -273.528C254.872 -135.837 286.3 22.7037 396.463 132.51C442.941 178.837 498.152 211.183 556.844 229.598C547.077 222.466 537.617 214.726 528.517 206.377C525.105 203.285 521.816 200.131 518.527 196.853C405.967 84.6568 392.702 -89.0314 478.671 -215.79C439.505 -101.789 465.506 29.5163 556.72 120.436C598.605 162.184 649.027 190.228 702.432 204.597C702.991 204.72 703.518 204.875 704.046 205.029C753.262 218.255 799.962 243.144 839.768 279.665C843.181 282.758 846.501 285.943 849.759 289.191C853.016 292.438 856.212 295.747 859.283 299.117C895.954 338.764 920.923 385.374 934.192 434.431C934.316 434.987 934.472 435.513 934.627 436.039C949.043 489.272 977.176 539.531 1019.06 581.279C1110.27 672.199 1241.94 698.115 1356.28 659.108C1229.05 744.736 1054.86 731.452 942.365 619.318C939.107 616.071 935.912 612.762 932.841 609.391C903.336 577.445 881.374 541.011 867.047 502.41C864.412 492.543 861.311 482.769 857.682 473.088C841.836 430.435 816.71 390.476 782.396 356.273C761.191 335.136 737.804 317.523 712.961 303.421C721.636 310.134 730.095 317.258 738.31 324.791C742.375 328.533 746.408 332.368 750.348 336.295C754.288 340.222 758.135 344.181 761.858 348.263C806.13 396.167 836.28 452.457 852.308 511.691C852.463 512.34 852.681 512.99 852.836 513.64C870.259 577.915 904.193 638.597 954.795 689.035C1064.97 798.85 1224.01 830.141 1362.12 783.023C1246.29 860.989 1098.24 871.071 974.159 813.28C1002.05 903.767 1051.85 988.939 1123.64 1060.5C1291.32 1227.64 1533.44 1275.33 1743.7 1203.58C1509.8 1361.03 1189.54 1336.63 982.655 1130.42C976.674 1124.46 970.81 1118.38 965.143 1112.18C940.165 1085.15 918.141 1056.37 899.072 1026.26C931.84 1124.64 987.395 1217.04 1065.93 1295.33C1258.41 1487.19 1536.28 1541.86 1777.58 1459.53C1509.14 1640.22 1141.64 1612.22 904.222 1375.57C897.338 1368.71 890.616 1361.79 884.111 1354.66C821.831 1287.29 775.548 1210.45 745.316 1128.96C739.792 1108.1 733.182 1087.45 725.543 1067.08C692.06 977.158 639.109 892.809 566.691 820.625C494.273 748.441 409.866 695.662 319.815 662.341C299.051 654.618 278.016 648.031 256.817 642.47C175.332 612.281 98.4606 566.256 30.9734 504.285C23.8724 497.748 16.8253 491.048 9.94121 484.187ZM302.232 -273.559L302.263 -273.591C302.249 -273.57 302.236 -273.549 302.221 -273.528C302.225 -273.539 302.229 -273.549 302.232 -273.559ZM-74.1838 -386.454L-74.1292 -386.508C-74.1539 -386.471 -74.1787 -386.435 -74.2034 -386.398C-74.197 -386.417 -74.1902 -386.436 -74.1838 -386.454Z" fill="url(#paint0_linear_48_511)"/>
<path fill-rule="evenodd" clip-rule="evenodd" d="M9.94121 484.187C-227.5 247.514 -255.563 -118.889 -74.2034 -386.398C-156.929 -145.834 -102.02 131.158 90.449 323.003C178.804 411.072 285.222 470.222 397.884 500.564C399.022 500.833 400.161 501.212 401.3 501.482C505.124 529.394 603.682 581.898 687.702 658.943C694.803 665.48 701.85 672.18 708.734 679.042C715.618 685.904 722.339 692.819 728.844 699.951C745.183 717.631 760.422 735.966 774.559 754.864C750.642 716.442 721.963 680.141 688.541 646.827C625.457 583.948 551.859 537.983 473.414 508.93C455.347 502.225 437.045 496.462 418.545 491.602C347.578 465.293 280.552 425.173 221.757 371.199C215.539 365.551 209.439 359.706 203.418 353.704C-3.54195 147.414 -27.9379 -171.889 130.136 -405C58.0404 -195.376 105.88 46.0355 273.604 213.217C350.619 289.982 443.347 341.514 541.514 367.933C542.538 368.168 543.522 368.443 544.506 368.717C587.585 380.305 629.619 396.74 669.737 418.025C669.507 417.795 669.279 417.562 669.048 417.332C627.598 376.016 579.286 345.808 527.744 326.736C515.859 322.316 503.819 318.545 491.685 315.362C445.046 298.083 401.047 271.741 362.42 236.271C358.355 232.529 354.323 228.694 350.383 224.767C214.479 89.3028 198.417 -120.415 302.221 -273.528C254.872 -135.837 286.3 22.7037 396.463 132.51C442.941 178.837 498.152 211.183 556.844 229.598C547.077 222.466 537.617 214.726 528.517 206.377C525.105 203.285 521.816 200.131 518.527 196.853C405.967 84.6568 392.702 -89.0314 478.671 -215.79C439.505 -101.789 465.506 29.5163 556.72 120.436C598.605 162.184 649.027 190.228 702.432 204.597C702.991 204.72 703.518 204.875 704.046 205.029C753.262 218.255 799.962 243.144 839.768 279.665C843.181 282.758 846.501 285.943 849.759 289.191C853.016 292.438 856.212 295.747 859.283 299.117C895.954 338.764 920.923 385.374 934.192 434.431C934.316 434.987 934.472 435.513 934.627 436.039C949.043 489.272 977.176 539.531 1019.06 581.279C1110.27 672.199 1241.94 698.115 1356.28 659.108C1229.05 744.736 1054.86 731.452 942.365 619.318C939.107 616.071 935.912 612.762 932.841 609.391C903.336 577.445 881.374 541.011 867.047 502.41C864.412 492.543 861.311 482.769 857.682 473.088C841.836 430.435 816.71 390.476 782.396 356.273C761.191 335.136 737.804 317.523 712.961 303.421C721.636 310.134 730.095 317.258 738.31 324.791C742.375 328.533 746.408 332.368 750.348 336.295C754.288 340.222 758.135 344.181 761.858 348.263C806.13 396.167 836.28 452.457 852.308 511.691C852.463 512.34 852.681 512.99 852.836 513.64C870.259 577.915 904.193 638.597 954.795 689.035C1064.97 798.85 1224.01 830.141 1362.12 783.023C1246.29 860.989 1098.24 871.071 974.159 813.28C1002.05 903.767 1051.85 988.939 1123.64 1060.5C1291.32 1227.64 1533.44 1275.33 1743.7 1203.58C1509.8 1361.03 1189.54 1336.63 982.655 1130.42C976.674 1124.46 970.81 1118.38 965.143 1112.18C940.165 1085.15 918.141 1056.37 899.072 1026.26C931.84 1124.64 987.395 1217.04 1065.93 1295.33C1258.41 1487.19 1536.28 1541.86 1777.58 1459.53C1509.14 1640.22 1141.64 1612.22 904.222 1375.57C897.338 1368.71 890.616 1361.79 884.111 1354.66C821.831 1287.29 775.548 1210.45 745.316 1128.96C739.792 1108.1 733.182 1087.45 725.543 1067.08C692.06 977.158 639.109 892.809 566.691 820.625C494.273 748.441 409.866 695.662 319.815 662.341C299.051 654.618 278.016 648.031 256.817 642.47C175.332 612.281 98.4606 566.256 30.9734 504.285C23.8724 497.748 16.8253 491.048 9.94121 484.187ZM302.232 -273.559L302.263 -273.591C302.249 -273.57 302.236 -273.549 302.221 -273.528C302.225 -273.539 302.229 -273.549 302.232 -273.559ZM-74.1838 -386.454L-74.1292 -386.508C-74.1539 -386.471 -74.1787 -386.435 -74.2034 -386.398C-74.197 -386.417 -74.1902 -386.436 -74.1838 -386.454Z" fill="url(#paint1_linear_48_511)"/>
<defs>
<linearGradient id="paint0_linear_48_511" x1="513.062" y1="553.064" x2="818.685" y2="224.969" gradientUnits="userSpaceOnUse">
<stop stop-color="#2721C3"/>
<stop offset="1" stop-color="#13105D" stop-opacity="0"/>
</linearGradient>
<linearGradient id="paint1_linear_48_511" x1="792.791" y1="115.146" x2="755.334" y2="964.142" gradientUnits="userSpaceOnUse">
<stop stop-color="#0026FF" stop-opacity="0"/>
<stop offset="0.884657" stop-color="#0051FF"/>
</linearGradient>
</defs>
</svg>
