<svg preserveAspectRatio="none" width="100%" height="100%" overflow="visible" style="display: block;" viewBox="0 0 1981.87 1969.58" fill="none" xmlns="http://www.w3.org/2000/svg">
<g id="Union">
<path d="M1092.69 201.941C1329.36 -35.5002 1695.76 -63.5633 1963.27 117.797C1722.71 35.0711 1445.72 89.9806 1253.87 282.449C1165.8 370.804 1106.65 477.222 1076.31 589.884C1076.04 591.022 1075.66 592.16 1075.39 593.299C1047.48 697.123 994.974 795.682 917.929 879.702C911.392 886.803 904.693 893.85 897.831 900.734C890.969 907.618 884.053 914.339 876.921 920.844C859.242 937.182 840.909 952.42 822.012 966.556C860.432 942.64 896.732 913.961 930.045 880.54C992.924 817.456 1038.89 743.858 1067.94 665.413C1074.65 647.347 1080.41 629.044 1085.27 610.544C1111.58 539.577 1151.7 472.551 1205.67 413.756C1211.32 407.538 1217.17 401.438 1223.17 395.417C1429.46 188.457 1748.76 164.061 1981.87 322.135C1772.25 250.04 1530.84 297.879 1363.66 465.603C1286.89 542.618 1235.36 635.346 1208.94 733.514C1208.71 734.537 1208.43 735.521 1208.16 736.505C1196.57 779.584 1180.13 821.618 1158.85 861.737C1159.08 861.507 1159.31 861.278 1159.54 861.047C1200.86 819.597 1231.06 771.285 1250.14 719.743C1254.56 707.858 1258.33 695.819 1261.51 683.685C1278.79 637.046 1305.13 593.047 1340.6 554.42C1344.34 550.355 1348.18 546.322 1352.11 542.382C1487.57 406.478 1697.29 390.416 1850.4 494.22C1712.71 446.871 1554.17 478.299 1444.36 588.462C1398.04 634.939 1365.69 690.15 1347.28 748.842C1354.41 739.075 1362.15 729.616 1370.49 720.516C1373.59 717.104 1376.74 713.815 1380.02 710.526C1492.22 597.966 1665.9 584.702 1792.66 670.67C1678.66 631.504 1547.36 657.505 1456.44 748.72C1414.69 790.604 1386.64 841.026 1372.28 894.431C1372.15 894.99 1372 895.518 1371.84 896.046C1358.62 945.262 1333.73 991.961 1297.21 1031.77C1294.11 1035.18 1290.93 1038.5 1287.68 1041.76C1284.44 1045.02 1281.13 1048.21 1277.75 1051.28C1238.11 1087.95 1191.5 1112.92 1142.44 1126.19C1141.88 1126.32 1141.36 1126.47 1140.83 1126.63C1087.6 1141.04 1037.34 1169.18 995.593 1211.06C904.673 1302.27 878.757 1433.94 917.764 1548.28C832.136 1421.05 845.421 1246.86 957.554 1134.36C960.802 1131.11 964.11 1127.91 967.481 1124.84C999.427 1095.34 1035.86 1073.37 1074.46 1059.05C1084.33 1056.41 1094.1 1053.31 1103.78 1049.68C1146.44 1033.84 1186.4 1008.71 1220.6 974.395C1241.74 953.191 1259.35 929.803 1273.45 904.96C1266.74 913.635 1259.62 922.094 1252.08 930.309C1248.34 934.374 1244.51 938.407 1240.58 942.347C1236.65 946.288 1232.69 950.135 1228.61 953.858C1180.71 998.13 1124.41 1028.28 1065.18 1044.31C1064.53 1044.46 1063.88 1044.68 1063.23 1044.83C998.958 1062.26 938.275 1096.19 887.837 1146.79C778.022 1256.97 746.73 1416.01 793.849 1554.12C715.883 1438.29 705.801 1290.24 763.593 1166.16C673.106 1194.05 587.934 1243.84 516.373 1315.64C349.231 1483.32 301.546 1725.44 373.29 1935.7C215.846 1701.8 240.242 1381.54 446.453 1174.65C452.415 1168.67 458.495 1162.81 464.693 1157.14C491.722 1132.16 520.497 1110.14 550.609 1091.07C452.23 1123.84 359.827 1179.39 281.547 1257.93C89.6865 1450.41 35.0165 1728.28 117.34 1969.58C-63.3527 1701.14 -35.3514 1333.64 201.3 1096.22C208.161 1089.34 215.078 1082.62 222.21 1076.11C289.586 1013.83 366.425 967.548 447.917 937.315C468.777 931.791 489.42 925.182 509.793 917.543C599.714 884.06 684.064 831.11 756.248 758.691C828.432 686.273 881.21 601.866 914.531 511.815C922.254 491.051 928.841 470.015 934.402 448.816C964.591 367.331 1010.62 290.46 1072.59 222.972C1079.12 215.872 1085.82 208.825 1092.69 201.941ZM1850.43 494.231L1850.46 494.263C1850.44 494.248 1850.42 494.234 1850.4 494.22C1850.41 494.223 1850.42 494.227 1850.43 494.231ZM1963.33 117.816L1963.38 117.871C1963.34 117.846 1963.31 117.821 1963.27 117.797C1963.29 117.803 1963.31 117.81 1963.33 117.816Z" fill="url(#paint0_linear_0_102)"/>
<path d="M1092.69 201.941C1329.36 -35.5002 1695.76 -63.5633 1963.27 117.797C1722.71 35.0711 1445.72 89.9806 1253.87 282.449C1165.8 370.804 1106.65 477.222 1076.31 589.884C1076.04 591.022 1075.66 592.16 1075.39 593.299C1047.48 697.123 994.974 795.682 917.929 879.702C911.392 886.803 904.693 893.85 897.831 900.734C890.969 907.618 884.053 914.339 876.921 920.844C859.242 937.182 840.909 952.42 822.012 966.556C860.432 942.64 896.732 913.961 930.045 880.54C992.924 817.456 1038.89 743.858 1067.94 665.413C1074.65 647.347 1080.41 629.044 1085.27 610.544C1111.58 539.577 1151.7 472.551 1205.67 413.756C1211.32 407.538 1217.17 401.438 1223.17 395.417C1429.46 188.457 1748.76 164.061 1981.87 322.135C1772.25 250.04 1530.84 297.879 1363.66 465.603C1286.89 542.618 1235.36 635.346 1208.94 733.514C1208.71 734.537 1208.43 735.521 1208.16 736.505C1196.57 779.584 1180.13 821.618 1158.85 861.737C1159.08 861.507 1159.31 861.278 1159.54 861.047C1200.86 819.597 1231.06 771.285 1250.14 719.743C1254.56 707.858 1258.33 695.819 1261.51 683.685C1278.79 637.046 1305.13 593.047 1340.6 554.42C1344.34 550.355 1348.18 546.322 1352.11 542.382C1487.57 406.478 1697.29 390.416 1850.4 494.22C1712.71 446.871 1554.17 478.299 1444.36 588.462C1398.04 634.939 1365.69 690.15 1347.28 748.842C1354.41 739.075 1362.15 729.616 1370.49 720.516C1373.59 717.104 1376.74 713.815 1380.02 710.526C1492.22 597.966 1665.9 584.702 1792.66 670.67C1678.66 631.504 1547.36 657.505 1456.44 748.72C1414.69 790.604 1386.64 841.026 1372.28 894.431C1372.15 894.99 1372 895.518 1371.84 896.046C1358.62 945.262 1333.73 991.961 1297.21 1031.77C1294.11 1035.18 1290.93 1038.5 1287.68 1041.76C1284.44 1045.02 1281.13 1048.21 1277.75 1051.28C1238.11 1087.95 1191.5 1112.92 1142.44 1126.19C1141.88 1126.32 1141.36 1126.47 1140.83 1126.63C1087.6 1141.04 1037.34 1169.18 995.593 1211.06C904.673 1302.27 878.757 1433.94 917.764 1548.28C832.136 1421.05 845.421 1246.86 957.554 1134.36C960.802 1131.11 964.11 1127.91 967.481 1124.84C999.427 1095.34 1035.86 1073.37 1074.46 1059.05C1084.33 1056.41 1094.1 1053.31 1103.78 1049.68C1146.44 1033.84 1186.4 1008.71 1220.6 974.395C1241.74 953.191 1259.35 929.803 1273.45 904.96C1266.74 913.635 1259.62 922.094 1252.08 930.309C1248.34 934.374 1244.51 938.407 1240.58 942.347C1236.65 946.288 1232.69 950.135 1228.61 953.858C1180.71 998.13 1124.41 1028.28 1065.18 1044.31C1064.53 1044.46 1063.88 1044.68 1063.23 1044.83C998.958 1062.26 938.275 1096.19 887.837 1146.79C778.022 1256.97 746.73 1416.01 793.849 1554.12C715.883 1438.29 705.801 1290.24 763.593 1166.16C673.106 1194.05 587.934 1243.84 516.373 1315.64C349.231 1483.32 301.546 1725.44 373.29 1935.7C215.846 1701.8 240.242 1381.54 446.453 1174.65C452.415 1168.67 458.495 1162.81 464.693 1157.14C491.722 1132.16 520.497 1110.14 550.609 1091.07C452.23 1123.84 359.827 1179.39 281.547 1257.93C89.6865 1450.41 35.0165 1728.28 117.34 1969.58C-63.3527 1701.14 -35.3514 1333.64 201.3 1096.22C208.161 1089.34 215.078 1082.62 222.21 1076.11C289.586 1013.83 366.425 967.548 447.917 937.315C468.777 931.791 489.42 925.182 509.793 917.543C599.714 884.06 684.064 831.11 756.248 758.691C828.432 686.273 881.21 601.866 914.531 511.815C922.254 491.051 928.841 470.015 934.402 448.816C964.591 367.331 1010.62 290.46 1072.59 222.972C1079.12 215.872 1085.82 208.825 1092.69 201.941ZM1850.43 494.231L1850.46 494.263C1850.44 494.248 1850.42 494.234 1850.4 494.22C1850.41 494.223 1850.42 494.227 1850.43 494.231ZM1963.33 117.816L1963.38 117.871C1963.34 117.846 1963.31 117.821 1963.27 117.797C1963.29 117.803 1963.31 117.81 1963.33 117.816Z" fill="url(#paint1_linear_0_102)"/>
</g>
<defs>
<linearGradient id="paint0_linear_0_102" x1="1023.81" y1="705.062" x2="1351.9" y2="1010.68" gradientUnits="userSpaceOnUse">
<stop stop-color="#2721C3"/>
<stop offset="1" stop-color="#13105D" stop-opacity="0"/>
</linearGradient>
<linearGradient id="paint1_linear_0_102" x1="1461.73" y1="984.79" x2="612.73" y2="947.334" gradientUnits="userSpaceOnUse">
<stop stop-color="#00A1DC"/>
<stop offset="0.802988" stop-color="#00FFFB" stop-opacity="0"/>
</linearGradient>
</defs>
</svg>
