<svg preserveAspectRatio="none" width="100%" height="100%" overflow="visible" style="display: block;" viewBox="0 0 1981.87 1969.58" fill="none" xmlns="http://www.w3.org/2000/svg">
<g id="Union">
<path d="M1092.69 201.941C1329.36 -35.5002 1695.76 -63.5634 1963.27 117.797C1722.71 35.0711 1445.71 89.9805 1253.87 282.449C1165.8 370.804 1106.65 477.222 1076.31 589.884C1076.04 591.022 1075.66 592.161 1075.39 593.3C1047.48 697.124 994.974 795.682 917.93 879.702C911.392 886.803 904.692 893.85 897.83 900.734C890.968 907.618 884.053 914.339 876.921 920.844C859.241 937.183 840.906 952.422 822.008 966.559C860.43 942.643 896.731 913.963 930.045 880.541C992.924 817.457 1038.89 743.859 1067.94 665.414C1074.65 647.348 1080.41 629.045 1085.27 610.545C1111.58 539.578 1151.7 472.552 1205.67 413.757C1211.32 407.539 1217.17 401.439 1223.17 395.418C1429.46 188.458 1748.76 164.062 1981.87 322.136C1772.25 250.04 1530.84 297.88 1363.66 465.604C1286.89 542.619 1235.36 635.347 1208.94 733.514C1208.7 734.538 1208.43 735.522 1208.16 736.506C1196.57 779.585 1180.13 821.619 1158.85 861.737C1159.08 861.507 1159.31 861.279 1159.54 861.048C1200.86 819.598 1231.06 771.286 1250.14 719.744C1254.56 707.859 1258.33 695.819 1261.51 683.685C1278.79 637.046 1305.13 593.047 1340.6 554.42C1344.34 550.356 1348.18 546.323 1352.11 542.383C1487.57 406.479 1697.29 390.417 1850.4 494.222C1712.71 446.872 1554.17 478.3 1444.36 588.463C1398.03 634.941 1365.69 690.152 1347.27 748.845C1354.41 739.077 1362.15 729.617 1370.49 720.517C1373.59 717.105 1376.74 713.816 1380.02 710.527C1492.22 597.967 1665.9 584.702 1792.66 670.671C1678.66 631.505 1547.36 657.506 1456.44 748.721C1414.69 790.605 1386.64 841.027 1372.28 894.432C1372.15 894.991 1372 895.518 1371.84 896.046C1358.62 945.262 1333.73 991.962 1297.21 1031.77C1294.11 1035.18 1290.93 1038.5 1287.68 1041.76C1284.43 1045.02 1281.13 1048.21 1277.75 1051.28C1238.11 1087.95 1191.5 1112.92 1142.44 1126.19C1141.88 1126.32 1141.36 1126.47 1140.83 1126.63C1087.6 1141.04 1037.34 1169.18 995.593 1211.06C904.673 1302.27 878.757 1433.94 917.764 1548.28C832.136 1421.05 845.42 1246.86 957.554 1134.37C960.801 1131.11 964.11 1127.91 967.481 1124.84C999.427 1095.34 1035.86 1073.37 1074.46 1059.05C1084.33 1056.41 1094.1 1053.31 1103.78 1049.68C1146.44 1033.84 1186.4 1008.71 1220.6 974.396C1241.74 953.192 1259.35 929.804 1273.45 904.961C1266.74 913.636 1259.61 922.095 1252.08 930.31C1248.34 934.375 1244.5 938.408 1240.58 942.348C1236.65 946.289 1232.69 950.135 1228.61 953.858C1180.71 998.13 1124.41 1028.28 1065.18 1044.31C1064.53 1044.46 1063.88 1044.68 1063.23 1044.84C998.957 1062.26 938.275 1096.19 887.837 1146.79C778.022 1256.97 746.731 1416.01 793.849 1554.12C715.883 1438.29 705.801 1290.24 763.592 1166.16C673.105 1194.05 587.933 1243.85 516.372 1315.64C349.23 1483.32 301.546 1725.44 373.29 1935.7C215.846 1701.8 240.241 1381.54 446.452 1174.66C452.414 1168.67 458.494 1162.81 464.692 1157.14C491.721 1132.17 520.498 1110.14 550.611 1091.07C452.231 1123.84 359.827 1179.39 281.547 1257.93C89.6867 1450.41 35.0166 1728.28 117.34 1969.58C-63.3527 1701.14 -35.3514 1333.64 201.3 1096.22C208.161 1089.34 215.078 1082.62 222.21 1076.11C289.586 1013.83 366.426 967.548 447.917 937.316C468.777 931.792 489.42 925.182 509.793 917.543C599.714 884.06 684.063 831.109 756.247 758.691C828.431 686.273 881.21 601.866 914.531 511.815C922.254 491.051 928.841 470.016 934.402 448.817C964.591 367.332 1010.62 290.461 1072.59 222.973C1079.12 215.872 1085.82 208.825 1092.69 201.941ZM1850.43 494.232L1850.46 494.264C1850.44 494.249 1850.42 494.236 1850.4 494.222C1850.41 494.225 1850.42 494.229 1850.43 494.232ZM1963.33 117.816L1963.38 117.871C1963.34 117.846 1963.31 117.821 1963.27 117.797C1963.29 117.803 1963.31 117.81 1963.33 117.816Z" fill="url(#paint0_linear_0_55)"/>
<path d="M1092.69 201.941C1329.36 -35.5002 1695.76 -63.5634 1963.27 117.797C1722.71 35.0711 1445.71 89.9805 1253.87 282.449C1165.8 370.804 1106.65 477.222 1076.31 589.884C1076.04 591.022 1075.66 592.161 1075.39 593.3C1047.48 697.124 994.974 795.682 917.93 879.702C911.392 886.803 904.692 893.85 897.83 900.734C890.968 907.618 884.053 914.339 876.921 920.844C859.241 937.183 840.906 952.422 822.008 966.559C860.43 942.643 896.731 913.963 930.045 880.541C992.924 817.457 1038.89 743.859 1067.94 665.414C1074.65 647.348 1080.41 629.045 1085.27 610.545C1111.58 539.578 1151.7 472.552 1205.67 413.757C1211.32 407.539 1217.17 401.439 1223.17 395.418C1429.46 188.458 1748.76 164.062 1981.87 322.136C1772.25 250.04 1530.84 297.88 1363.66 465.604C1286.89 542.619 1235.36 635.347 1208.94 733.514C1208.7 734.538 1208.43 735.522 1208.16 736.506C1196.57 779.585 1180.13 821.619 1158.85 861.737C1159.08 861.507 1159.31 861.279 1159.54 861.048C1200.86 819.598 1231.06 771.286 1250.14 719.744C1254.56 707.859 1258.33 695.819 1261.51 683.685C1278.79 637.046 1305.13 593.047 1340.6 554.42C1344.34 550.356 1348.18 546.323 1352.11 542.383C1487.57 406.479 1697.29 390.417 1850.4 494.222C1712.71 446.872 1554.17 478.3 1444.36 588.463C1398.03 634.941 1365.69 690.152 1347.27 748.845C1354.41 739.077 1362.15 729.617 1370.49 720.517C1373.59 717.105 1376.74 713.816 1380.02 710.527C1492.22 597.967 1665.9 584.702 1792.66 670.671C1678.66 631.505 1547.36 657.506 1456.44 748.721C1414.69 790.605 1386.64 841.027 1372.28 894.432C1372.15 894.991 1372 895.518 1371.84 896.046C1358.62 945.262 1333.73 991.962 1297.21 1031.77C1294.11 1035.18 1290.93 1038.5 1287.68 1041.76C1284.43 1045.02 1281.13 1048.21 1277.75 1051.28C1238.11 1087.95 1191.5 1112.92 1142.44 1126.19C1141.88 1126.32 1141.36 1126.47 1140.83 1126.63C1087.6 1141.04 1037.34 1169.18 995.593 1211.06C904.673 1302.27 878.757 1433.94 917.764 1548.28C832.136 1421.05 845.42 1246.86 957.554 1134.37C960.801 1131.11 964.11 1127.91 967.481 1124.84C999.427 1095.34 1035.86 1073.37 1074.46 1059.05C1084.33 1056.41 1094.1 1053.31 1103.78 1049.68C1146.44 1033.84 1186.4 1008.71 1220.6 974.396C1241.74 953.192 1259.35 929.804 1273.45 904.961C1266.74 913.636 1259.61 922.095 1252.08 930.31C1248.34 934.375 1244.5 938.408 1240.58 942.348C1236.65 946.289 1232.69 950.135 1228.61 953.858C1180.71 998.13 1124.41 1028.28 1065.18 1044.31C1064.53 1044.46 1063.88 1044.68 1063.23 1044.84C998.957 1062.26 938.275 1096.19 887.837 1146.79C778.022 1256.97 746.731 1416.01 793.849 1554.12C715.883 1438.29 705.801 1290.24 763.592 1166.16C673.105 1194.05 587.933 1243.85 516.372 1315.64C349.23 1483.32 301.546 1725.44 373.29 1935.7C215.846 1701.8 240.241 1381.54 446.452 1174.66C452.414 1168.67 458.494 1162.81 464.692 1157.14C491.721 1132.17 520.498 1110.14 550.611 1091.07C452.231 1123.84 359.827 1179.39 281.547 1257.93C89.6867 1450.41 35.0166 1728.28 117.34 1969.58C-63.3527 1701.14 -35.3514 1333.64 201.3 1096.22C208.161 1089.34 215.078 1082.62 222.21 1076.11C289.586 1013.83 366.426 967.548 447.917 937.316C468.777 931.792 489.42 925.182 509.793 917.543C599.714 884.06 684.063 831.109 756.247 758.691C828.431 686.273 881.21 601.866 914.531 511.815C922.254 491.051 928.841 470.016 934.402 448.817C964.591 367.332 1010.62 290.461 1072.59 222.973C1079.12 215.872 1085.82 208.825 1092.69 201.941ZM1850.43 494.232L1850.46 494.264C1850.44 494.249 1850.42 494.236 1850.4 494.222C1850.41 494.225 1850.42 494.229 1850.43 494.232ZM1963.33 117.816L1963.38 117.871C1963.34 117.846 1963.31 117.821 1963.27 117.797C1963.29 117.803 1963.31 117.81 1963.33 117.816Z" fill="url(#paint1_linear_0_55)"/>
</g>
<defs>
<linearGradient id="paint0_linear_0_55" x1="1023.81" y1="705.062" x2="1351.9" y2="1010.68" gradientUnits="userSpaceOnUse">
<stop stop-color="#2721C3"/>
<stop offset="1" stop-color="#13105D" stop-opacity="0"/>
</linearGradient>
<linearGradient id="paint1_linear_0_55" x1="1461.73" y1="984.791" x2="612.73" y2="947.334" gradientUnits="userSpaceOnUse">
<stop stop-color="#00FFFB" stop-opacity="0"/>
<stop offset="0.884657" stop-color="#00A1DC"/>
</linearGradient>
</defs>
</svg>
