<svg width="1440" height="653" viewBox="0 0 1440 653" fill="none" xmlns="http://www.w3.org/2000/svg">
<path fill-rule="evenodd" clip-rule="evenodd" d="M9.94105 484.187C-227.501 247.513 -255.564 -118.892 -74.2016 -386.401C-156.929 -145.837 -102.02 131.157 90.4489 323.003C178.804 411.072 285.223 470.221 397.884 500.563C399.023 500.833 400.161 501.212 401.299 501.481C505.124 529.394 603.683 581.898 687.703 658.942C694.804 665.48 701.85 672.18 708.734 679.042C715.618 685.904 722.34 692.819 728.844 699.951C745.184 717.631 760.422 735.965 774.559 754.863C750.642 716.441 721.963 680.141 688.541 646.827C625.457 583.948 551.859 537.983 473.414 508.93C455.347 502.225 437.044 496.462 418.545 491.602C347.578 465.293 280.552 425.173 221.756 371.199C215.538 365.551 209.439 359.706 203.418 353.704C-3.54215 147.414 -27.938 -171.889 130.135 -405C58.0403 -195.376 105.88 46.0354 273.604 213.217C350.619 289.982 443.346 341.514 541.513 367.933C542.537 368.168 543.521 368.442 544.506 368.717C587.585 380.305 629.618 396.74 669.737 418.025C669.507 417.795 669.278 417.562 669.047 417.332C627.598 376.016 579.286 345.808 527.744 326.736C515.859 322.316 503.819 318.545 491.685 315.362C445.046 298.083 401.047 271.74 362.42 236.27C358.355 232.529 354.322 228.694 350.381 224.767C214.478 89.3027 198.416 -120.415 302.221 -273.528C254.872 -135.837 286.299 22.7036 396.462 132.51C442.94 178.837 498.151 211.183 556.843 229.598C547.076 222.466 537.617 214.726 528.517 206.377C525.104 203.285 521.816 200.13 518.527 196.853C405.967 84.6568 392.701 -89.0315 478.67 -215.79C439.504 -101.789 465.506 29.5162 556.72 120.436C598.605 162.184 649.027 190.227 702.432 204.597C702.991 204.72 703.518 204.875 704.046 205.029C753.262 218.255 799.962 243.144 839.768 279.665C843.181 282.757 846.501 285.943 849.758 289.19C853.016 292.437 856.211 295.746 859.283 299.117C895.954 338.764 920.923 385.374 934.192 434.431C934.316 434.987 934.472 435.513 934.627 436.039C949.043 489.272 977.176 539.531 1019.06 581.279C1110.27 672.199 1241.94 698.115 1356.28 659.107C1229.05 744.736 1054.86 731.452 942.365 619.318C939.107 616.071 935.912 612.762 932.84 609.391C903.336 577.444 881.373 541.011 867.046 502.41C864.411 492.543 861.31 482.769 857.682 473.088C841.836 430.435 816.709 390.475 782.395 356.272C761.191 335.137 737.804 317.524 712.962 303.422C721.636 310.135 730.095 317.258 738.31 324.791C742.375 328.533 746.408 332.368 750.348 336.295C754.288 340.222 758.135 344.181 761.858 348.263C806.13 396.166 836.28 452.457 852.308 511.69C852.463 512.34 852.68 512.99 852.835 513.64C870.258 577.915 904.192 638.597 954.795 689.035C1064.97 798.85 1224.01 830.141 1362.12 783.022C1246.29 860.988 1098.24 871.071 974.159 813.28C1002.05 903.767 1051.84 988.939 1123.64 1060.5C1291.32 1227.64 1533.44 1275.33 1743.7 1203.58C1509.8 1361.03 1189.54 1336.63 982.655 1130.42C976.673 1124.46 970.81 1118.38 965.143 1112.18C940.165 1085.15 918.142 1056.37 899.073 1026.26C931.841 1124.64 987.395 1217.04 1065.93 1295.33C1258.41 1487.19 1536.28 1541.86 1777.58 1459.53C1509.14 1640.22 1141.64 1612.22 904.221 1375.57C897.337 1368.71 890.616 1361.79 884.112 1354.66C821.832 1287.29 775.548 1210.45 745.316 1128.96C739.791 1108.1 733.182 1087.45 725.543 1067.08C692.059 977.158 639.109 892.809 566.691 820.625C494.273 748.441 409.867 695.662 319.816 662.341C299.052 654.618 278.016 648.031 256.817 642.47C175.332 612.281 98.4604 566.256 30.9733 504.285C23.8723 497.748 16.8251 491.048 9.94105 484.187ZM302.232 -273.56L302.263 -273.591C302.249 -273.57 302.235 -273.549 302.221 -273.528C302.225 -273.539 302.228 -273.549 302.232 -273.56ZM-74.183 -386.454L-74.1293 -386.508C-74.1534 -386.472 -74.1775 -386.437 -74.2016 -386.401C-74.1956 -386.419 -74.189 -386.437 -74.183 -386.454Z" fill="url(#paint0_linear_48_824)"/>
<path fill-rule="evenodd" clip-rule="evenodd" d="M9.94105 484.187C-227.501 247.513 -255.564 -118.892 -74.2016 -386.401C-156.929 -145.837 -102.02 131.157 90.4489 323.003C178.804 411.072 285.223 470.221 397.884 500.563C399.023 500.833 400.161 501.212 401.299 501.481C505.124 529.394 603.683 581.898 687.703 658.942C694.804 665.48 701.85 672.18 708.734 679.042C715.618 685.904 722.34 692.819 728.844 699.951C745.184 717.631 760.422 735.965 774.559 754.863C750.642 716.441 721.963 680.141 688.541 646.827C625.457 583.948 551.859 537.983 473.414 508.93C455.347 502.225 437.044 496.462 418.545 491.602C347.578 465.293 280.552 425.173 221.756 371.199C215.538 365.551 209.439 359.706 203.418 353.704C-3.54215 147.414 -27.938 -171.889 130.135 -405C58.0403 -195.376 105.88 46.0354 273.604 213.217C350.619 289.982 443.346 341.514 541.513 367.933C542.537 368.168 543.521 368.442 544.506 368.717C587.585 380.305 629.618 396.74 669.737 418.025C669.507 417.795 669.278 417.562 669.047 417.332C627.598 376.016 579.286 345.808 527.744 326.736C515.859 322.316 503.819 318.545 491.685 315.362C445.046 298.083 401.047 271.74 362.42 236.27C358.355 232.529 354.322 228.694 350.381 224.767C214.478 89.3027 198.416 -120.415 302.221 -273.528C254.872 -135.837 286.299 22.7036 396.462 132.51C442.94 178.837 498.151 211.183 556.843 229.598C547.076 222.466 537.617 214.726 528.517 206.377C525.104 203.285 521.816 200.13 518.527 196.853C405.967 84.6568 392.701 -89.0315 478.67 -215.79C439.504 -101.789 465.506 29.5162 556.72 120.436C598.605 162.184 649.027 190.227 702.432 204.597C702.991 204.72 703.518 204.875 704.046 205.029C753.262 218.255 799.962 243.144 839.768 279.665C843.181 282.757 846.501 285.943 849.758 289.19C853.016 292.437 856.211 295.746 859.283 299.117C895.954 338.764 920.923 385.374 934.192 434.431C934.316 434.987 934.472 435.513 934.627 436.039C949.043 489.272 977.176 539.531 1019.06 581.279C1110.27 672.199 1241.94 698.115 1356.28 659.107C1229.05 744.736 1054.86 731.452 942.365 619.318C939.107 616.071 935.912 612.762 932.84 609.391C903.336 577.444 881.373 541.011 867.046 502.41C864.411 492.543 861.31 482.769 857.682 473.088C841.836 430.435 816.709 390.475 782.395 356.272C761.191 335.137 737.804 317.524 712.962 303.422C721.636 310.135 730.095 317.258 738.31 324.791C742.375 328.533 746.408 332.368 750.348 336.295C754.288 340.222 758.135 344.181 761.858 348.263C806.13 396.166 836.28 452.457 852.308 511.69C852.463 512.34 852.68 512.99 852.835 513.64C870.258 577.915 904.192 638.597 954.795 689.035C1064.97 798.85 1224.01 830.141 1362.12 783.022C1246.29 860.988 1098.24 871.071 974.159 813.28C1002.05 903.767 1051.84 988.939 1123.64 1060.5C1291.32 1227.64 1533.44 1275.33 1743.7 1203.58C1509.8 1361.03 1189.54 1336.63 982.655 1130.42C976.673 1124.46 970.81 1118.38 965.143 1112.18C940.165 1085.15 918.142 1056.37 899.073 1026.26C931.841 1124.64 987.395 1217.04 1065.93 1295.33C1258.41 1487.19 1536.28 1541.86 1777.58 1459.53C1509.14 1640.22 1141.64 1612.22 904.221 1375.57C897.337 1368.71 890.616 1361.79 884.112 1354.66C821.832 1287.29 775.548 1210.45 745.316 1128.96C739.791 1108.1 733.182 1087.45 725.543 1067.08C692.059 977.158 639.109 892.809 566.691 820.625C494.273 748.441 409.867 695.662 319.816 662.341C299.052 654.618 278.016 648.031 256.817 642.47C175.332 612.281 98.4604 566.256 30.9733 504.285C23.8723 497.748 16.8251 491.048 9.94105 484.187ZM302.232 -273.56L302.263 -273.591C302.249 -273.57 302.235 -273.549 302.221 -273.528C302.225 -273.539 302.228 -273.549 302.232 -273.56ZM-74.183 -386.454L-74.1293 -386.508C-74.1534 -386.472 -74.1775 -386.437 -74.2016 -386.401C-74.1956 -386.419 -74.189 -386.437 -74.183 -386.454Z" fill="url(#paint1_linear_48_824)"/>
<defs>
<linearGradient id="paint0_linear_48_824" x1="513.062" y1="553.063" x2="818.685" y2="224.969" gradientUnits="userSpaceOnUse">
<stop stop-color="#2721C3"/>
<stop offset="1" stop-color="#13105D" stop-opacity="0"/>
</linearGradient>
<linearGradient id="paint1_linear_48_824" x1="792.791" y1="115.146" x2="755.334" y2="964.142" gradientUnits="userSpaceOnUse">
<stop stop-color="#00A1DC"/>
<stop offset="0.802988" stop-color="#00FFFB" stop-opacity="0"/>
</linearGradient>
</defs>
</svg>
