<svg width="24" height="24" viewBox="0 0 24 24" fill="none" xmlns="http://www.w3.org/2000/svg">
<g clip-path="url(#clip0_253_1071)">
<path d="M23.0021 21.5844H23.2291L22.7941 20.9264C23.0601 20.9264 23.2011 20.7574 23.2031 20.5504C23.2031 20.5424 23.2031 20.5334 23.2021 20.5254C23.2021 20.2434 23.0321 20.1084 22.6831 20.1084H22.1191V21.5844H22.3311V20.9414H22.5921L23.0021 21.5844ZM22.5771 20.7744H22.3311V20.2754H22.6431C22.8041 20.2754 22.9881 20.3014 22.9881 20.5124C22.9881 20.7544 22.8031 20.7744 22.5771 20.7744Z" fill="#0083D5"/>
<path d="M17.291 19.0734H14.284V14.3644C14.284 13.2414 14.264 11.7964 12.72 11.7964C11.154 11.7964 10.914 13.0194 10.914 14.2834V19.0734H7.908V9.38936H10.795V10.7124H10.835C11.424 9.70636 12.518 9.10536 13.683 9.14836C16.731 9.14836 17.292 11.1534 17.292 13.7604L17.291 19.0734ZM4.515 8.06536C3.551 8.06536 2.77 7.28436 2.77 6.32036C2.77 5.35636 3.551 4.57536 4.515 4.57536C5.479 4.57536 6.26 5.35636 6.26 6.32036C6.26 7.28436 5.479 8.06536 4.515 8.06536ZM6.018 19.0734H3.008V9.38936H6.018V19.0734ZM18.79 1.78336H1.497C0.68 1.77436 0.01 2.42936 0 3.24636V20.6104C0.01 21.4284 0.68 22.0834 1.497 22.0744H18.79C19.609 22.0844 20.282 21.4294 20.293 20.6104V3.24536C20.281 2.42636 19.608 1.77136 18.79 1.78236" fill="#0083D5"/>
<path d="M22.6035 19.4512C21.8395 19.4582 21.2255 20.0842 21.2335 20.8482C21.2405 21.6122 21.8665 22.2262 22.6305 22.2182C23.3945 22.2112 24.0085 21.5852 24.0005 20.8212C23.9935 20.0672 23.3835 19.4582 22.6305 19.4512H22.6035ZM22.6355 22.0592C21.9655 22.0702 21.3815 21.5372 21.3705 20.8672C21.3595 20.1972 21.8935 19.6452 22.5635 19.6342C23.2335 19.6232 23.7855 20.1572 23.7965 20.8272C23.7965 20.8342 23.7965 20.8402 23.7965 20.8472C23.8105 21.5022 23.2905 22.0452 22.6355 22.0592H22.6045H22.6355Z" fill="#0083D5"/>
</g>
<defs>
<clipPath id="clip0_253_1071">
<rect width="24" height="24" fill="white"/>
</clipPath>
</defs>
</svg>
