<svg xmlns="http://www.w3.org/2000/svg" viewBox="0 0 16 16" fill="currentColor">
  <path d="M0 1.146C0 .513.526 0 1.175 0h13.65C15.474 0 16 .513 16 1.146v13.708c0 .633-.526 1.146-1.175 1.146H1.175C.526 16 0 15.487 0 14.854zM4.943 13.5V6.169H2.542V13.5zm-1.2-8.345h.014c.837 0 1.358-.554 1.358-1.248-.015-.709-.521-1.248-1.343-1.248-.821 0-1.357.539-1.357 1.248 0 .694.521 1.248 1.313 1.248zm3.258 8.345h2.4V9.405c0-.219.016-.438.08-.595.175-.438.572-.892 1.24-.892.874 0 1.226.673 1.226 1.66V13.5h2.4V9.298c0-2.25-1.2-3.297-2.8-3.297-1.29 0-1.865.709-2.19 1.208h.016v-1.04H7c.03.67 0 7.331 0 7.331"/>
</svg>
