<svg xmlns="http://www.w3.org/2000/svg" viewBox="0 0 16 16" fill="currentColor">
  <path d="M8 0C5.829 0 5.556.01 4.703.048 3.85.088 3.269.222 2.76.42a3.9 3.9 0 0 0-1.417.923A3.9 3.9 0 0 0 .42 2.76c-.198.509-.332 1.09-.372 1.943C.01 5.556 0 5.827 0 8s.01 2.444.048 3.297c.04.851.174 1.434.372 1.943.205.527.478.974.923 1.417.444.445.89.719 1.416.923.51.198 1.092.333 1.944.372C5.555 15.99 5.827 16 8 16s2.444-.01 3.298-.048c.851-.04 1.434-.174 1.943-.372a3.9 3.9 0 0 0 1.416-.923c.445-.444.718-.89.923-1.416.197-.51.332-1.092.372-1.944C15.99 10.444 16 10.173 16 8s-.01-2.444-.048-3.298c-.04-.851-.175-1.433-.372-1.943a3.9 3.9 0 0 0-.923-1.416A3.9 3.9 0 0 0 13.24.42c-.51-.198-1.092-.332-1.943-.372C10.444.01 10.173 0 8 0m0 1.44c2.136 0 2.389.008 3.232.046.78.035 1.204.166 1.486.275.374.145.64.319.92.598.28.28.453.547.598.92.109.281.24.705.275 1.485.038.843.046 1.096.046 3.232s-.008 2.389-.046 3.232c-.035.78-.166 1.204-.275 1.486a2.5 2.5 0 0 1-.598.92 2.5 2.5 0 0 1-.92.598c-.281.109-.705.24-1.485.275-.843.038-1.096.046-3.232.046s-2.389-.008-3.232-.046c-.78-.035-1.204-.166-1.486-.275a2.5 2.5 0 0 1-.92-.598 2.5 2.5 0 0 1-.598-.92c-.109-.281-.24-.705-.275-1.485C1.448 10.389 1.44 10.136 1.44 8s.008-2.389.046-3.232c.035-.78.166-1.204.275-1.486.145-.374.319-.64.598-.92.28-.28.547-.453.92-.598.281-.109.705-.24 1.485-.275C5.611 1.448 5.864 1.44 8 1.44m0 2.45A4.11 4.11 0 1 0 8 12.11 4.11 4.11 0 0 0 8 3.89m0 6.78A2.67 2.67 0 1 1 8 5.33a2.67 2.67 0 0 1 0 5.34m4.271-6.945a.96.96 0 1 0 0 1.92.96.96 0 0 0 0-1.92"/>
</svg>
