<svg width="276" height="56" viewBox="0 0 276 56" fill="none" xmlns="http://www.w3.org/2000/svg">
<mask id="mask0_49_1432" style="mask-type:luminance" maskUnits="userSpaceOnUse" x="29" y="9" width="37" height="38">
<path d="M47.238 46.116C57.2376 46.116 65.3439 38.0052 65.3439 28C65.3439 17.9948 57.2376 9.88403 47.238 9.88403C37.2384 9.88403 29.1321 17.9948 29.1321 28C29.1321 38.0052 37.2384 46.116 47.238 46.116Z" fill="white"/>
</mask>
<g mask="url(#mask0_49_1432)">
<path d="M69.7822 36.1265C65.3282 39.1371 59.2273 38.6725 55.2857 34.7309C55.171 34.6162 55.0593 34.5 54.9514 34.3816C53.9201 33.2618 53.1535 31.9853 52.6509 30.6337C52.558 30.2814 52.4479 29.9328 52.3198 29.5888C51.7647 28.0948 50.8864 26.6931 49.685 25.4916C48.4835 24.2902 47.0789 23.4104 45.5819 22.8553C45.2423 22.7287 44.8989 22.6194 44.5519 22.5272C43.195 22.0253 41.9155 21.2572 40.7935 20.2237C40.6751 20.1158 40.5589 20.0041 40.445 19.8902C36.5049 15.9501 36.0388 9.85067 39.0471 5.39587C37.6763 9.40039 38.5874 14.0115 41.7809 17.2051C43.2477 18.6719 45.0137 19.6565 46.8833 20.1613C46.9021 20.1665 46.9208 20.1718 46.9403 20.1763C48.6637 20.6413 50.3008 21.515 51.6942 22.7989C51.8126 22.9068 51.9288 23.0185 52.0427 23.1324C52.1566 23.2463 52.269 23.3633 52.377 23.4817C53.6601 24.8758 54.5338 26.5114 54.9988 28.2348C55.0041 28.2535 55.0093 28.2723 55.0138 28.2918C55.5186 30.1614 56.5032 31.9274 57.97 33.3942C61.1643 36.5885 65.777 37.4996 69.7822 36.1265Z" fill="#09BDF2"/>
<path d="M70.5515 30.2315C66.8405 32.7403 61.7569 32.3526 58.4734 29.069C58.3782 28.9739 58.2852 28.8764 58.1945 28.7782C57.3349 27.8451 56.6965 26.7822 56.2777 25.6555C56.2005 25.3624 56.1092 25.0715 56.002 24.7844C55.5398 23.5393 54.8077 22.3722 53.8064 21.3709C52.805 20.3696 51.635 19.6375 50.3876 19.1745C50.105 19.0689 49.8186 18.9775 49.5293 18.9011C48.3988 18.4831 47.3329 17.8431 46.3983 16.982C46.2994 16.892 46.2034 16.7991 46.1082 16.7039C42.8255 13.4211 42.437 8.33979 44.9436 4.62807C43.8016 7.96456 44.56 11.8066 47.2214 14.468C48.4438 15.6904 49.9145 16.5102 51.4723 16.9311C51.488 16.9348 51.5038 16.9401 51.5195 16.9438C52.9551 17.331 54.3193 18.0593 55.4803 19.1288C55.5792 19.2188 55.6752 19.3117 55.7704 19.4069C55.8656 19.5021 55.9585 19.5995 56.0492 19.6977C57.1179 20.8595 57.8463 22.2222 58.2335 23.6578C58.2372 23.6735 58.2424 23.6893 58.2462 23.705C58.6671 25.2628 59.4876 26.7342 60.7093 27.9559C63.3707 30.6173 67.2135 31.3764 70.5507 30.2322L70.5515 30.2315Z" fill="#09BDF2"/>
<path d="M71.8361 24.5432C68.764 26.6199 64.5546 26.2995 61.8354 23.5803C61.756 23.5009 61.6795 23.4214 61.6046 23.339C60.8933 22.5662 60.3643 21.6862 60.0174 20.753C59.953 20.5101 59.8774 20.2694 59.789 20.0326C59.4061 19.0018 58.8007 18.0349 57.9717 17.206C57.1428 16.377 56.1743 15.77 55.1406 15.3872C54.906 15.2996 54.6691 15.2247 54.43 15.161C53.4944 14.8149 52.6114 14.2844 51.8372 13.5716C51.7555 13.4974 51.6753 13.4202 51.5966 13.3415C48.8797 10.6246 48.5585 6.41738 50.6338 3.34378C49.6884 6.10594 50.3165 9.28675 52.52 11.4903C53.5318 12.5021 54.7499 13.1817 56.04 13.53C56.0528 13.5337 56.0655 13.5374 56.079 13.5404C57.2679 13.861 58.3976 14.4642 59.3584 15.3501C59.4401 15.4243 59.5203 15.5015 59.599 15.5802C59.6777 15.6588 59.7549 15.739 59.8299 15.8215C60.715 16.7831 61.3182 17.9112 61.6387 19.1002C61.6425 19.1129 61.6462 19.1257 61.6492 19.1392C61.9975 20.4293 62.6771 21.6474 63.6889 22.6592C65.8924 24.8627 69.0747 25.4908 71.8376 24.5447L71.8361 24.5432Z" fill="#09BDF2"/>
<path d="M24.69 19.7533C29.1441 16.7428 35.245 17.2074 39.1866 21.149C39.3013 21.2636 39.4129 21.3798 39.5209 21.4982C40.5521 22.618 41.3187 23.8945 41.8214 25.2461C41.9143 25.5984 42.0244 25.947 42.1525 26.2911C42.7076 27.7851 43.5859 29.1868 44.7873 30.3882C45.9887 31.5897 47.3934 32.4694 48.8904 33.0245C49.23 33.1511 49.5733 33.2605 49.9204 33.3526C51.2772 33.8545 52.5568 34.6226 53.6788 35.6561C53.7972 35.7641 53.9134 35.8757 54.0273 35.9897C57.9674 39.9297 58.4335 46.0292 55.4252 50.484C56.796 46.4794 55.8849 41.8683 52.6913 38.6747C51.2246 37.2079 49.4586 36.2233 47.5889 35.7186C47.5702 35.7133 47.5515 35.7081 47.532 35.7036C45.8085 35.2385 44.1714 34.3648 42.7781 33.0809C42.6597 32.973 42.5435 32.8613 42.4296 32.7474C42.3157 32.6335 42.2032 32.5166 42.0953 32.3982C40.8122 31.0041 39.9385 29.3685 39.4734 27.645C39.4682 27.6263 39.4629 27.6076 39.4584 27.5881C38.9537 25.7185 37.9691 23.9524 36.5023 22.4857C33.308 19.2913 28.6953 18.3802 24.69 19.7533Z" fill="#004991"/>
<path d="M23.9216 25.6485C27.6325 23.1397 32.7161 23.5274 35.9997 26.8109C36.0948 26.9061 36.1878 27.0035 36.2785 27.1017C37.1381 28.0349 37.7766 29.0977 38.1953 30.2244C38.2725 30.5175 38.3639 30.8084 38.471 31.0955C38.9332 32.3406 39.6653 33.5077 40.6667 34.509C41.668 35.5104 42.8381 36.2425 44.0854 36.7055C44.368 36.8111 44.6544 36.9025 44.9438 36.9789C46.0742 37.3969 47.1401 38.0368 48.0747 38.898C48.1737 38.9879 48.2696 39.0808 48.3648 39.176C51.6476 42.4588 52.036 47.5402 49.5295 51.2519C50.6714 47.9154 49.913 44.0734 47.2516 41.4119C46.0292 40.1895 44.5585 39.3698 43.0007 38.9489C42.985 38.9451 42.9693 38.9399 42.9535 38.9361C41.5179 38.5489 40.1537 37.8206 38.9927 36.7511C38.8938 36.6612 38.7978 36.5682 38.7026 36.473C38.6075 36.3779 38.5145 36.2804 38.4238 36.1822C37.3551 35.0205 36.6268 33.6577 36.2396 32.2222C36.2358 32.2064 36.2306 32.1907 36.2268 32.1749C35.8059 30.6172 34.9854 29.1458 33.7637 27.9241C31.1023 25.2626 27.2595 24.5035 23.9223 25.6477L23.9216 25.6485Z" fill="#004991"/>
<path d="M22.6415 31.336C25.7135 29.2592 29.923 29.5797 32.6422 32.2988C32.7216 32.3783 32.7981 32.4577 32.873 32.5402C33.5843 33.3129 34.1133 34.1929 34.4602 35.1262C34.5246 35.3691 34.6002 35.6097 34.6886 35.8466C35.0714 36.8773 35.6769 37.8443 36.5059 38.6732C37.3348 39.5021 38.3033 40.1091 39.337 40.4919C39.5716 40.5796 39.8085 40.6545 40.0476 40.7182C40.9832 41.0643 41.8662 41.5948 42.6404 42.3076C42.7221 42.3818 42.8023 42.4589 42.881 42.5376C45.5987 45.2553 45.9206 49.4633 43.8453 52.5369C44.7907 49.7747 44.1626 46.5939 41.9591 44.3904C40.9473 43.3786 39.7292 42.699 38.4391 42.3507C38.4263 42.347 38.4136 42.3432 38.4001 42.3402C37.2112 42.0197 36.0815 41.4165 35.1207 40.5306C35.039 40.4564 34.9588 40.3792 34.8801 40.3005C34.8014 40.2218 34.7242 40.1416 34.6492 40.0592C33.7641 39.0976 33.1609 37.9694 32.8404 36.7805C32.8366 36.7677 32.8329 36.755 32.8299 36.7415C32.4816 35.4514 31.802 34.2333 30.7902 33.2215C28.5867 31.018 25.4044 30.3899 22.6415 31.336Z" fill="#004991"/>
</g>
<path d="M230.714 39.6127V15.9936H234.322V25.9333C234.869 25.0148 235.624 24.2931 236.586 23.7682C237.57 23.2215 238.653 22.9481 239.833 22.9481C241.78 22.9481 243.311 23.5714 244.426 24.818C245.563 26.0427 246.132 27.8688 246.132 30.2963V39.6127H242.556V30.6571C242.556 29.1263 242.25 27.9781 241.638 27.2127C241.025 26.4254 240.085 26.0317 238.817 26.0317C237.526 26.0317 236.455 26.4801 235.602 27.3767C234.749 28.2734 234.322 29.5527 234.322 31.2148V39.6127H230.714Z" fill="#383838"/>
<path d="M224.991 39.6128V23.3418H228.6V39.6128H224.991ZM224.893 20.455V16.5513H228.731V20.455H224.893Z" fill="#383838"/>
<path d="M213.596 39.6127V23.3418H217.204V25.8677C217.598 25.0367 218.123 24.3915 218.779 23.9322C219.435 23.4511 220.2 23.2105 221.075 23.2105H223.339V26.4582H220.714C219.971 26.4582 219.336 26.6659 218.812 27.0815C218.287 27.4751 217.882 28.0984 217.598 28.9513C217.335 29.8042 217.204 30.8868 217.204 32.1989V39.6127H213.596Z" fill="#383838"/>
<path d="M201.592 40.0064C200.323 40.0064 199.241 39.7877 198.344 39.3503C197.469 38.8911 196.802 38.2897 196.343 37.5461C195.905 36.8025 195.687 35.9934 195.687 35.1186C195.687 33.3909 196.31 32.0568 197.557 31.1164C198.803 30.176 200.443 29.7059 202.477 29.7059C203.396 29.7059 204.216 29.7824 204.938 29.9355C205.659 30.0667 206.25 30.2089 206.709 30.3619V29.6074C206.709 28.339 206.359 27.3986 205.659 26.7863C204.981 26.1739 204.074 25.8677 202.937 25.8677C202.084 25.8677 201.329 26.0427 200.673 26.3926C200.017 26.7425 199.601 27.3549 199.426 28.2297H195.949C196.08 27.0487 196.474 26.0755 197.13 25.3101C197.808 24.5228 198.65 23.9323 199.656 23.5386C200.662 23.145 201.756 22.9482 202.937 22.9482C205.298 22.9482 207.114 23.5386 208.382 24.7196C209.672 25.9005 210.318 27.5298 210.318 29.6074V33.872C210.318 34.7031 210.361 35.3045 210.449 35.6763C210.558 36.048 210.722 36.2886 210.941 36.3979C211.181 36.4854 211.498 36.5292 211.892 36.5292H212.056V39.6128H211.269C210.175 39.6128 209.257 39.4488 208.513 39.1207C207.792 38.7927 207.289 38.1366 207.004 37.1524C206.479 37.9616 205.769 38.6396 204.872 39.1863C203.975 39.7331 202.882 40.0064 201.592 40.0064ZM202.313 37.1852C203.144 37.1852 203.855 36.9884 204.446 36.5948C205.036 36.1792 205.506 35.6434 205.856 34.9874C206.228 34.3094 206.458 33.5877 206.545 32.8223C206.064 32.6911 205.495 32.5598 204.839 32.4286C204.183 32.2974 203.516 32.2318 202.838 32.2318C201.679 32.2318 200.804 32.4724 200.214 32.9535C199.623 33.4346 199.328 34.0688 199.328 34.8561C199.328 35.5341 199.59 36.0918 200.115 36.5292C200.64 36.9666 201.373 37.1852 202.313 37.1852Z" fill="#383838"/>
<path d="M172.487 39.6128L166.32 16.6497H170.158L175.144 37.5789H174.094L179.835 16.6497H183.804L189.414 37.6117H188.364L193.35 16.6497H197.221L190.923 39.6128H186.691L181.344 20.4222H182.131L176.653 39.6128H172.487Z" fill="#383838"/>
<path d="M155.931 39.6128V23.3418H159.54V39.6128H155.931ZM155.833 20.455V16.5513H159.671V20.455H155.833Z" fill="#383838"/>
<path d="M127.557 39.6128V23.3418H131.165V25.4741C131.69 24.6868 132.379 24.0744 133.232 23.637C134.107 23.1778 135.08 22.9482 136.152 22.9482C137.42 22.9482 138.503 23.1997 139.399 23.7027C140.318 24.2057 141.029 24.9602 141.532 25.9662C142.122 25.0258 142.909 24.2931 143.893 23.7683C144.899 23.2215 145.993 22.9482 147.174 22.9482C149.208 22.9482 150.793 23.5714 151.931 24.818C153.09 26.0427 153.669 27.8688 153.669 30.2963V39.6128H150.094V30.6572C150.094 29.1263 149.787 27.9782 149.175 27.2127C148.585 26.4254 147.699 26.0318 146.518 26.0318C145.315 26.0318 144.331 26.4801 143.565 27.3767C142.822 28.2734 142.45 29.5528 142.45 31.2149V39.6128H138.842V30.6572C138.842 29.1263 138.535 27.9782 137.923 27.2127C137.311 26.4254 136.414 26.0318 135.233 26.0318C134.052 26.0318 133.079 26.4801 132.314 27.3767C131.548 28.2734 131.165 29.5528 131.165 31.2149V39.6128H127.557Z" fill="#383838"/>
<path d="M116.744 40.0065C114.929 40.0065 113.475 39.3941 112.381 38.1694C111.288 36.9229 110.741 35.0858 110.741 32.6583V23.3419H114.349V32.2975C114.349 33.8283 114.645 34.9874 115.235 35.7747C115.848 36.5402 116.7 36.9229 117.794 36.9229C119.062 36.9229 120.057 36.4745 120.779 35.5779C121.501 34.6812 121.862 33.4019 121.862 31.7398V23.3419H125.47V39.6128H121.862V37.0869C121.381 38.0054 120.703 38.7271 119.828 39.252C118.975 39.755 117.947 40.0065 116.744 40.0065Z" fill="#383838"/>
<path d="M93.3923 39.6127V15.9936H97.0008V25.9333C97.5476 25.0148 98.3021 24.2931 99.2643 23.7682C100.248 23.2215 101.331 22.9481 102.512 22.9481C104.458 22.9481 105.989 23.5714 107.105 24.818C108.242 26.0427 108.81 27.8688 108.81 30.2963V39.6127H105.235V30.6571C105.235 29.1263 104.929 27.9781 104.316 27.2127C103.704 26.4254 102.763 26.0317 101.495 26.0317C100.205 26.0317 99.1331 26.4801 98.2802 27.3767C97.4273 28.2734 97.0008 29.5527 97.0008 31.2148V39.6127H93.3923Z" fill="#383838"/>
<path d="M75.344 39.6128V16.6497H84.234C85.8305 16.6497 87.1645 16.9013 88.2361 17.4043C89.3077 17.9073 90.1169 18.6071 90.6637 19.5037C91.2104 20.3785 91.4838 21.3845 91.4838 22.5217C91.4838 23.6808 91.2323 24.654 90.7293 25.4413C90.2263 26.2286 89.5592 26.83 88.7282 27.2456C87.919 27.6611 87.0442 27.9235 86.1038 28.0329L86.5959 27.672C87.6238 27.6939 88.5423 27.9673 89.3515 28.4921C90.1825 28.9951 90.8386 29.6731 91.3197 30.526C91.8009 31.3789 92.0414 32.3193 92.0414 33.3472C92.0414 34.5281 91.7462 35.5997 91.1557 36.562C90.5871 37.5024 89.7451 38.246 88.6298 38.7927C87.5144 39.3394 86.1476 39.6128 84.5292 39.6128H75.344ZM78.9525 36.6604H84.07C85.4259 36.6604 86.4756 36.3433 87.2192 35.7091C87.9846 35.053 88.3673 34.1454 88.3673 32.9863C88.3673 31.8272 87.9737 30.9087 87.1864 30.2308C86.421 29.5528 85.3493 29.2138 83.9716 29.2138H78.9525V36.6604ZM78.9525 26.4583H83.7747C85.065 26.4583 86.0601 26.1521 86.7599 25.5397C87.4598 24.9274 87.8097 24.0854 87.8097 23.0138C87.8097 21.9641 87.4707 21.133 86.7927 20.5207C86.1148 19.8865 85.0869 19.5693 83.7091 19.5693H78.9525V26.4583Z" fill="#383838"/>
</svg>
