<svg preserveAspectRatio="none" width="100%" height="100%" overflow="visible" style="display: block;" viewBox="0 0 61.2798 61.2792" fill="none" xmlns="http://www.w3.org/2000/svg">
<g id="Group">
<path id="Vector" d="M58.7196 40.8365C53.1715 44.5864 45.5722 44.0077 40.6625 39.098C40.5196 38.9552 40.3805 38.8105 40.2461 38.663C38.9615 37.2682 38.0067 35.6781 37.3805 33.9946C37.2649 33.5557 37.1277 33.1215 36.9681 32.6929C36.2767 30.832 35.1827 29.086 33.6862 27.5895C32.1897 26.093 30.44 24.9971 28.5753 24.3057C28.1523 24.148 27.7246 24.0118 27.2923 23.897C25.6022 23.2718 24.0085 22.3151 22.6109 21.0277C22.4634 20.8933 22.3186 20.7542 22.1767 20.6123C17.2689 15.7045 16.6883 8.10694 20.4355 2.55799C18.728 7.54607 19.8629 13.2898 23.8408 17.2677C25.6678 19.0948 27.8676 20.3212 30.1964 20.95C30.2198 20.9565 30.2431 20.963 30.2674 20.9686C32.4141 21.5479 34.4533 22.6362 36.1889 24.2354C36.3364 24.3698 36.4811 24.5089 36.623 24.6508C36.7649 24.7927 36.9049 24.9384 37.0394 25.0859C38.6376 26.8224 39.7259 28.8597 40.3052 31.0064C40.3117 31.0298 40.3183 31.0531 40.3239 31.0774C40.9526 33.4062 42.1791 35.606 44.0061 37.433C47.985 41.4119 53.7305 42.5468 58.7196 40.8365Z" fill="white"/>
<path id="Vector_2" d="M59.6777 33.4935C55.0553 36.6185 48.7231 36.1356 44.6331 32.0456C44.5145 31.927 44.3988 31.8057 44.2858 31.6834C43.215 30.521 42.4198 29.1971 41.8981 27.7937C41.802 27.4286 41.6882 27.0663 41.5548 26.7086C40.979 25.1577 40.0671 23.704 38.8198 22.4567C37.5726 21.2095 36.1151 20.2975 34.5614 19.7208C34.2093 19.5893 33.8526 19.4754 33.4922 19.3803C32.0841 18.8596 30.7564 18.0625 29.5922 16.9898C29.469 16.8778 29.3495 16.762 29.2309 16.6435C25.1419 12.5544 24.6581 6.22499 27.7802 1.60164C26.3578 5.75761 27.3024 10.5432 30.6175 13.8584C32.1402 15.381 33.9721 16.4021 35.9125 16.9264C35.9321 16.9311 35.9517 16.9376 35.9713 16.9423C37.7594 17.4246 39.4588 18.3318 40.9049 19.664C41.0282 19.776 41.1477 19.8918 41.2662 20.0103C41.3848 20.1289 41.5005 20.2503 41.6135 20.3726C42.9447 21.8196 43.852 23.5171 44.3343 25.3053C44.3389 25.3249 44.3455 25.3445 44.3501 25.3641C44.8744 27.3044 45.8964 29.1373 47.4182 30.659C50.7333 33.9741 55.5199 34.9197 59.6768 33.4945L59.6777 33.4935Z" fill="white"/>
<path id="Vector_3" d="M61.2779 26.4081C57.4513 28.995 52.2079 28.5958 48.8209 25.2088C48.7219 25.1098 48.6267 25.0109 48.5334 24.9082C47.6474 23.9456 46.9884 22.8495 46.5564 21.687C46.4762 21.3844 46.3819 21.0847 46.2718 20.7896C45.795 19.5058 45.0408 18.3013 44.0082 17.2688C42.9757 16.2362 41.7694 15.4802 40.4818 15.0033C40.1895 14.8942 39.8945 14.8009 39.5966 14.7216C38.4313 14.2905 37.3314 13.6296 36.367 12.7418C36.2652 12.6494 36.1653 12.5532 36.0673 12.4552C32.6831 9.07099 32.283 3.83042 34.868 0.00191029C33.6904 3.44248 34.4728 7.40453 37.2175 10.1492C38.4778 11.4096 39.9951 12.2561 41.6021 12.6899C41.618 12.6946 41.6338 12.6993 41.6506 12.703C43.1316 13.1023 44.5387 13.8536 45.7355 14.9571C45.8373 15.0495 45.9372 15.1456 46.0352 15.2437C46.1333 15.3417 46.2294 15.4416 46.3228 15.5443C47.4253 16.7421 48.1766 18.1473 48.5759 19.6282C48.5806 19.6441 48.5852 19.66 48.589 19.6768C49.0228 21.2838 49.8693 22.8011 51.1297 24.0614C53.8744 26.8061 57.8383 27.5885 61.2798 26.41L61.2779 26.4081Z" fill="white"/>
<path id="Vector_4" d="M2.55189 20.4418C8.09991 16.6918 15.6993 17.2706 20.609 22.1802C20.7518 22.3231 20.8909 22.4678 21.0253 22.6153C22.3099 24.0101 23.2648 25.6001 23.8909 27.2837C24.0066 27.7225 24.1438 28.1567 24.3033 28.5853C24.9948 30.4463 26.0887 32.1922 27.5853 33.6888C29.0818 35.1853 30.8315 36.2811 32.6962 36.9726C33.1191 37.1303 33.5468 37.2665 33.9791 37.3812C35.6692 38.0064 37.263 38.9632 38.6606 40.2505C38.8081 40.385 38.9528 40.5241 39.0947 40.666C44.0025 45.5738 44.5831 53.1713 40.836 58.7203C42.5435 53.7322 41.4086 47.9885 37.4306 44.0105C35.6036 42.1835 33.4038 40.957 31.075 40.3283C31.0517 40.3218 31.0283 40.3152 31.0041 40.3096C28.8573 39.7303 26.8181 38.642 25.0826 37.0429C24.9351 36.9084 24.7904 36.7693 24.6485 36.6274C24.5066 36.4855 24.3665 36.3399 24.2321 36.1924C22.6339 34.4559 21.5456 32.4186 20.9663 30.2718C20.9597 30.2485 20.9532 30.2251 20.9476 30.2009C20.3188 27.872 19.0924 25.6723 17.2654 23.8453C13.2865 19.8664 7.54091 18.7315 2.55189 20.4418Z" fill="white"/>
<path id="Vector_5" d="M1.59438 27.7849C6.21679 24.6599 12.549 25.1428 16.639 29.2328C16.7576 29.3514 16.8733 29.4728 16.9863 29.5951C18.0571 30.7574 18.8523 32.0813 19.3739 33.4847C19.47 33.8498 19.5839 34.2121 19.7173 34.5698C20.293 36.1207 21.205 37.5744 22.4523 38.8217C23.6995 40.0689 25.157 40.9809 26.7107 41.5576C27.0627 41.6892 27.4194 41.803 27.7799 41.8981C29.1879 42.4188 30.5156 43.2159 31.6798 44.2886C31.8031 44.4006 31.9226 44.5164 32.0411 44.635C36.1302 48.724 36.614 55.0534 33.4919 59.6768C34.9143 55.5208 33.9697 50.7352 30.6545 47.42C29.1319 45.8974 27.3 44.8763 25.3596 44.352C25.34 44.3473 25.3204 44.3408 25.3008 44.3361C23.5126 43.8538 21.8133 42.9466 20.3672 41.6144C20.2439 41.5024 20.1244 41.3866 20.0059 41.2681C19.8873 41.1495 19.7715 41.0282 19.6586 40.9059C18.3273 39.4588 17.4201 37.7613 16.9378 35.9732C16.9331 35.9535 16.9266 35.9339 16.922 35.9143C16.3977 33.974 15.3756 32.1411 13.8539 30.6194C10.5388 27.3043 5.75221 26.3587 1.59531 27.784L1.59438 27.7849Z" fill="white"/>
<path id="Vector_6" d="M0.000160901 34.8693C3.8268 32.2825 9.07017 32.6816 12.4572 36.0687C12.5561 36.1676 12.6514 36.2666 12.7447 36.3693C13.6307 37.3318 14.2896 38.4279 14.7217 39.5905C14.8019 39.893 14.8962 40.1927 15.0063 40.4878C15.4831 41.7717 16.2373 42.9761 17.2698 44.0086C18.3024 45.0412 19.5087 45.7973 20.7963 46.2741C21.0886 46.3833 21.3836 46.4766 21.6815 46.5559C22.8468 46.987 23.9467 47.6478 24.9111 48.5356C25.0128 48.6281 25.1127 48.7242 25.2108 48.8222C28.5959 52.2074 28.9969 57.4489 26.412 61.2774C27.5895 57.8368 26.8072 53.8748 24.0624 51.1301C22.8021 49.8697 21.2849 49.0232 19.6779 48.5894C19.662 48.5847 19.6461 48.58 19.6293 48.5763C18.1484 48.177 16.7413 47.4257 15.5444 46.3222C15.4426 46.2298 15.3427 46.1337 15.2447 46.0356C15.1467 45.9376 15.0505 45.8377 14.9572 45.735C13.8547 44.5372 13.1033 43.132 12.704 41.6511C12.6994 41.6352 12.6947 41.6193 12.691 41.6025C12.2572 39.9955 11.4106 38.4782 10.1503 37.2179C7.40558 34.4732 3.44167 33.6908 0.000160901 34.8693Z" fill="white"/>
</g>
</svg>
