<svg width="37" height="37" viewBox="0 0 37 37" fill="none" xmlns="http://www.w3.org/2000/svg">
<path d="M40.6502 26.2425C36.1961 29.253 30.0952 28.7884 26.1536 24.8468C26.0389 24.7322 25.9273 24.616 25.8193 24.4976C24.7881 23.3778 24.0215 22.1013 23.5188 20.7497C23.4259 20.3974 23.3158 20.0488 23.1877 19.7047C22.6326 18.2107 21.7543 16.809 20.5529 15.6076C19.3515 14.4062 17.9468 13.5264 16.4498 12.9713C16.1102 12.8447 15.7669 12.7353 15.4198 12.6432C14.063 12.1413 12.7834 11.3732 11.6614 10.3397C11.543 10.2317 11.4268 10.1201 11.3129 10.0061C7.37282 6.06607 6.9067 -0.0333643 9.91499 -4.48817C8.54417 -0.483639 9.45528 4.12751 12.6489 7.3211C14.1156 8.78786 15.8816 9.77247 17.7513 10.2773C17.77 10.2825 17.7887 10.2877 17.8082 10.2922C19.5317 10.7573 21.1688 11.631 22.5621 12.9149C22.6805 13.0228 22.7967 13.1345 22.9106 13.2484C23.0245 13.3623 23.137 13.4792 23.2449 13.5976C24.528 14.9917 25.4017 16.6273 25.8668 18.3508C25.872 18.3695 25.8773 18.3883 25.8817 18.4077C26.3865 20.2774 27.3711 22.0434 28.8379 23.5101C32.0322 26.7045 36.6449 27.6156 40.6502 26.2425Z" fill="#09BDF2"/>
<path d="M41.4194 20.3474C37.7084 22.8562 32.6248 22.4685 29.3413 19.185C29.2461 19.0898 29.1532 18.9924 29.0625 18.8942C28.2028 17.9611 27.5644 16.8982 27.1456 15.7715C27.0685 15.4784 26.9771 15.1875 26.87 14.9004C26.4077 13.6553 25.6756 12.4882 24.6743 11.4869C23.673 10.4856 22.5029 9.75343 21.2555 9.29046C20.9729 9.18483 20.6865 9.09345 20.3972 9.01706C19.2667 8.59904 18.2008 7.95909 17.2662 7.09795C17.1673 7.00801 17.0713 6.91507 16.9762 6.81989C13.6934 3.53711 13.3049 -1.54425 15.8115 -5.25596C14.6695 -1.91948 15.4279 1.92253 18.0893 4.58397C19.3117 5.8064 20.7824 6.62616 22.3402 7.04706C22.3559 7.0508 22.3717 7.05604 22.3874 7.05979C23.823 7.44699 25.1872 8.17532 26.3482 9.24482C26.4472 9.33475 26.5431 9.42769 26.6383 9.52287C26.7335 9.61806 26.8264 9.71549 26.9171 9.81368C27.9858 10.9754 28.7142 12.3382 29.1014 13.7737C29.1051 13.7895 29.1104 13.8052 29.1141 13.821C29.535 15.3787 30.3555 16.8502 31.5772 18.0718C34.2386 20.7333 38.0814 21.4924 41.4186 20.3482L41.4194 20.3474Z" fill="#09BDF2"/>
<path d="M42.7041 14.6591C39.632 16.7359 35.4225 16.4155 32.7033 13.6963C32.6239 13.6169 32.5474 13.5374 32.4725 13.455C31.7612 12.6822 31.2322 11.8022 30.8853 10.8689C30.8209 10.626 30.7453 10.3854 30.6569 10.1485C30.2741 9.1178 29.6686 8.15086 28.8396 7.32192C28.0107 6.49298 27.0423 5.88599 26.0085 5.50318C25.7739 5.41553 25.537 5.34063 25.2979 5.27697C24.3623 4.93087 23.4793 4.40033 22.7051 3.68758C22.6234 3.61338 22.5432 3.53618 22.4645 3.45749C19.7476 0.740577 19.4264 -3.46665 21.5017 -6.54025C20.5563 -3.77809 21.1844 -0.597287 23.3879 1.60622C24.3997 2.61803 25.6178 3.29767 26.9079 3.64593C26.9207 3.64967 26.9334 3.65342 26.9469 3.65641C28.1359 3.97695 29.2655 4.58015 30.2264 5.46603C30.308 5.54022 30.3882 5.61742 30.4669 5.69612C30.5456 5.77481 30.6228 5.85501 30.6978 5.93746C31.5829 6.89908 32.1861 8.02721 32.5066 9.21614C32.5104 9.22889 32.5141 9.24163 32.5171 9.25512C32.8654 10.5453 33.545 11.7633 34.5568 12.7752C36.7603 14.9787 39.9427 15.6068 42.7056 14.6606L42.7041 14.6591Z" fill="#09BDF2"/>
<path d="M-4.44205 9.86927C0.0120037 6.85873 6.11294 7.32335 10.0545 11.2649C10.1692 11.3796 10.2809 11.4958 10.3888 11.6142C11.4201 12.734 12.1866 14.0105 12.6893 15.3621C12.7822 15.7144 12.8923 16.063 13.0204 16.4071C13.5755 17.901 14.4538 19.3027 15.6552 20.5042C16.8566 21.7056 18.2613 22.5854 19.7583 23.1405C20.0979 23.2671 20.4413 23.3765 20.7883 23.4686C22.1452 23.9705 23.4247 24.7386 24.5467 25.7721C24.6651 25.88 24.7813 25.9917 24.8952 26.1056C28.8353 30.0457 29.3014 36.1451 26.2931 40.5999C27.6639 36.5954 26.7528 31.9843 23.5592 28.7907C22.0925 27.3239 20.3265 26.3393 18.4569 25.8345C18.4381 25.8293 18.4194 25.824 18.3999 25.8195C16.6765 25.3545 15.0394 24.4808 13.646 23.1969C13.5276 23.089 13.4114 22.9773 13.2975 22.8634C13.1836 22.7495 13.0712 22.6325 12.9632 22.5141C11.6801 21.12 10.8064 19.4844 10.3413 17.761C10.3361 17.7423 10.3309 17.7235 10.3264 17.704C9.82159 15.8344 8.83697 14.0684 7.37022 12.6016C4.17588 9.40731 -0.436771 8.4962 -4.44205 9.86927Z" fill="#004991"/>
<path d="M-5.21052 15.7644C-1.49956 13.2557 3.58405 13.6433 6.86758 16.9269C6.96276 17.0221 7.0557 17.1195 7.14639 17.2177C8.00603 18.1508 8.64448 19.2137 9.06325 20.3404C9.14039 20.6335 9.23177 20.9244 9.3389 21.2115C9.80112 22.4566 10.5333 23.6237 11.5346 24.625C12.5359 25.6263 13.706 26.3585 14.9533 26.8214C15.236 26.927 15.5223 27.0184 15.8117 27.0948C16.9421 27.5128 18.008 28.1528 18.9426 29.0139C19.0416 29.1039 19.1375 29.1968 19.2327 29.292C22.5155 32.5748 22.9039 37.6561 20.3974 41.3678C21.5393 38.0314 20.781 34.1893 18.1195 31.5279C16.8971 30.3055 15.4264 29.4857 13.8687 29.0648C13.8529 29.0611 13.8372 29.0558 13.8214 29.0521C12.3859 28.6649 11.0216 27.9366 9.86062 26.8671C9.76168 26.7771 9.66575 26.6842 9.57056 26.589C9.47538 26.4938 9.38244 26.3964 9.29175 26.2982C8.22301 25.1365 7.49468 23.7737 7.10748 22.3381C7.10374 22.3224 7.09849 22.3067 7.09475 22.2909C6.67385 20.7332 5.85334 19.2617 4.63166 18.04C1.97022 15.3786 -1.87254 14.6195 -5.20977 15.7637L-5.21052 15.7644Z" fill="#004991"/>
<path d="M-6.49063 21.452C-3.41853 19.3752 0.790949 19.6956 3.51011 22.4148C3.58955 22.4942 3.666 22.5737 3.74095 22.6561C4.4522 23.4289 4.98124 24.3089 5.32809 25.2422C5.3925 25.485 5.46815 25.7257 5.55655 25.9626C5.93936 26.9933 6.54485 27.9602 7.37379 28.7892C8.20273 29.6181 9.17117 30.2251 10.2049 30.6079C10.4395 30.6956 10.6764 30.7705 10.9156 30.8341C11.8511 31.1802 12.7341 31.7108 13.5083 32.4235C13.59 32.4977 13.6702 32.5749 13.7489 32.6536C16.4666 35.3713 16.7885 39.5792 14.7133 42.6528C15.6586 39.8907 15.0305 36.7099 12.827 34.5064C11.8152 33.4946 10.5971 32.8149 9.307 32.4667C9.29425 32.4629 9.28151 32.4592 9.26802 32.4562C8.07908 32.1356 6.94945 31.5324 5.98858 30.6466C5.90688 30.5724 5.82669 30.4952 5.74799 30.4165C5.66929 30.3378 5.59209 30.2576 5.51715 30.1751C4.63202 29.2135 4.02882 28.0854 3.70828 26.8965C3.70454 26.8837 3.70079 26.871 3.6978 26.8575C3.34954 25.5673 2.66991 24.3493 1.65809 23.3374C-0.545417 21.1339 -3.72772 20.5058 -6.49063 21.452Z" fill="#004991"/>
</svg>
