<svg width="727" height="900" viewBox="0 0 727 900" fill="none" xmlns="http://www.w3.org/2000/svg">
<g style="mix-blend-mode:hard-light">
<mask id="mask0_253_524" style="mask-type:alpha" maskUnits="userSpaceOnUse" x="-18" y="0" width="745" height="900">
<path d="M-18 0H727V900H-18V0Z" fill="url(#paint0_linear_253_524)"/>
</mask>
<g mask="url(#mask0_253_524)">
<path d="M-124.249 -713.996C117.353 -651.226 287.896 -424.343 270.787 -165.936C270.289 -158.418 269.647 -150.959 268.812 -143.561C261.242 -73.2341 240.089 -7.31734 208.233 51.7067C198.759 65.763 189.945 80.305 181.84 95.3358C146.61 160.561 124.501 234.214 119.286 312.979C114.07 391.744 126.323 467.714 152.75 536.931C158.721 552.653 165.409 567.976 172.816 582.901C196.81 645.599 209.134 713.778 207.357 784.619C207.21 792.06 206.863 799.538 206.369 807.007C189.266 1065.31 -9.67715 1268.87 -257.502 1300.84C-75.5494 1225.63 57.7456 1052.27 71.6078 842.905C77.9744 746.746 58.325 654.964 18.7308 574.307C18.3402 573.493 17.9497 572.679 17.5101 571.862C-18.9963 497.518 -38.5762 413.635 -36.3555 325.652C-36.2084 318.21 -35.8615 310.732 -35.367 303.264C-34.8725 295.795 -34.2272 288.286 -33.3918 280.889C-23.9426 193.361 6.48326 112.685 52.4892 43.551C52.9839 42.7928 53.4785 42.0345 54.0223 41.2794C103.923 -33.7269 135.512 -122.274 141.879 -218.433C155.744 -427.851 46.3732 -616.58 -124.249 -713.996Z" fill="url(#paint1_linear_253_524)"/>
<path d="M-161.973 -525.822C-3.26318 -484.604 108.755 -335.548 97.5182 -165.837C97.1925 -160.918 96.7504 -156.005 96.2333 -151.137C91.2662 -104.926 77.3842 -61.6515 56.4419 -22.8682C50.226 -13.6524 44.4158 -4.09987 39.0892 5.79452C15.9316 48.6391 1.43961 97.01 -1.98698 148.764C-5.41357 200.517 2.65155 250.39 20.0002 295.87C23.9104 306.192 28.3038 316.272 33.1829 326.072C48.9478 367.251 57.0388 412.029 55.8658 458.557C55.7752 463.453 55.5296 468.339 55.2038 473.258C43.97 642.93 -86.6908 776.625 -249.481 797.622C-129.968 748.219 -42.3914 634.365 -33.2837 496.807C-29.1005 433.626 -42.0064 373.372 -68.0062 320.383C-68.283 319.86 -68.5185 319.301 -68.7952 318.777C-92.7745 269.961 -105.631 214.846 -104.18 157.054C-104.089 152.159 -103.843 147.273 -103.518 142.353C-103.192 137.434 -102.75 132.521 -102.233 127.653C-96.013 70.1624 -76.0365 17.1587 -45.8196 -28.2356C-45.4761 -28.7196 -45.169 -29.2448 -44.8255 -29.7289C-12.0546 -79.0074 8.69193 -137.175 12.8726 -200.318C21.9802 -337.876 -49.8507 -461.833 -161.934 -525.82L-161.973 -525.822Z" fill="url(#paint2_linear_253_524)"/>
<path d="M22.557 -821.149C299.843 -749.136 495.553 -488.715 475.921 -192.209C475.352 -183.613 474.58 -175.031 473.677 -166.525C464.999 -85.789 440.745 -10.1825 404.156 57.577C393.296 73.6781 383.145 90.3679 373.839 107.654C333.379 182.51 308.06 267.02 302.073 357.44C296.086 447.861 310.177 534.995 340.488 614.455C347.319 632.488 354.995 650.1 363.519 667.221C391.063 739.165 405.199 817.4 403.149 898.69C402.991 907.243 402.562 915.779 401.993 924.375C382.366 1220.81 154.084 1454.4 -130.331 1491.08C78.474 1404.77 231.481 1205.85 247.393 965.518C254.702 855.132 232.154 749.861 186.729 657.282C186.245 656.368 185.834 655.39 185.35 654.476C143.455 569.188 120.993 472.894 123.529 371.925C123.687 363.372 124.117 354.836 124.686 346.24C125.255 337.645 126.027 329.062 126.93 320.556C137.797 220.114 172.699 127.509 225.492 48.1995C226.092 47.3538 226.629 46.4363 227.229 45.5906C284.484 -40.5053 320.73 -142.132 328.035 -252.45C343.947 -492.782 218.449 -709.351 22.6248 -821.145L22.557 -821.149Z" fill="url(#paint3_linear_253_524)"/>
<path d="M-245.601 -384.162C-114.217 -350.037 -21.4447 -226.625 -30.7498 -86.0842C-31.0217 -81.978 -31.366 -77.9541 -31.8292 -73.899C-35.9578 -35.6489 -47.4401 0.191816 -64.7884 32.3168C-69.9274 39.9668 -74.733 47.8713 -79.1275 56.035C-98.2934 91.5074 -110.327 131.553 -113.163 174.397C-116 217.241 -109.353 258.545 -94.9517 296.214C-91.704 304.783 -88.0507 313.104 -84.033 321.216C-70.9905 355.299 -64.2989 392.404 -65.2537 430.932C-65.3267 434.973 -65.5184 439.045 -65.7877 443.113C-75.0877 583.576 -183.284 694.299 -318.079 711.696C-219.138 670.796 -146.64 576.53 -139.099 462.64C-135.637 410.345 -146.307 360.424 -167.849 316.546C-168.054 316.106 -168.258 315.665 -168.501 315.221C-188.365 274.795 -199.007 229.155 -197.786 181.308C-197.713 177.267 -197.521 173.195 -197.251 169.127C-196.982 165.06 -196.635 160.997 -196.172 156.942C-191.035 109.342 -174.505 65.4563 -149.476 27.8645C-149.215 27.4531 -148.954 27.0418 -148.654 26.6327C-121.505 -14.1705 -104.341 -62.3338 -100.878 -114.63C-93.3379 -228.519 -152.838 -331.159 -245.601 -384.162Z" fill="url(#paint4_linear_253_524)"/>
</g>
</g>
<defs>
<linearGradient id="paint0_linear_253_524" x1="531.473" y1="450" x2="223.766" y2="450" gradientUnits="userSpaceOnUse">
<stop stop-color="#00FFFB" stop-opacity="0"/>
<stop offset="0.5" stop-color="#00A1DC"/>
</linearGradient>
<linearGradient id="paint1_linear_253_524" x1="-261.14" y1="19.9203" x2="217.706" y2="564.985" gradientUnits="userSpaceOnUse">
<stop stop-color="#00FFFB" stop-opacity="0"/>
<stop offset="0.5" stop-color="#00A1DC"/>
</linearGradient>
<linearGradient id="paint2_linear_253_524" x1="-261.14" y1="19.9203" x2="217.706" y2="564.985" gradientUnits="userSpaceOnUse">
<stop stop-color="#00FFFB" stop-opacity="0"/>
<stop offset="0.5" stop-color="#00A1DC"/>
</linearGradient>
<linearGradient id="paint3_linear_253_524" x1="-261.14" y1="19.9203" x2="217.706" y2="564.985" gradientUnits="userSpaceOnUse">
<stop stop-color="#00FFFB" stop-opacity="0"/>
<stop offset="0.5" stop-color="#00A1DC"/>
</linearGradient>
<linearGradient id="paint4_linear_253_524" x1="-261.14" y1="19.9203" x2="217.706" y2="564.985" gradientUnits="userSpaceOnUse">
<stop stop-color="#00FFFB" stop-opacity="0"/>
<stop offset="0.5" stop-color="#00A1DC"/>
</linearGradient>
</defs>
</svg>
