<svg width="1048" height="900" viewBox="0 0 1048 900" fill="none" xmlns="http://www.w3.org/2000/svg">
<path fill-rule="evenodd" clip-rule="evenodd" d="M872.94 877.894C1078.05 1082.34 1102.29 1398.85 945.626 1629.93C1017.09 1422.12 969.655 1182.85 803.395 1017.13C727.071 941.054 635.144 889.958 537.823 863.748C536.84 863.515 535.857 863.188 534.873 862.955C445.187 838.843 360.049 793.488 287.47 726.935C281.336 721.287 275.249 715.5 269.302 709.572C263.355 703.645 257.549 697.671 251.931 691.51C237.814 676.235 224.648 660.394 212.434 644.066C233.095 677.26 257.872 708.62 286.745 737.4C341.239 791.717 404.815 831.424 472.578 856.521C488.184 862.312 503.995 867.29 519.976 871.488C581.279 894.214 639.179 928.872 689.968 975.496C695.339 980.375 700.608 985.424 705.809 990.609C884.587 1168.81 905.661 1444.63 769.112 1646C831.39 1464.92 790.065 1256.38 645.18 1111.97C578.652 1045.65 498.551 1001.14 413.751 978.318C412.867 978.115 412.017 977.878 411.167 977.641C373.951 967.63 337.64 953.428 302.982 935.039C303.183 935.241 303.382 935.444 303.584 935.646C339.39 971.335 381.123 997.43 425.647 1013.9C435.913 1017.72 446.314 1020.98 456.795 1023.73C497.083 1038.66 535.091 1061.41 568.458 1092.05C571.969 1095.28 575.453 1098.6 578.857 1101.99C696.255 1219.01 710.13 1400.17 620.459 1532.43C661.362 1413.49 634.214 1276.54 539.052 1181.68C498.903 1141.66 451.209 1113.72 400.509 1097.82C408.946 1103.98 417.118 1110.66 424.979 1117.87C427.927 1120.55 430.768 1123.27 433.608 1126.1C530.841 1223.02 542.299 1373.06 468.037 1482.55C501.87 1384.08 479.409 1270.65 400.615 1192.11C364.434 1156.05 320.878 1131.82 274.745 1119.41C274.263 1119.31 273.807 1119.17 273.352 1119.04C230.837 1107.61 190.496 1086.11 156.11 1054.57C153.162 1051.9 150.295 1049.14 147.481 1046.34C144.667 1043.53 141.906 1040.67 139.253 1037.76C107.575 1003.51 86.0061 963.252 74.544 920.875C74.4369 920.394 74.3029 919.94 74.169 919.485C61.716 873.502 37.4133 830.086 1.23251 794.022C-77.5613 715.484 -191.302 693.096 -290.072 726.792C-180.165 652.824 -29.6946 664.3 67.4845 761.164C70.2985 763.969 73.0589 766.827 75.712 769.739C101.199 797.335 120.17 828.808 132.546 862.152C134.822 870.676 137.502 879.119 140.636 887.481C154.324 924.326 176.029 958.845 205.67 988.391C223.988 1006.65 244.192 1021.86 265.652 1034.05C258.158 1028.25 250.85 1022.09 243.753 1015.59C240.242 1012.35 236.758 1009.04 233.355 1005.65C229.951 1002.25 226.627 998.836 223.411 995.31C185.168 953.929 159.124 905.303 145.278 854.136C145.145 853.575 144.957 853.013 144.823 852.452C129.773 796.929 100.459 744.51 56.7472 700.939C-38.4219 606.079 -175.806 579.048 -295.113 619.751C-195.057 552.401 -67.1664 543.692 40.0206 593.614C15.9262 515.449 -27.0879 441.874 -89.1054 380.058C-233.957 235.676 -443.104 194.484 -624.737 256.459C-422.681 120.454 -146.029 141.528 32.6808 319.659C37.8479 324.81 42.9126 330.062 47.8077 335.416C69.385 358.765 88.4104 383.623 104.883 409.636C76.5772 324.651 28.5872 244.83 -39.2538 177.209C-205.527 11.4744 -445.554 -35.7518 -654 35.3613C-422.112 -120.726 -104.656 -96.5375 100.434 107.889C106.38 113.816 112.187 119.79 117.806 125.951C171.605 184.153 211.586 250.529 237.701 320.924C242.474 338.943 248.183 356.775 254.782 374.374C283.706 452.051 329.446 524.914 392.003 587.269C454.56 649.623 527.472 695.216 605.261 723.999C623.198 730.67 641.37 736.361 659.682 741.164C730.071 767.242 796.474 807 854.772 860.532C860.906 866.179 866.993 871.966 872.94 877.894ZM620.45 1532.46L620.424 1532.49C620.436 1532.47 620.447 1532.45 620.459 1532.43C620.456 1532.44 620.453 1532.45 620.45 1532.46ZM945.609 1629.98L945.563 1630.03C945.584 1629.99 945.605 1629.96 945.626 1629.93C945.621 1629.95 945.615 1629.96 945.609 1629.98Z" fill="url(#paint0_linear_49_1059)"/>
<path fill-rule="evenodd" clip-rule="evenodd" d="M872.94 877.894C1078.05 1082.34 1102.29 1398.85 945.626 1629.93C1017.09 1422.12 969.655 1182.85 803.395 1017.13C727.071 941.054 635.144 889.958 537.823 863.748C536.84 863.515 535.857 863.188 534.873 862.955C445.187 838.843 360.049 793.488 287.47 726.935C281.336 721.287 275.249 715.5 269.302 709.572C263.355 703.645 257.549 697.671 251.931 691.51C237.814 676.235 224.648 660.394 212.434 644.066C233.095 677.26 257.872 708.62 286.745 737.4C341.239 791.717 404.815 831.424 472.578 856.521C488.184 862.312 503.995 867.29 519.976 871.488C581.279 894.214 639.179 928.872 689.968 975.496C695.339 980.375 700.608 985.424 705.809 990.609C884.587 1168.81 905.661 1444.63 769.112 1646C831.39 1464.92 790.065 1256.38 645.18 1111.97C578.652 1045.65 498.551 1001.14 413.751 978.318C412.867 978.115 412.017 977.878 411.167 977.641C373.951 967.63 337.64 953.428 302.982 935.039C303.183 935.241 303.382 935.444 303.584 935.646C339.39 971.335 381.123 997.43 425.647 1013.9C435.913 1017.72 446.314 1020.98 456.795 1023.73C497.083 1038.66 535.091 1061.41 568.458 1092.05C571.969 1095.28 575.453 1098.6 578.857 1101.99C696.255 1219.01 710.13 1400.17 620.459 1532.43C661.362 1413.49 634.214 1276.54 539.052 1181.68C498.903 1141.66 451.209 1113.72 400.509 1097.82C408.946 1103.98 417.118 1110.66 424.979 1117.87C427.927 1120.55 430.768 1123.27 433.608 1126.1C530.841 1223.02 542.299 1373.06 468.037 1482.55C501.87 1384.08 479.409 1270.65 400.615 1192.11C364.434 1156.05 320.878 1131.82 274.745 1119.41C274.263 1119.31 273.807 1119.17 273.352 1119.04C230.837 1107.61 190.496 1086.11 156.11 1054.57C153.162 1051.9 150.295 1049.14 147.481 1046.34C144.667 1043.53 141.906 1040.67 139.253 1037.76C107.575 1003.51 86.0061 963.252 74.544 920.875C74.4369 920.394 74.3029 919.94 74.169 919.485C61.716 873.502 37.4133 830.086 1.23251 794.022C-77.5613 715.484 -191.302 693.096 -290.072 726.792C-180.165 652.824 -29.6946 664.3 67.4845 761.164C70.2985 763.969 73.0589 766.827 75.712 769.739C101.199 797.335 120.17 828.808 132.546 862.152C134.822 870.676 137.502 879.119 140.636 887.481C154.324 924.326 176.029 958.845 205.67 988.391C223.988 1006.65 244.192 1021.86 265.652 1034.05C258.158 1028.25 250.85 1022.09 243.753 1015.59C240.242 1012.35 236.758 1009.04 233.355 1005.65C229.951 1002.25 226.627 998.836 223.411 995.31C185.168 953.929 159.124 905.303 145.278 854.136C145.145 853.575 144.957 853.013 144.823 852.452C129.773 796.929 100.459 744.51 56.7472 700.939C-38.4219 606.079 -175.806 579.048 -295.113 619.751C-195.057 552.401 -67.1664 543.692 40.0206 593.614C15.9262 515.449 -27.0879 441.874 -89.1054 380.058C-233.957 235.676 -443.104 194.484 -624.737 256.459C-422.681 120.454 -146.029 141.528 32.6808 319.659C37.8479 324.81 42.9126 330.062 47.8077 335.416C69.385 358.765 88.4104 383.623 104.883 409.636C76.5772 324.651 28.5872 244.83 -39.2538 177.209C-205.527 11.4744 -445.554 -35.7518 -654 35.3613C-422.112 -120.726 -104.656 -96.5375 100.434 107.889C106.38 113.816 112.187 119.79 117.806 125.951C171.605 184.153 211.586 250.529 237.701 320.924C242.474 338.943 248.183 356.775 254.782 374.374C283.706 452.051 329.446 524.914 392.003 587.269C454.56 649.623 527.472 695.216 605.261 723.999C623.198 730.67 641.37 736.361 659.682 741.164C730.071 767.242 796.474 807 854.772 860.532C860.906 866.179 866.993 871.966 872.94 877.894ZM620.45 1532.46L620.424 1532.49C620.436 1532.47 620.447 1532.45 620.459 1532.43C620.456 1532.44 620.453 1532.45 620.45 1532.46ZM945.609 1629.98L945.563 1630.03C945.584 1629.99 945.605 1629.96 945.626 1629.93C945.621 1629.95 945.615 1629.96 945.609 1629.98Z" fill="url(#paint1_linear_49_1059)"/>
<defs>
<linearGradient id="paint0_linear_49_1059" x1="438.329" y1="818.396" x2="174.323" y2="1101.81" gradientUnits="userSpaceOnUse">
<stop stop-color="#2721C3"/>
<stop offset="1" stop-color="#13105D" stop-opacity="0"/>
</linearGradient>
<linearGradient id="paint1_linear_49_1059" x1="196.691" y1="1196.68" x2="229.047" y2="463.295" gradientUnits="userSpaceOnUse">
<stop stop-color="#00FFFB" stop-opacity="0"/>
<stop offset="0.884657" stop-color="#00A1DC"/>
</linearGradient>
</defs>
</svg>
